<svg width="1512" height="1062" viewBox="0 0 1512 1062" fill="none" xmlns="http://www.w3.org/2000/svg">
<g opacity="0.3">
<path d="M315.166 967.109C306.485 954.598 283.76 948.895 266.313 948.895C260.951 948.895 256.014 949.406 251.503 950.342C235.077 953.917 221.119 957.066 208.778 959.874C175.669 967.364 155.668 971.875 139.072 971.875C125.284 971.875 113.453 968.811 96.8564 960.896C79.5789 952.64 66.8122 944.725 56.5989 938.426C40.598 928.554 30.0442 922 15.5753 922C10.8091 922 5.70244 922.681 0 924.213V925.404C5.70244 923.872 10.8091 923.192 15.5753 923.192C29.7038 923.192 40.1724 929.66 56.0031 939.448C66.2164 945.831 78.9831 953.661 96.3458 962.002C113.113 970.003 125.113 973.067 139.072 973.067C155.838 973.067 175.84 968.556 209.033 961.066C221.374 958.257 235.332 955.023 251.759 951.534C256.184 950.597 261.036 950.087 266.313 950.087C283.505 950.087 305.804 955.619 314.145 967.79C317.89 973.152 318.486 979.195 315.932 985.833C310.996 999.111 287.59 1010.86 266.908 1021.15C254.397 1027.45 242.652 1033.33 236.524 1038.86C218.821 1054.86 223.076 1076.56 230.311 1099.97H231.502C224.353 1076.82 220.097 1055.37 237.375 1039.71C243.333 1034.35 254.993 1028.47 267.419 1022.26C288.271 1011.79 311.932 999.962 317.124 986.259C319.762 979.195 319.082 972.811 315.166 967.109Z" fill="#CA9050"/>
<path d="M213.459 1006.26C216.182 1004.56 219.331 1004.3 222.14 1004.3C223.417 1004.3 224.693 1004.39 226.055 1004.39C227.502 1004.47 228.864 1004.56 230.311 1004.56C233.46 1004.56 237.63 1004.22 241.375 1001.92C250.993 995.961 254.227 988.982 253.12 985.067C252.354 982.428 249.886 980.982 246.226 980.982C242.992 980.982 238.822 982.088 234.311 984.301C231.332 985.748 228.694 988.216 226.225 990.684C223.161 993.663 219.927 996.642 216.352 997.663C215.246 998.004 214.14 998.089 212.948 998.089C210.65 998.089 208.607 997.493 206.394 996.897C204.267 996.302 202.054 995.621 199.586 995.621C198.734 995.621 197.883 995.706 197.032 995.876C192.692 996.727 189.798 999.451 186.904 1002.09C184.521 1004.3 182.053 1006.6 178.818 1007.71C175.159 1008.98 170.222 1009.58 163.669 1009.58C155.158 1009.58 145.71 1008.56 138.135 1007.71C135.922 1007.45 133.88 1007.2 132.092 1007.03C116.347 1005.41 100.006 1000.47 82.0471 991.961C63.0673 982.854 49.4496 974.428 38.5553 967.704C32.5124 963.959 26.4696 962.087 20.4267 962.087C12.6816 962.087 5.78756 965.066 0 969.577V970.172C5.78756 965.576 12.6816 962.598 20.4267 962.598C26.3844 962.598 32.3422 964.47 38.3 968.13C49.1942 974.854 62.812 983.28 81.7918 992.386C99.8353 1000.98 116.262 1005.92 132.092 1007.54C133.88 1007.71 135.837 1007.96 138.05 1008.22C145.625 1009.07 155.072 1010.09 163.669 1010.09C170.222 1010.09 175.244 1009.49 178.989 1008.22C182.308 1007.03 184.861 1004.73 187.244 1002.43C190.138 999.706 192.947 997.153 197.117 996.387C197.912 996.216 198.734 996.131 199.586 996.131C201.969 996.131 204.182 996.812 206.224 997.408C208.352 998.004 210.565 998.6 212.948 998.6C214.14 998.6 215.331 998.514 216.438 998.174C220.268 997.153 223.417 994.004 226.566 991.025C229.034 988.642 231.672 986.173 234.481 984.812C238.992 982.599 243.077 981.492 246.226 981.492C249.631 981.492 251.929 982.769 252.61 985.152C253.716 988.897 250.567 995.621 241.035 1001.49C237.46 1003.71 233.375 1004.05 230.311 1004.05C228.864 1004.05 227.502 1003.96 226.14 1003.88C224.778 1003.88 223.417 1003.79 222.14 1003.79C219.331 1003.79 216.012 1004.05 213.118 1005.83C209.969 1007.79 207.586 1012.81 205.288 1017.66C203.926 1020.56 202.564 1023.28 201.203 1025.24C189.542 1041.07 188.776 1058.18 191.33 1078.94C192.181 1086.09 193.628 1093.16 195.415 1099.97H195.926C194.138 1093.07 192.692 1086.01 191.84 1078.86C189.372 1058.26 190.053 1041.24 201.628 1025.58C202.99 1023.62 204.352 1020.81 205.799 1017.83C208.012 1013.07 210.395 1008.13 213.459 1006.26Z" fill="#CA9050"/>
<path d="M172.01 1021.07C164.435 1019.11 156.264 1018.94 148.434 1018.86C143.838 1018.77 139.157 1018.69 134.731 1018.26C113.283 1016.22 94.8989 1011.28 76.8553 1002.69C57.2798 993.323 43.4067 984.727 32.2571 977.833C28.1718 975.28 24.1716 974.003 20.4267 974.003C13.2773 974.003 5.87267 978.684 0 986.429V987.28C5.87267 979.365 13.2773 974.514 20.4267 974.514C24.0864 974.514 28.0016 975.79 32.0018 978.258C43.1513 985.152 57.1096 993.749 76.6851 1003.11C94.7287 1011.79 113.113 1016.73 134.646 1018.77C139.157 1019.2 143.838 1019.28 148.434 1019.37C156.264 1019.45 164.35 1019.62 171.839 1021.49C183.585 1024.56 183.159 1033.07 181.457 1043.11C179.499 1055.03 177.882 1066.94 179.499 1080.39C180.35 1087.03 181.627 1093.58 183.159 1099.97H183.67C182.138 1093.58 180.861 1087.03 180.01 1080.31C178.393 1066.94 180.01 1055.11 181.968 1043.2C183.67 1033.33 184.095 1024.13 172.01 1021.07Z" fill="#CA9050"/>
<path d="M163.158 1037.15C157.03 1031.45 147.753 1030.94 139.582 1030.52C137.454 1030.43 135.497 1030.35 133.539 1030.18C110.73 1027.96 91.0689 1022.69 71.7487 1013.41C55.152 1005.49 42.3002 998.259 31.3209 990.684C28.2569 988.556 25.1929 987.535 22.1289 987.535C15.1498 987.535 8.59622 992.982 4.596 1002.17C3.064 1005.66 1.532 1009.07 0 1012.39V1013.66C1.70222 1009.92 3.31933 1006.17 5.02156 1002.34C8.93667 993.408 15.32 988.046 22.1289 988.046C25.1078 988.046 28.0867 989.067 30.9804 991.11C42.0449 998.685 54.8967 1005.92 71.5784 1013.92C90.8987 1023.11 110.559 1028.47 133.539 1030.6C135.412 1030.86 137.454 1030.94 139.497 1031.03C147.583 1031.45 156.775 1031.96 162.818 1037.58C169.882 1044.05 168.86 1056.39 168.009 1067.28C167.584 1072.65 167.158 1077.67 167.669 1081.84C168.435 1087.97 169.882 1094.01 171.414 1099.97H172.01C170.392 1094.01 168.946 1087.88 168.18 1081.75C167.669 1077.67 168.094 1072.65 168.52 1067.28C169.371 1056.3 170.392 1043.88 163.158 1037.15Z" fill="#CA9050"/>
<path d="M157.285 1061.92C158.051 1056.9 158.902 1051.71 155.583 1047.79C151.668 1043.11 145.2 1042.77 139.497 1042.43H138.901C136.944 1042.35 134.646 1042.18 132.433 1042.01C108.176 1039.71 87.2389 1034.01 66.642 1024.22C60.1736 1021.07 53.7902 1017.58 47.5771 1014.18C44.2578 1012.3 40.6831 1010.35 37.2787 1008.47L37.0233 1008.39C32.938 1006.17 28.6824 1003.96 24.3418 1003.96C22.0438 1003.96 20.0011 1004.56 18.0436 1005.83C11.0644 1010.35 7.74511 1019.11 4.596 1027.54C3.064 1031.37 1.70222 1035.03 0 1038.26V1039.28C1.87244 1035.88 3.40444 1031.96 5.02156 1027.71C8.25578 1019.37 11.49 1010.69 18.2989 1006.26C20.1713 1005.07 22.1289 1004.47 24.3418 1004.47C28.5973 1004.47 32.7678 1006.69 36.768 1008.81L37.0233 1008.9C40.5129 1010.77 44.0024 1012.73 47.3218 1014.6C53.5349 1018.01 59.9182 1021.58 66.3867 1024.64C87.0687 1034.52 108.006 1040.22 132.348 1042.52C134.561 1042.69 136.859 1042.86 138.901 1042.94H139.497C145.114 1043.28 151.413 1043.62 155.243 1048.13C158.392 1051.88 157.541 1056.9 156.775 1061.84C156.519 1063.37 156.264 1064.9 156.094 1066.35C155.668 1072.05 155.158 1077.92 155.838 1083.29C156.519 1089.07 157.796 1094.61 159.158 1099.97H159.668C158.307 1094.61 157.03 1088.99 156.349 1083.2C155.753 1077.92 156.179 1072.05 156.604 1066.35C156.775 1064.9 157.03 1063.45 157.285 1061.92Z" fill="#CA9050"/>
<path d="M134.646 1055.2C129.284 1052.82 123.411 1052.31 117.708 1051.71C114.474 1051.45 111.155 1051.11 107.921 1050.43C91.9197 1047.2 76.2593 1042.01 61.5351 1034.94C54.7262 1031.71 48.1726 1028.05 41.7893 1024.56C40.9382 1024.05 39.9168 1023.37 38.8104 1022.69C35.1506 1020.39 30.5546 1017.49 26.5544 1017.49C25.0224 1017.49 23.6606 1017.89 22.4691 1018.69C19.4051 1020.9 17.9582 1025.24 16.5964 1029.07C16.3127 1030.03 16.0006 1030.94 15.6602 1031.79C15.1495 1033.24 14.0431 1035.28 12.8515 1037.41C10.0428 1042.52 6.55328 1048.9 7.74484 1052.73C9.0215 1056.65 14.1282 1058.77 18.2135 1060.48C19.0646 1060.82 20.0008 1061.24 20.6817 1061.58C27.6608 1064.9 33.7037 1068.22 39.0657 1071.88C52.5133 1080.99 68.7695 1090.52 86.728 1099.97H87.7493C69.5355 1090.35 53.0239 1080.65 39.4062 1071.46C33.9591 1067.8 27.9162 1064.39 20.9371 1061.07C20.1711 1060.73 19.3199 1060.39 18.3837 1059.97C14.3835 1058.35 9.44706 1056.22 8.2555 1052.56C7.06395 1048.99 10.5535 1042.69 13.2771 1037.58C14.5537 1035.37 15.5751 1033.5 16.1708 1031.96C16.5113 1031.11 16.8234 1030.2 17.1071 1029.24C18.3837 1025.5 19.8306 1021.15 22.8095 1019.11C23.8876 1018.37 25.1359 1018.01 26.5544 1018.01C30.4695 1018.01 34.8953 1020.81 38.4699 1023.11C39.6615 1023.88 40.6828 1024.47 41.6191 1024.98C47.9173 1028.56 54.4708 1032.13 61.2797 1035.37C76.0891 1042.43 91.7495 1047.71 107.836 1050.94C111.07 1051.62 114.389 1051.96 117.623 1052.22C123.326 1052.82 129.113 1053.33 134.39 1055.62C143.752 1059.79 143.752 1067.8 143.667 1076.22C143.667 1079.03 143.667 1081.92 144.008 1084.65C144.689 1090.09 145.71 1095.12 146.902 1099.97H147.412C146.221 1095.12 145.199 1090.01 144.518 1084.65C144.178 1081.84 144.178 1079.03 144.178 1076.22C144.263 1067.63 144.263 1059.45 134.646 1055.2Z" fill="#CA9050"/>
<path d="M111.836 1098.61C86.5581 1086.26 63.8334 1073.41 46.1303 1061.5C43.8323 1059.88 41.279 1058.6 38.8107 1057.33C35.4063 1055.54 31.9167 1053.75 28.9379 1051.2C24.9376 1047.79 23.9163 1044.47 25.6185 1040.3C26.8952 1037.07 29.1932 1035.54 32.5125 1035.54C37.9596 1035.54 45.3643 1039.96 50.7263 1043.2C52.8541 1044.47 54.6414 1045.58 56.0883 1046.26C71.7487 1053.84 88.3454 1059.37 105.453 1062.77C109.283 1063.62 112.943 1063.96 116.517 1064.31C117.141 1064.36 117.765 1064.42 118.39 1064.48C122.645 1064.82 127.497 1065.16 130.39 1068.31C133.284 1071.54 133.539 1078.01 133.795 1083.2C133.88 1084.56 133.88 1085.92 134.05 1087.12V1087.8C134.391 1091.2 134.901 1096.31 133.625 1099.97H134.561C135.667 1096.14 135.242 1091.12 134.901 1087.71V1087.03C134.731 1085.92 134.731 1084.56 134.646 1083.11C134.391 1077.84 134.135 1071.2 131.071 1067.79C127.922 1064.31 122.901 1063.96 118.475 1063.62C117.794 1063.57 117.17 1063.51 116.602 1063.45C113.028 1063.11 109.368 1062.77 105.623 1062.01C88.6007 1058.52 72.0892 1052.99 56.4287 1045.5C55.067 1044.9 53.1945 1043.79 51.1519 1042.52C45.7047 1039.2 38.215 1034.69 32.5125 1034.69C28.8527 1034.69 26.2994 1036.47 24.7674 1039.96C22.9801 1044.47 24.0865 1048.22 28.4272 1051.88C31.4912 1054.43 34.9807 1056.3 38.3852 1058.09C40.8534 1059.28 43.4067 1060.65 45.6196 1062.18C63.4079 1074.09 86.1325 1087.03 111.411 1099.37C111.921 1099.63 112.347 1099.8 112.687 1099.97H114.56C113.623 1099.54 111.836 1098.61 111.836 1098.61Z" fill="#CA9050"/>
<path d="M225.8 1026.94C233.545 1020.05 245.631 1013.92 259.759 1006.86C269.547 1001.92 282.739 989.919 281.973 979.961C281.548 974.599 277.207 970.513 269.036 967.96C265.887 966.939 262.312 966.513 258.312 966.513C247.929 966.513 236.183 969.918 225.8 972.982C221.119 974.428 216.608 975.705 212.522 976.641C178.308 984.386 157.626 989.068 139.072 989.068C122.73 989.068 108.346 985.408 89.4518 976.386C71.3231 967.705 58.1309 959.619 47.5771 953.066C32.0018 943.448 24.7673 939.192 15.5753 939.192C11.2347 939.192 6.128 940.129 0 942.086V942.937C6.128 940.98 11.3198 940.043 15.5753 940.043C24.512 940.043 31.7464 944.214 47.1516 953.746C57.7053 960.3 70.8976 968.471 89.1113 977.152C108.091 986.259 122.56 989.919 139.072 989.919C157.711 989.919 178.393 985.237 212.778 977.492C216.863 976.556 221.289 975.194 226.055 973.833C236.354 970.769 248.014 967.364 258.312 967.364C262.227 967.364 265.717 967.79 268.781 968.811C276.611 971.279 280.696 975.024 281.122 980.046C281.888 989.578 268.951 1001.32 259.334 1006.09C245.205 1013.24 233.034 1019.28 225.289 1026.35C201.884 1047.54 205.628 1075.11 212.693 1099.97H213.629C206.565 1075.29 202.735 1047.88 225.8 1026.94Z" fill="#CA9050"/>
</g>
<g opacity="0.3">
<path d="M1307.72 8.93667C1310.36 17.9584 1329.42 22.8949 1341.51 22.8949C1358.78 22.8949 1376.91 19.4904 1396.15 15.9158C1415.55 12.256 1435.55 8.51111 1455.04 8.51111C1476.41 8.51111 1494.37 13.1071 1509.94 22.4693C1510.79 22.98 1511.64 23.4907 1512.49 24.0013V23.0651C1511.81 22.6396 1511.05 22.1289 1510.37 21.7884C1494.71 12.256 1476.58 7.66 1455.04 7.66C1435.47 7.66 1415.38 11.4049 1395.98 15.0647C1376.83 18.6393 1358.7 22.0438 1341.51 22.0438C1329.42 22.0438 1310.95 17.0222 1308.57 8.76644C1307.72 5.98615 1308.68 3.064 1311.46 0H1310.36C1307.72 3.064 1306.87 6.04289 1307.72 8.93667Z" fill="#CA9050"/>
<path d="M1451.3 68.0038C1449.09 68.0038 1446.9 67.9754 1444.75 67.9187C1442.7 67.9187 1440.69 67.9187 1438.7 67.9187C1427.04 67.9187 1417.85 68.5145 1407.64 71.6636C1402.28 73.2807 1397.34 75.7489 1392.49 78.2171C1384.4 82.3025 1376.83 86.2176 1367.72 86.2176C1366.19 86.2176 1364.69 86.1041 1363.21 85.8771C1356.49 84.9409 1351.38 80.9407 1346.53 77.1107C1341.08 72.8551 1335.89 68.7698 1328.66 68.7698C1328.03 68.7698 1327.38 68.7982 1326.7 68.8549C1322.19 69.2805 1315.04 73.3658 1308.14 77.1958C1303.63 79.7491 1299.46 82.1323 1296.48 83.1536C1292.14 84.7707 1288.91 85.5367 1286.53 86.1325C1279.38 87.8347 1278.44 88.4305 1274.95 101.623C1274.01 105.282 1273.33 108.687 1272.65 112.006C1270.18 124.177 1268.14 133.88 1255.12 143.072C1246.35 149.285 1235.2 152.264 1221.08 152.264C1207.03 152.264 1192.39 149.37 1179.46 146.732C1172.65 145.37 1166.26 144.093 1161.58 143.582C1158.77 143.327 1154.52 143.157 1150.18 143.157C1137.67 143.157 1123.03 147.753 1122.01 154.306C1121.5 157.37 1123.96 162.052 1138.26 166.648L1139.88 167.158C1194.44 184.691 1232.57 207.501 1271.29 246.056C1282.02 256.61 1290.19 261.632 1296.99 261.632C1298.58 261.632 1300.14 261.348 1301.68 260.78C1308.91 258.057 1314.19 248.865 1320.4 238.226C1323.55 232.779 1327.12 226.566 1331.38 220.523C1351.89 191.585 1381.42 170.392 1414.45 160.945C1424.15 158.136 1433.68 156.775 1442.7 156.775C1472.07 156.775 1492.84 171.158 1512.5 185.968V184.861C1492.92 170.137 1472.15 155.924 1442.7 155.924C1433.6 155.924 1424.07 157.285 1414.19 160.094C1381 169.626 1351.38 190.904 1330.7 220.097C1326.44 226.055 1322.78 232.353 1319.63 237.8C1313.59 248.269 1308.31 257.376 1301.34 259.929C1299.97 260.497 1298.53 260.78 1296.99 260.78C1290.36 260.78 1282.44 255.844 1271.89 245.375C1233.08 206.82 1194.86 183.925 1140.13 166.307L1138.52 165.796C1127.79 162.392 1122.26 158.307 1122.86 154.392C1123.71 148.944 1136.73 144.008 1150.18 144.008C1154.52 144.008 1158.69 144.178 1161.41 144.434C1166.18 144.944 1172.56 146.221 1179.29 147.583C1192.22 150.221 1206.95 153.115 1221.08 153.115C1235.37 153.115 1246.69 150.051 1255.63 143.753C1268.91 134.305 1270.95 124.518 1273.5 112.176C1274.18 108.857 1274.87 105.453 1275.8 101.878C1279.29 88.7709 1279.97 88.6007 1286.7 86.9836C1289.08 86.3878 1292.4 85.6218 1296.74 84.0047C1299.8 82.8983 1304.06 80.5151 1308.57 77.9618C1315.04 74.302 1322.44 70.1316 1326.78 69.706C1327.41 69.6493 1328.03 69.6209 1328.66 69.6209C1335.64 69.6209 1340.66 73.6211 1346.02 77.7916C1350.96 81.7067 1356.06 85.7069 1363.04 86.7283C1364.63 86.9552 1366.19 87.0687 1367.72 87.0687C1377 87.0687 1385.08 82.9834 1392.91 78.9831C1397.68 76.6 1402.62 74.0467 1407.89 72.4296C1417.94 69.3656 1427.13 68.7698 1438.7 68.7698C1440.69 68.7698 1442.7 68.7698 1444.75 68.7698C1446.9 68.8266 1449.09 68.8549 1451.3 68.8549C1461.68 68.8549 1470.96 70.0465 1479.73 72.5147C1490.79 75.6638 1501.6 80.0896 1512.5 85.2814V84.26C1501.69 79.2385 1490.96 74.8978 1479.98 71.7487C1471.13 69.1954 1461.77 68.0038 1451.3 68.0038Z" fill="#CA9050"/>
<path d="M1289.16 26.3844C1303.8 35.6616 1321 40.0873 1341.51 40.0873C1360.4 40.0873 1380.15 36.4276 1399.3 32.7678C1417.94 29.2782 1437.17 25.7036 1455.05 25.7036C1473.17 25.7036 1488.24 29.4484 1501.01 37.1936C1503.28 38.5553 1505.63 39.9739 1508.07 41.4491C1509.49 42.357 1510.96 43.2648 1512.5 44.1727V42.7258C1511.19 41.9881 1509.91 41.2221 1508.67 40.4278C1506.23 38.9525 1503.9 37.534 1501.69 36.1722C1488.66 28.342 1473.43 24.512 1455.05 24.512C1437.09 24.512 1417.77 28.0867 1399.04 31.6613C1379.98 35.236 1360.32 38.8958 1341.51 38.8958C1321.17 38.8958 1304.31 34.47 1289.76 25.3631C1280.06 19.3202 1275.38 12.8518 1275.8 6.29822C1275.97 4.19881 1276.65 2.09941 1277.84 0H1276.48C1275.46 2.04267 1274.78 4.17044 1274.61 6.21311C1274.1 13.2773 1279.04 20.0011 1289.16 26.3844Z" fill="#CA9050"/>
<path d="M1451.3 85.1963C1437 85.1963 1421.77 87.7496 1405.6 90.5583C1387.47 93.6223 1368.66 96.8565 1348.66 96.8565C1347.18 96.8565 1345.76 96.8281 1344.4 96.7714C1337.42 96.6012 1331.55 95.4947 1326.36 94.4734C1321.85 93.5372 1318.02 92.8563 1314.27 92.8563C1305.42 92.8563 1298.95 97.4523 1291.8 108.857C1288.4 114.389 1285.93 120.943 1283.46 127.326C1279.21 138.561 1274.78 150.221 1265.08 157.115C1261.67 159.498 1255.29 161.371 1248.48 163.243C1236.57 166.648 1223.03 170.563 1221.25 178.563C1218.95 188.606 1239.63 202.394 1250.78 209.799C1252.82 211.161 1254.61 212.352 1255.8 213.203C1268.82 222.821 1279.63 229.204 1289.84 229.204C1291.26 229.204 1292.65 229.062 1294.02 228.779C1302.19 227.332 1309.59 221.544 1317.34 210.65C1340.15 178.478 1373 154.987 1409.68 144.434C1421 141.199 1432.07 139.582 1442.7 139.582C1472.07 139.582 1493.77 151.413 1512.5 164.605V164.009C1493.77 150.817 1472.07 139.072 1442.7 139.072C1432.07 139.072 1420.92 140.689 1409.6 143.923C1372.74 154.477 1339.8 178.053 1316.91 210.31C1309.25 221.119 1301.93 226.821 1293.93 228.268C1292.57 228.552 1291.21 228.694 1289.84 228.694C1279.72 228.694 1268.99 222.31 1256.06 212.863C1254.86 211.927 1253.08 210.735 1251.03 209.373C1240.05 202.054 1219.54 188.436 1221.76 178.648C1223.46 170.903 1236.82 167.158 1248.57 163.754C1255.46 161.796 1261.93 159.924 1265.33 157.541C1275.21 150.562 1279.63 138.816 1283.97 127.497C1286.36 121.198 1288.91 114.645 1292.23 109.198C1299.29 97.963 1305.68 93.367 1314.27 93.367C1317.93 93.367 1321.85 94.0478 1326.27 94.9841C1331.46 96.0054 1337.42 97.1118 1344.4 97.2821C1345.76 97.3388 1347.18 97.3672 1348.66 97.3672C1368.74 97.3672 1387.55 94.133 1405.68 90.9838C1421.85 88.2603 1437 85.707 1451.3 85.707C1460.07 85.707 1467.9 86.6432 1475.13 88.771C1487.47 92.2605 1499.9 97.7076 1512.5 104.006V103.41C1499.9 97.1118 1487.56 91.7498 1475.22 88.2603C1467.98 86.2176 1460.15 85.1963 1451.3 85.1963Z" fill="#CA9050"/>
<path d="M1451.3 97.1121C1438.02 97.1121 1423.21 99.5803 1407.64 102.304C1389 105.453 1369.68 108.772 1348.66 108.772C1347.07 108.772 1345.56 108.744 1344.14 108.687C1342.9 108.63 1341.65 108.602 1340.4 108.602C1337.25 108.517 1334.27 108.432 1331.38 108.432C1313.25 108.432 1302.01 112.092 1294.61 131.582C1289.93 143.923 1284.65 157.796 1271.97 166.818C1268.4 169.371 1264.74 171.584 1261.59 173.457C1254.27 177.883 1248.39 181.372 1248.22 186.223C1248.05 190.734 1252.48 196.096 1262.86 203.671C1272.74 210.906 1280.82 214.395 1287.72 214.395C1288.34 214.395 1288.94 214.367 1289.5 214.31C1299.46 213.374 1306.1 205.203 1314.61 194.82C1318.44 190.053 1322.78 184.691 1327.89 179.585C1349.93 157.456 1377.17 141.37 1406.45 132.944C1418.79 129.454 1430.96 127.667 1442.7 127.667C1471.64 127.667 1494.03 138.136 1512.49 150.221V149.626C1494.03 137.54 1471.64 127.156 1442.7 127.156C1430.96 127.156 1418.7 128.944 1406.28 132.518C1376.91 140.944 1349.68 157.115 1327.46 179.244C1322.36 184.351 1318.02 189.713 1314.19 194.479C1305.84 204.778 1299.21 212.948 1289.5 213.799C1288.88 213.856 1288.28 213.885 1287.72 213.885C1280.99 213.885 1272.91 210.395 1263.12 203.246C1252.99 195.756 1248.56 190.564 1248.74 186.309C1248.91 181.713 1254.61 178.223 1261.84 173.882C1265.08 172.01 1268.65 169.797 1272.23 167.244C1285.08 158.137 1290.44 144.093 1295.12 131.752C1302.36 112.602 1313.5 108.943 1331.38 108.943C1334.27 108.943 1337.25 109.028 1340.4 109.113C1341.65 109.113 1342.9 109.141 1344.14 109.198C1345.56 109.255 1347.07 109.283 1348.66 109.283C1369.68 109.283 1389 105.964 1407.72 102.729C1423.3 100.091 1438.02 97.6227 1451.3 97.6227C1458.96 97.6227 1465.68 98.4738 1471.81 100.176C1485 104.006 1498.54 110.134 1512.49 117.369V116.773C1498.62 109.623 1485.17 103.495 1471.98 99.7505C1465.77 97.9632 1459.04 97.1121 1451.3 97.1121Z" fill="#CA9050"/>
<path d="M1451.3 108.857C1438.96 108.857 1424.75 111.24 1409.6 113.878C1390.45 117.113 1370.7 120.517 1348.66 120.517C1347.07 120.517 1345.48 120.489 1343.89 120.432L1340.06 120.347C1337 120.262 1334.1 120.177 1331.38 120.177C1307.46 120.177 1306.36 133.284 1305.08 147.157C1304.4 154.732 1303.72 162.647 1299.46 169.286C1298.02 171.754 1293.93 174.733 1289.67 177.967C1280.65 184.776 1270.35 192.436 1275.29 199.67C1277.42 202.82 1279.97 204.352 1282.87 204.352C1284.45 204.352 1286.19 203.898 1288.06 202.99C1296.06 198.819 1304.65 186.563 1311.55 176.69C1315.55 171.073 1318.87 166.222 1320.74 165.115C1322.7 163.924 1324.83 163.839 1326.7 163.839C1327.44 163.839 1328.17 163.839 1328.91 163.839C1329.65 163.895 1330.39 163.924 1331.12 163.924C1333.93 163.924 1336.91 163.583 1339.55 161.115C1342.78 158.221 1343.21 154.391 1343.64 150.732C1343.98 147.412 1344.32 144.263 1346.44 141.71C1353.08 133.709 1376.4 128.177 1391.81 124.517C1396.32 123.411 1400.23 122.56 1403.21 121.709C1416.58 117.794 1429.85 115.921 1442.7 115.921C1471.13 115.921 1493.94 125.198 1512.5 136.348V135.412C1493.94 124.262 1471.13 115.07 1442.7 115.07C1429.77 115.07 1416.41 117.028 1402.96 120.858C1400.06 121.709 1396.15 122.645 1391.64 123.666C1375.21 127.581 1352.66 132.943 1345.85 141.114C1343.46 143.923 1343.12 147.327 1342.78 150.646C1342.36 154.306 1342.02 157.796 1339.04 160.519C1336.57 162.732 1333.76 163.073 1331.12 163.073C1330.39 163.073 1329.65 163.044 1328.91 162.988C1328.17 162.988 1327.44 162.988 1326.7 162.988C1324.74 162.988 1322.44 163.158 1320.31 164.349C1318.27 165.626 1315.04 170.222 1310.87 176.18C1304.4 185.457 1295.46 198.138 1287.63 202.224C1282.87 204.692 1279.04 203.756 1275.97 199.245C1271.55 192.691 1281.42 185.202 1290.19 178.648C1294.7 175.244 1298.61 172.265 1300.23 169.796C1304.48 162.902 1305.25 154.902 1305.93 147.242C1307.21 133.199 1308.31 121.028 1331.38 121.028C1334.1 121.028 1337 121.113 1340.06 121.198L1343.81 121.283C1345.39 121.34 1347.01 121.368 1348.66 121.368C1370.7 121.368 1390.53 117.964 1409.77 114.644C1424.83 112.091 1439.04 109.708 1451.3 109.708C1457.85 109.708 1463.47 110.389 1468.49 111.836C1482.45 115.836 1497.09 122.815 1512.5 130.986V130.05C1497.26 121.964 1482.62 114.985 1468.75 110.985C1463.64 109.538 1457.94 108.857 1451.3 108.857Z" fill="#CA9050"/>
<path d="M1245.25 129.028C1239.46 133.114 1231.54 135.071 1221.07 135.071C1208.73 135.071 1194.95 132.348 1182.77 129.879C1175.63 128.433 1168.9 127.071 1163.37 126.56C1160.65 126.22 1153.41 125.539 1144.47 125.539C1127.88 125.539 1106.6 127.837 1099.45 138.476C1096.3 143.157 1096.22 149.029 1099.03 155.923C1100.39 159.158 1103.88 160.86 1107.2 162.562C1109.92 163.924 1112.64 165.286 1114.18 167.413C1115.96 169.882 1116.98 173.286 1118.09 176.605C1119.45 181.031 1120.81 185.627 1124.05 188.351C1128.05 191.67 1132.47 193.287 1137.84 193.287C1141.67 193.287 1145.5 192.521 1149.16 191.755C1152.9 190.989 1156.65 190.308 1160.31 190.308C1163.88 190.308 1166.94 190.989 1169.67 192.436C1176.48 195.926 1179.29 200.607 1182.09 205.118C1185.67 211.075 1189.07 216.608 1200.22 219.246C1223.63 224.693 1230.01 230.481 1245.5 244.269C1247.46 246.056 1249.59 247.929 1251.97 249.971C1257.59 254.908 1261.67 260.44 1265.67 265.887C1269.16 270.653 1272.82 275.675 1277.59 280.186C1283.38 285.803 1288.91 288.271 1294.19 290.739C1301.25 293.889 1307.89 296.953 1313.93 307.336L1314.87 308.953C1322.44 322.06 1330.19 334.231 1334.87 334.231C1335.66 334.231 1336.32 333.948 1336.83 333.38C1338.53 331.508 1338.95 326.571 1338.27 318.23C1337.76 313.379 1334.27 308.953 1330.87 304.783C1327.21 300.187 1323.72 295.931 1323.89 291.165C1324.14 285.463 1327.63 282.654 1331.21 279.76C1333.93 277.547 1336.66 275.334 1338.27 271.845C1342.19 263.504 1343.12 256.014 1344.06 248.78C1345.25 238.651 1346.44 229.204 1355.47 218.395C1371.64 199.16 1394.28 184.606 1419.21 177.457C1427.47 175.073 1435.21 173.967 1442.7 173.967C1468.24 173.967 1486.45 187.84 1505.86 202.479C1508.07 204.125 1510.28 205.799 1512.5 207.501V205.969C1510.51 204.494 1508.52 203.018 1506.54 201.543C1487.05 186.734 1468.58 172.775 1442.7 172.775C1435.04 172.775 1427.3 173.882 1418.87 176.35C1393.68 183.585 1370.87 198.224 1354.61 217.629C1345.34 228.693 1344.15 238.396 1342.87 248.609C1341.93 255.759 1341 263.163 1337.25 271.334C1335.72 274.568 1333.08 276.696 1330.53 278.824C1326.78 281.803 1322.95 284.867 1322.7 291.165C1322.53 296.357 1326.27 301.038 1329.93 305.549C1333.25 309.634 1336.66 313.805 1337.08 318.315C1337.93 328.103 1336.91 331.508 1335.97 332.614C1335.63 332.955 1335.27 333.096 1334.87 333.04C1330.19 333.04 1320.14 315.762 1315.89 308.357L1314.95 306.74C1308.74 296.016 1301.85 292.952 1294.7 289.633C1289.42 287.25 1284.06 284.782 1278.44 279.335C1273.76 274.909 1270.1 269.972 1266.61 265.206C1262.61 259.759 1258.44 254.057 1252.74 249.12C1250.41 247.077 1248.25 245.148 1246.27 243.333C1230.61 229.374 1224.14 223.672 1200.48 218.14C1189.84 215.586 1186.52 210.224 1183.12 204.522C1180.22 199.841 1177.33 194.989 1170.26 191.33C1167.28 189.798 1164.05 189.117 1160.31 189.117C1156.56 189.117 1152.73 189.883 1148.99 190.564C1145.33 191.33 1141.5 192.096 1137.84 192.096C1132.73 192.096 1128.56 190.564 1124.81 187.415C1121.92 184.946 1120.47 180.521 1119.2 176.265C1118.18 172.861 1117.07 169.286 1115.11 166.647C1113.41 164.349 1110.52 162.903 1107.79 161.541C1104.47 159.839 1101.32 158.307 1100.13 155.413C1097.49 148.944 1097.58 143.497 1100.47 139.157C1107.28 128.943 1128.13 126.73 1144.47 126.73C1153.33 126.73 1160.56 127.411 1163.2 127.667C1168.73 128.262 1175.46 129.624 1182.6 131.071C1194.78 133.539 1208.65 136.263 1221.07 136.263C1231.8 136.263 1239.88 134.22 1245.93 129.965C1260.82 119.496 1256.48 103.58 1252.4 88.2601C1247.97 71.8337 1243.37 54.8115 1261.76 43.747C1263.97 42.4703 1266.86 41.7895 1270.52 41.7895C1281.5 41.7895 1296.91 47.7472 1311.89 53.6199C1324.91 58.6415 1337.17 63.4077 1345.17 63.5779C1346.36 63.6346 1347.52 63.663 1348.66 63.663C1365.85 63.663 1383.21 60.6841 1400.06 57.7903C1416.83 54.8966 1434.19 52.0028 1451.3 52.0028C1463.3 52.0028 1474.11 53.3646 1484.41 56.3435C1493.86 59.067 1503.22 62.6417 1512.5 66.727V65.4503C1503.39 61.365 1494.11 57.8755 1484.66 55.1519C1474.28 52.2581 1463.39 50.8112 1451.3 50.8112C1434.02 50.8112 1416.66 53.7901 1399.81 56.5988C1383.04 59.4926 1365.76 62.4715 1348.66 62.4715C1347.46 62.4715 1346.36 62.3863 1345.25 62.3863C1337.42 62.2161 1325.25 57.4499 1312.31 52.4283C1297.25 46.6408 1281.67 40.5979 1270.52 40.5979C1266.61 40.5979 1263.55 41.2788 1261.16 42.7257C1242.01 54.3008 1246.69 71.6635 1251.2 88.5155C1255.46 104.176 1259.46 118.985 1245.25 129.028Z" fill="#CA9050"/>
</g>
<g opacity="0.3">
<path fill-rule="evenodd" clip-rule="evenodd" d="M1496.56 964.54C1518.09 979.519 1511.03 990.328 1499.28 1008.2L1498.6 1009.22C1497.92 1010.33 1497.16 1011.52 1496.48 1012.71C1493.41 1017.82 1490.18 1023.01 1485.58 1023.01C1484.96 1023.01 1484.33 1022.93 1483.71 1022.76C1482.29 1022.36 1480.82 1021.48 1479.28 1020.12C1475.37 1016.63 1473.75 1009.65 1472.47 1003.95C1472.22 1002.58 1471.96 1001.39 1471.62 1000.29C1468.9 989.647 1465.15 979.86 1461.49 970.412C1460.98 969.05 1460.3 967.433 1459.62 965.731C1459.28 964.88 1458.77 963.688 1458.09 962.412C1455.54 956.88 1451.62 948.624 1453.41 944.964C1454.86 942.155 1457.07 940.708 1460.05 940.708C1467.71 940.708 1478.52 950.156 1484.99 955.773C1486.69 957.305 1488.05 958.412 1488.9 959.093C1491.71 961.135 1494.43 963.093 1496.56 964.54ZM1496.05 965.306C1493.92 963.774 1491.2 961.816 1488.39 959.773C1487.45 959.092 1486.18 957.901 1484.47 956.454C1478.09 950.837 1467.37 941.56 1460.05 941.56C1457.32 941.56 1455.45 942.836 1454.18 945.39C1452.56 948.624 1456.56 956.965 1458.86 961.986C1459.54 963.348 1460.05 964.54 1460.39 965.391C1461.15 967.093 1461.75 968.71 1462.35 970.072C1465.92 979.604 1469.67 989.392 1472.47 1000.03C1472.73 1001.14 1473.07 1002.41 1473.33 1003.78C1474.6 1009.31 1476.13 1016.2 1479.79 1019.44C1481.27 1020.74 1482.63 1021.56 1483.88 1021.9C1484.45 1022.07 1485.01 1022.16 1485.58 1022.16C1489.75 1022.16 1492.82 1017.14 1495.71 1012.29C1496.48 1011.1 1497.16 1009.9 1497.92 1008.8L1498.6 1007.69C1510.01 990.328 1516.9 979.774 1496.05 965.306Z" fill="#CA9050"/>
<path d="M1502.86 939.943C1499.11 937.219 1495.37 934.155 1491.37 930.921C1479.2 920.963 1465.5 909.813 1453.15 909.813C1450.69 909.813 1448.39 910.239 1446.09 911.09C1424.22 919.346 1427.37 942.411 1431.2 955.433C1433.49 963.348 1436.47 971.264 1439.45 978.839C1442.77 987.775 1446.35 996.882 1448.73 1006.24C1450.18 1011.86 1450.94 1017.82 1451.71 1023.61C1453.84 1041.23 1455.96 1057.82 1479.45 1057.82C1481.33 1057.82 1483.28 1057.74 1485.41 1057.48C1488.05 1057.23 1490.26 1056.8 1492.14 1056.2C1498.35 1054.25 1500.22 1050.42 1503.11 1044.71C1503.97 1042.93 1504.9 1040.97 1506.09 1038.84C1507.97 1035.61 1509.92 1032.54 1512.05 1029.56V1028.71C1509.84 1031.86 1507.63 1035.18 1505.67 1038.59C1504.48 1040.71 1503.46 1042.76 1502.6 1044.46C1499.88 1050.08 1498.01 1053.82 1491.97 1055.78C1490.18 1056.29 1487.96 1056.72 1485.33 1056.97C1483.28 1057.23 1481.24 1057.31 1479.45 1057.31C1456.39 1057.31 1454.43 1041.65 1452.22 1023.52C1451.45 1017.73 1450.69 1011.78 1449.24 1006.16C1446.77 996.797 1443.28 987.605 1439.88 978.668C1436.98 971.094 1434 963.263 1431.62 955.263C1427.88 942.411 1424.81 919.686 1446.26 911.601C1448.47 910.665 1450.77 910.324 1453.15 910.324C1465.33 910.324 1478.94 921.474 1491.03 931.347C1495.03 934.581 1498.77 937.645 1502.52 940.368C1505.41 942.411 1507.88 944.283 1509.75 945.56C1510.49 946.071 1511.26 946.61 1512.05 947.177V946.496C1511.37 946.042 1510.69 945.589 1510.01 945.135C1508.14 943.858 1505.67 941.986 1502.86 939.943Z" fill="#CA9050"/>
<path d="M1503.28 954.922C1501.24 953.56 1498.6 951.603 1495.79 949.56C1491.79 946.666 1487.96 943.517 1483.79 940.113C1482.89 939.375 1481.89 938.552 1480.81 937.644C1473.92 931.772 1464.56 923.856 1455.96 923.856C1453.58 923.856 1451.37 924.452 1449.32 925.644C1434.43 934.921 1443.37 956.965 1448.73 970.157C1449.41 971.774 1450 973.306 1450.52 974.583C1454.01 983.775 1457.66 993.222 1460.3 1003.27C1460.73 1005.14 1461.24 1007.35 1461.75 1009.65C1464.13 1020.37 1467.45 1035.01 1475.62 1040.29C1476.99 1041.14 1478.38 1041.68 1479.79 1041.91C1480.25 1041.96 1480.7 1041.99 1481.16 1041.99C1491.2 1041.99 1501.16 1026.76 1508.39 1015.69C1509.75 1013.65 1510.97 1011.83 1512.05 1010.24V1009.39C1510.86 1011.1 1509.5 1013.14 1507.97 1015.44C1500.82 1026.42 1490.86 1041.48 1481.16 1041.48C1480.7 1041.48 1480.28 1041.45 1479.88 1041.39C1478.52 1041.22 1477.18 1040.71 1475.88 1039.86C1467.88 1034.67 1464.64 1020.2 1462.26 1009.56C1461.75 1007.18 1461.24 1004.97 1460.73 1003.09C1458.18 993.137 1454.52 983.604 1451.03 974.412C1450.52 973.051 1449.92 971.604 1449.24 969.987C1443.96 956.965 1435.03 935.091 1449.58 926.069C1451.54 924.963 1453.66 924.367 1455.96 924.367C1464.39 924.367 1473.67 932.197 1480.47 937.985C1481.55 938.893 1482.57 939.744 1483.54 940.538C1487.62 943.858 1491.45 947.092 1495.54 949.986C1498.26 952.028 1500.99 953.986 1502.94 955.348C1505.58 957.22 1508.31 959.007 1511.2 960.965C1511.48 961.135 1511.77 961.334 1512.05 961.561V960.965C1511.82 960.795 1511.63 960.653 1511.45 960.539C1508.56 958.582 1505.92 956.794 1503.28 954.922Z" fill="#CA9050"/>
<path d="M1414.77 1075.7C1415.71 1076.97 1417.58 1078.67 1422.09 1079.1C1439.11 1080.46 1464.81 1082.59 1486.52 1102.33L1486.77 1102.59C1494.18 1109.4 1500.22 1117.91 1504.65 1128.12C1505.92 1130.85 1507.97 1132.46 1510.18 1132.46C1510.8 1132.46 1511.43 1132.35 1512.05 1132.12V1131.53C1511.46 1131.78 1510.77 1131.95 1510.18 1131.95C1508.14 1131.95 1506.26 1130.51 1505.16 1127.87C1500.65 1117.65 1494.6 1109.06 1487.11 1102.25L1486.86 1101.99C1464.99 1082.08 1439.2 1079.95 1422.09 1078.59C1417.75 1078.25 1416.05 1076.63 1415.2 1075.44C1412.98 1072.63 1412.73 1068.21 1412.98 1066.84C1415.37 1056.46 1418.26 1043.52 1417.15 1029.31C1415.28 1005.31 1405.75 984.626 1396.39 964.71C1388.98 948.624 1380.55 930.496 1383.45 922.24C1388.64 907.516 1410 886.408 1418.94 877.982C1424.64 872.62 1431.37 869.896 1439.03 869.896C1443.37 869.896 1447.11 870.833 1449.49 871.599C1465.16 876.705 1487.37 888.195 1512.05 904.111V903.515C1487.45 887.685 1465.33 876.195 1449.67 871.173C1447.28 870.322 1443.45 869.386 1439.03 869.386C1431.28 869.386 1424.39 872.194 1418.6 877.642C1409.66 885.982 1388.21 907.175 1382.94 922.07C1379.96 930.496 1388.47 948.794 1395.96 964.88C1405.24 984.796 1414.85 1005.39 1416.64 1029.31C1417.75 1043.44 1414.85 1056.37 1412.47 1066.76C1412.22 1068.21 1412.47 1072.8 1414.77 1075.7Z" fill="#CA9050"/>
<path d="M1446.77 1060.29C1450.69 1062.42 1455.96 1063.35 1461.15 1064.2C1464.98 1064.89 1468.9 1065.57 1472.13 1066.67C1474.09 1067.44 1476.39 1068.55 1478.77 1069.65C1483.62 1072.12 1489.16 1074.84 1494.18 1074.84C1495.14 1074.84 1496.08 1074.73 1496.99 1074.5C1497.21 1074.45 1497.44 1074.39 1497.67 1074.33C1504.9 1072.21 1508.73 1063.1 1512.05 1054.84V1053.48C1512.05 1053.48 1512.02 1053.51 1511.97 1053.57C1508.65 1062.08 1504.82 1071.69 1497.5 1073.82C1497.27 1073.88 1497.07 1073.94 1496.9 1073.99C1496.05 1074.22 1495.14 1074.33 1494.18 1074.33C1489.24 1074.33 1483.79 1071.61 1478.94 1069.23C1476.56 1068.03 1474.35 1066.93 1472.3 1066.16C1468.98 1065.06 1465.07 1064.37 1461.24 1063.69C1456.13 1062.84 1450.86 1061.91 1447.03 1059.86C1438.69 1055.27 1439.54 1046.84 1440.47 1037.91C1440.81 1034.33 1441.15 1030.76 1440.9 1027.44C1438.77 999.095 1428.22 976.54 1418 954.667C1413.41 944.709 1413.07 933.814 1417.07 924.027C1421.41 913.388 1430.51 904.791 1442 900.451C1445.58 899.089 1449.32 898.408 1453.15 898.408C1469.58 898.408 1484.99 911.005 1498.6 922.069C1502.43 925.218 1506.09 928.197 1509.58 930.75C1510.43 931.431 1511.28 932.027 1512.05 932.538V931.942C1511.37 931.431 1510.63 930.892 1509.84 930.325C1506.35 927.771 1502.77 924.793 1498.86 921.643C1485.24 910.494 1469.75 897.897 1453.15 897.897C1449.32 897.897 1445.49 898.578 1441.83 899.94C1430.17 904.366 1420.98 913.047 1416.64 923.771C1412.56 933.729 1412.9 944.794 1417.58 954.837C1427.71 976.71 1438.26 999.265 1440.39 1027.52C1440.64 1030.76 1440.3 1034.33 1439.96 1037.82C1439.03 1046.5 1438.09 1055.52 1446.77 1060.29Z" fill="#CA9050"/>
<path d="M1435.79 1069.48C1439.28 1070.33 1442.69 1071.1 1445.92 1071.86C1463.79 1076.04 1479.11 1079.61 1494.52 1093.48L1494.77 1093.82C1498.35 1096.97 1501.16 1098.5 1503.37 1098.5C1503.71 1098.5 1504.02 1098.48 1504.31 1098.42C1507.62 1097.65 1509.33 1092.97 1511.2 1087.01C1511.48 1086.05 1511.77 1085.11 1512.05 1084.21V1082.5C1511.6 1083.98 1511.14 1085.43 1510.69 1086.84C1508.9 1092.72 1507.28 1097.23 1504.22 1097.91C1502.01 1098.42 1499.11 1096.97 1495.11 1093.4L1494.86 1093.14C1479.37 1079.1 1463.96 1075.52 1446.09 1071.44C1442.77 1070.67 1439.37 1069.82 1435.88 1068.97C1423.45 1065.82 1425.49 1054.08 1427.54 1042.76C1428.47 1037.82 1429.41 1032.63 1429.07 1028.37C1427.02 1002.24 1416.98 980.54 1407.19 959.688C1406.09 957.135 1404.81 954.667 1403.62 952.369C1397.32 940.113 1391.96 929.474 1399.7 916.452C1405.49 906.664 1414.17 898.578 1422.6 890.833C1424.13 889.415 1425.63 888.025 1427.11 886.663C1430.34 883.599 1434.77 882.067 1440.3 882.067C1461.24 882.067 1493.5 904.366 1512.05 917.813V917.218C1493.41 903.685 1461.24 881.556 1440.3 881.556C1434.68 881.556 1430.09 883.173 1426.77 886.237C1425.29 887.656 1423.79 889.074 1422.26 890.493C1413.83 898.238 1405.07 906.323 1399.28 916.196C1391.36 929.474 1397.07 940.708 1403.19 952.539C1404.39 954.922 1405.58 957.39 1406.77 959.858C1416.47 980.711 1426.51 1002.33 1428.56 1028.46C1428.9 1032.63 1427.96 1037.74 1427.11 1042.67C1424.98 1054.25 1422.85 1066.25 1435.79 1069.48Z" fill="#CA9050"/>
<path d="M1488.99 1198.42C1491.2 1199.87 1494.69 1200.64 1498.94 1200.64C1502.77 1200.64 1507.28 1199.96 1512.05 1198.51V1197.23C1507.28 1198.77 1502.77 1199.45 1498.94 1199.45C1495.03 1199.45 1491.62 1198.68 1489.58 1197.4C1479.62 1191.02 1475.2 1179.79 1470.52 1167.87C1466.52 1157.57 1462.35 1146.85 1454.18 1139.36V1139.02H1453.83C1444.47 1130.85 1431.96 1126.85 1415.45 1126.85C1399.36 1126.85 1382.43 1130.68 1368.81 1133.83C1359.45 1135.87 1351.45 1137.74 1346.25 1137.74C1343.28 1137.74 1341.4 1137.14 1340.64 1135.87C1339.62 1134.08 1340.38 1130.93 1342.94 1126.34C1354.68 1104.8 1378.43 1053.65 1376.81 1032.46C1375.53 1015.69 1367.45 998.414 1359.7 981.732C1348.47 957.56 1336.81 932.538 1345.23 908.707C1354.94 881.471 1397.49 832.702 1427.79 828.617C1429.55 828.333 1431.45 828.192 1433.49 828.192C1453.15 828.192 1482.01 839.937 1512.05 856.959V855.682C1482.01 838.745 1453.15 827 1433.49 827C1431.39 827 1429.44 827.142 1427.62 827.426C1396.98 831.596 1353.91 880.79 1344.13 908.281C1335.53 932.623 1347.28 957.816 1358.6 982.243C1366.34 998.839 1374.34 1016.03 1375.62 1032.54C1377.06 1051.44 1356.38 1099.36 1341.91 1125.74C1339.02 1130.85 1338.34 1134.25 1339.62 1136.46C1340.64 1138.08 1342.76 1138.93 1346.25 1138.93C1351.62 1138.93 1359.7 1137.06 1369.06 1134.93C1382.6 1131.87 1399.45 1128.04 1415.45 1128.04C1431.71 1128.04 1444.13 1131.95 1453.24 1140.12C1461.24 1147.44 1465.41 1158 1469.41 1168.3C1474.18 1180.38 1478.69 1191.87 1488.99 1198.42Z" fill="#CA9050"/>
<path d="M1373.92 1111.78C1375.11 1113.57 1378.09 1114.34 1383.79 1114.34C1387.36 1114.34 1391.7 1113.99 1396.64 1113.65C1402.77 1113.23 1409.75 1112.8 1416.9 1112.8C1439.71 1112.8 1455.03 1117.65 1465.24 1128.04C1474.77 1135.36 1480.05 1147.36 1484.65 1157.83C1490.26 1170.68 1495.11 1181.66 1505.84 1181.66C1507.03 1181.66 1508.25 1181.54 1509.5 1181.32C1510.29 1181.15 1511.14 1180.92 1512.05 1180.64V1179.79C1511.09 1180.07 1510.18 1180.3 1509.33 1180.47C1508.14 1180.69 1506.97 1180.81 1505.84 1180.81C1495.71 1180.81 1490.94 1170 1485.41 1157.49C1480.73 1146.85 1475.45 1134.85 1465.84 1127.44C1455.45 1116.89 1439.96 1111.95 1416.9 1111.95C1409.66 1111.95 1402.77 1112.38 1396.56 1112.8C1391.62 1113.14 1387.36 1113.48 1383.79 1113.48C1378.51 1113.48 1375.62 1112.8 1374.6 1111.27C1374.09 1110.51 1374 1109.4 1374.6 1108.04C1385.41 1079.1 1394.43 1042.42 1393.58 1031.1C1392.04 1011.35 1383.36 992.711 1374.94 974.668C1364.72 952.539 1355.02 931.687 1361.15 914.324C1369.75 890.152 1408.9 848.193 1430.09 845.299C1431.11 845.129 1432.25 845.043 1433.49 845.043C1450.01 845.043 1479.11 856.874 1512.05 876.449V875.428C1479.11 856.023 1450.01 844.192 1433.49 844.192C1432.19 844.192 1431.03 844.277 1430 844.448C1408.56 847.341 1368.98 889.642 1360.38 914.069C1354.09 931.772 1363.87 952.794 1374.17 975.008C1382.6 992.967 1391.19 1011.61 1392.73 1031.18C1393.49 1041.05 1385.41 1076.63 1373.75 1107.7C1373.15 1109.4 1373.15 1110.76 1373.92 1111.78Z" fill="#CA9050"/>
<path d="M1399.62 1089.65C1402.77 1094.16 1409.49 1094.67 1418.68 1095.36C1419.71 1095.47 1420.76 1095.55 1421.83 1095.61C1424.73 1095.87 1427.79 1095.95 1431.03 1096.12C1446.09 1096.63 1463.11 1097.23 1478.52 1111.19L1478.77 1111.36C1487.28 1118.85 1492.39 1132.04 1496.82 1143.7C1501.33 1155.36 1505.24 1165.49 1511.46 1165.49C1511.63 1165.49 1511.88 1165.49 1512.05 1165.4V1164.89C1511.88 1164.98 1511.63 1164.98 1511.46 1164.98C1505.58 1164.98 1501.75 1155.02 1497.33 1143.44C1492.82 1131.78 1487.71 1118.59 1479.11 1111.02L1478.86 1110.85C1463.37 1096.72 1446.18 1096.12 1431.03 1095.61C1427.79 1095.44 1424.73 1095.36 1421.83 1095.1C1420.76 1095.04 1419.73 1094.96 1418.77 1094.84C1409.66 1094.16 1403.02 1093.65 1400.05 1089.31C1397.15 1085.23 1397.58 1077.48 1401.32 1064.29C1404.81 1052.12 1406.17 1040.97 1405.32 1030.25C1403.62 1008.37 1394.43 988.711 1385.58 969.646C1376.38 949.815 1367.7 931.091 1372.21 918.239C1379.79 896.791 1416.47 859.002 1431.71 856.959C1432.05 856.874 1432.56 856.789 1433.49 856.789C1446.18 856.789 1474.86 867.343 1512.05 890.153V889.557C1474.86 866.832 1446.18 856.278 1433.49 856.278C1432.56 856.278 1431.96 856.363 1431.62 856.449C1416.3 858.491 1379.36 896.536 1371.7 918.069C1367.11 931.091 1375.87 949.986 1385.15 969.902C1394 988.881 1403.11 1008.46 1404.81 1030.25C1405.66 1040.97 1404.3 1052.03 1400.81 1064.2C1396.98 1077.65 1396.64 1085.31 1399.62 1089.65Z" fill="#CA9050"/>
</g>
<g opacity="0.3">
<path fill-rule="evenodd" clip-rule="evenodd" d="M742.766 756.833C729.403 756.833 719.956 749.513 709.998 741.768C703.955 737.087 697.657 732.15 690.337 728.831C683.869 725.937 676.294 724.49 667.187 724.49C647.952 724.49 625.483 730.959 605.652 736.661C589.481 741.342 574.161 745.768 563.437 745.768C556.968 745.768 552.457 744.151 549.819 740.832C546.67 736.917 546.159 730.533 548.202 721.512C552.542 702.276 577.31 679.296 599.098 659.125C612.205 646.869 624.631 635.379 631.1 626.017C651.867 596.143 658.761 543.034 635.866 511.457C630.079 503.542 620.206 495.542 609.737 487.115C587.183 468.902 561.649 448.305 572.033 421.835C576.969 409.409 588.8 403.792 601.396 397.834C609.056 394.174 617.057 390.429 623.355 384.897C628.802 380.131 633.228 375.365 637.483 370.854C648.548 358.938 657.314 349.576 675.783 349.576C678.677 349.576 681.826 349.831 685.145 350.257C730.68 356.725 783.959 366.598 839.963 402.515C901.498 442.007 958.693 483.456 982.694 555.885C993.077 587.291 988.481 624.4 971.289 648.146C959.629 664.317 943.373 672.828 924.223 672.828C917.414 672.828 910.349 671.807 903.03 669.679C852.048 654.955 852.644 608.399 853.24 563.375C853.665 527.628 854.176 490.69 829.068 469.412C820.557 462.178 818.004 460.05 814.94 460.05C813.663 460.05 812.301 460.391 810.344 460.901C807.28 461.582 803.109 462.689 795.96 463.284C790.683 463.795 786.938 463.965 783.959 464.05C774.001 464.391 774.001 464.391 759.362 477.668L759.192 477.838C754.937 481.668 748.809 484.477 742.34 487.456C733.063 491.797 723.445 496.307 720.041 504.138C715.445 514.777 719.701 545.757 722.424 559.034C725.743 574.695 735.787 589.249 744.723 602.016L746.596 604.739C749.66 609.25 752.979 613.931 756.213 618.357C775.108 644.571 794.683 671.721 794.173 705.681C793.832 727.895 769.661 754.024 747.021 756.577C745.603 756.747 744.184 756.833 742.766 756.833ZM710.509 741.087C720.381 748.747 729.744 755.982 742.766 755.982C744.127 755.982 745.518 755.896 746.936 755.726C769.15 753.258 792.981 727.469 793.322 705.681C793.832 671.977 774.342 644.997 755.532 618.867C752.298 614.357 748.979 609.761 745.83 605.25L743.957 602.526C735.021 589.674 724.892 575.035 721.573 559.205C718.849 545.842 714.594 514.692 719.275 503.797C722.765 495.712 732.552 491.116 742 486.69C748.383 483.796 754.426 480.987 758.596 477.157L758.767 476.987C773.661 463.54 773.661 463.54 783.874 463.199C786.938 463.114 790.598 462.944 795.875 462.518C802.939 461.838 807.11 460.816 810.089 460.05C817.153 458.348 817.493 458.433 829.579 468.731C855.027 490.265 854.517 527.458 854.091 563.375C853.836 585.844 853.495 608.995 859.623 627.889C866.432 648.912 880.646 662.274 903.2 668.828C910.52 670.956 917.499 671.977 924.223 671.977C943.032 671.977 959.118 663.551 970.608 647.635C987.63 624.059 992.141 587.376 981.843 556.226C958.012 483.966 900.902 442.602 839.452 403.196C783.704 367.449 730.51 357.576 685.06 351.108C681.741 350.597 678.677 350.427 675.783 350.427C657.74 350.427 649.058 359.704 638.079 371.449C633.823 375.96 629.398 380.727 623.865 385.578C617.567 391.11 609.482 394.94 601.737 398.6C589.31 404.473 577.65 410.005 572.884 422.176C562.671 448.05 587.949 468.476 610.333 486.435C620.801 494.946 630.674 502.946 636.547 510.947C659.612 542.778 652.718 596.398 631.781 626.527C625.312 635.89 612.801 647.465 599.609 659.721C577.905 679.892 553.308 702.702 549.053 721.682C547.01 730.448 547.521 736.576 550.5 740.321C552.968 743.385 557.223 744.917 563.437 744.917C573.99 744.917 589.31 740.491 605.481 735.81C625.312 730.108 647.867 723.639 667.187 723.639C676.464 723.639 684.124 725.086 690.678 728.065C698.167 731.469 704.466 736.321 710.509 741.087Z" fill="#CA9050"/>
<path fill-rule="evenodd" clip-rule="evenodd" d="M739.19 694.021C738.453 694.985 737.46 695.468 736.212 695.468C733.233 695.468 729.062 692.659 723.785 689.169C714.764 683.126 702.508 674.871 687.698 674.871C685.882 674.871 684.067 674.984 682.251 675.211C677.91 675.807 675.272 676.062 673.485 676.062C671.357 676.062 670.25 675.722 669.91 674.871C669.144 672.998 672.378 669.594 679.442 662.104L681.315 660.146C687.528 653.593 691.103 647.039 693.656 642.273C696.209 637.677 697.912 634.698 700.295 634.698C701.231 634.698 702.252 635.209 703.359 636.23C715.7 647.38 748.638 681.935 739.19 694.021ZM702.848 636.826C701.827 635.975 700.976 635.549 700.295 635.549C698.422 635.549 696.805 638.358 694.422 642.699C691.784 647.465 688.209 654.018 681.911 660.742L680.123 662.615C674.08 668.998 670.165 673.254 670.676 674.53C670.903 674.984 671.839 675.211 673.485 675.211C675.187 675.211 677.825 674.956 682.166 674.36C683.982 674.133 685.826 674.02 687.698 674.02C702.763 674.02 715.189 682.36 724.296 688.488C729.403 691.893 733.488 694.616 736.212 694.616C737.176 694.616 737.942 694.248 738.51 693.51C746.936 682.786 718.083 650.699 702.848 636.826Z" fill="#CA9050"/>
<path fill-rule="evenodd" clip-rule="evenodd" d="M705.827 650.954C712.125 654.103 727.7 670.444 728.296 678.615C728.353 679.523 728.183 680.204 727.786 680.658C727.502 680.998 727.076 681.168 726.509 681.168C724.807 681.168 721.913 679.381 717.913 676.998C711.104 672.913 701.827 667.38 693.06 667.21C691.103 667.125 689.911 666.104 689.911 664.231C689.996 659.806 697.656 650.443 703.614 650.443C704.408 650.443 705.146 650.614 705.827 650.954ZM705.316 651.975C704.806 651.748 704.238 651.635 703.614 651.635C698.337 651.635 691.188 660.316 691.103 664.316C691.103 665.423 691.698 666.019 693.06 666.019C702.167 666.189 711.614 671.806 718.508 675.977C722.083 678.104 725.147 679.977 726.509 679.977C726.849 679.977 726.934 679.807 726.934 679.807C727.02 679.722 727.19 679.466 727.105 678.7C726.509 671.296 712.04 655.38 705.316 651.975Z" fill="#CA9050"/>
<path fill-rule="evenodd" clip-rule="evenodd" d="M675.357 486.69C670.421 477.753 662.931 464.306 650.675 457.582C639.525 451.454 634.163 446.092 633.738 440.645C633.227 433.581 641.313 427.367 650.76 420.218C653.739 417.835 656.888 415.452 659.952 412.899C679.357 396.472 687.698 393.578 697.997 393.578C700.89 393.578 704.04 393.834 707.529 394.174L709.231 394.259C748.723 397.493 776.214 412.813 777.746 415.622C778.029 416.19 778.086 416.672 777.916 417.069C777.49 418.09 775.448 418.516 771.533 419.367C763.617 421.069 748.808 424.303 726.594 436.73C704.72 448.901 690.592 471.966 686.336 489.328C685.145 493.924 684.038 496.052 682.592 496.052C680.634 496.052 678.506 492.307 675.357 486.69ZM675.783 486.435C678.676 491.456 680.889 495.541 682.592 495.541C683.698 495.541 684.804 493.414 685.826 489.158C690.166 471.71 704.38 448.56 726.424 436.219C748.638 423.878 763.447 420.644 771.448 418.856C774.937 418.09 777.065 417.665 777.49 416.814C777.576 416.729 777.576 416.388 777.32 415.877C775.873 413.239 747.787 397.919 709.231 394.77L707.529 394.685C703.954 394.344 700.89 394.089 697.997 394.089C687.783 394.089 679.528 396.983 660.292 413.239C657.228 415.877 654.079 418.261 651.015 420.559C641.738 427.708 633.738 433.836 634.248 440.645C634.674 445.751 640.121 451.113 650.845 457.071C663.271 463.965 670.846 477.498 675.783 486.435Z" fill="#CA9050"/>
<path fill-rule="evenodd" clip-rule="evenodd" d="M674.336 511.032C665.654 497.074 652.462 476.051 632.716 462.263C620.46 453.667 614.588 446.518 614.418 439.879C614.247 431.368 622.929 424.644 633.908 416.133C638.759 412.388 643.866 408.388 648.802 403.877C668.804 385.152 678.932 379.535 691.869 379.535C694.252 379.535 696.805 379.705 699.784 380.046C726.168 383.45 753.659 391.451 783.874 404.643C791.023 407.792 799.449 411.622 807.96 416.133C808.896 416.644 810.343 417.239 812.045 418.005C817.663 420.474 826.344 424.218 827.451 428.219C827.791 429.467 827.706 430.432 827.195 431.112C826.628 431.793 825.663 432.134 824.301 432.134C822.344 432.134 820.131 431.453 818.854 430.772C817.237 429.836 816.046 428.134 814.854 426.516C813.237 424.218 811.705 422.006 808.811 421.75C805.917 421.495 804.981 422.942 803.96 424.474C803.194 425.495 802.513 426.602 801.066 427.197C800.215 427.538 799.421 427.708 798.683 427.708C796.725 427.708 795.279 426.602 793.747 425.41C792.3 424.304 790.938 423.197 789.065 422.857C788.668 422.8 788.271 422.772 787.874 422.772C784.555 422.772 780.895 425.24 777.32 427.623C774.597 429.495 771.788 431.368 769.149 432.049C756.042 435.538 744.893 439.879 735.02 445.326C703.018 463.029 693.401 496.222 688.975 519.628C688.294 523.458 687.273 525.245 685.741 525.245C683.187 525.245 679.698 519.628 674.336 511.032ZM674.761 510.776C679.783 518.862 683.443 524.735 685.741 524.735C686.932 524.735 687.868 523.032 688.464 519.543C692.89 496.052 702.593 462.689 734.765 444.9C744.723 439.368 755.872 435.028 769.064 431.538C771.618 430.857 774.256 429.07 777.065 427.197C780.639 424.814 784.384 422.261 787.874 422.261C788.328 422.261 788.753 422.318 789.151 422.431C791.108 422.772 792.64 423.878 794.002 424.984C795.449 426.091 796.896 427.197 798.683 427.197C799.364 427.197 800.102 427.027 800.896 426.687C802.173 426.176 802.853 425.24 803.534 424.133C804.556 422.601 805.662 420.984 808.896 421.24C811.96 421.495 813.663 423.878 815.28 426.176C816.386 427.793 817.578 429.41 819.11 430.261C820.386 430.942 822.514 431.623 824.301 431.623C825.067 431.623 826.174 431.453 826.77 430.772C827.167 430.205 827.224 429.41 826.94 428.389C825.919 424.559 817.408 420.899 811.79 418.431C810.088 417.665 808.641 417.069 807.705 416.558C799.194 412.048 790.768 408.303 783.618 405.154C753.489 391.961 726.083 383.961 699.699 380.556C696.805 380.216 694.252 380.046 691.869 380.046C679.102 380.046 669.059 385.663 649.143 404.217C644.206 408.813 639.1 412.728 634.163 416.558C623.354 424.984 614.758 431.623 614.928 439.879C615.098 446.347 620.886 453.326 632.972 461.838C652.888 475.711 665.995 496.818 674.761 510.776Z" fill="#CA9050"/>
<path fill-rule="evenodd" clip-rule="evenodd" d="M744.722 739.044C732.637 739.044 724.04 732.406 714.933 725.256C709.401 721.001 703.699 716.575 696.89 713.511C690.081 710.362 681.655 708.83 671.867 708.83C653.313 708.83 632.291 714.277 615.439 718.703C603.438 721.852 593.054 724.576 586.501 724.576C582.841 724.576 580.543 723.639 579.522 721.937C578.075 719.469 579.011 715.384 582.415 709.256C590.331 695.127 604.204 682.446 617.652 670.104C628.546 660.061 638.929 650.614 645.993 640.571C670.846 605.505 684.889 549.076 649.994 496.308C644.462 487.882 634.078 480.817 624.12 473.923C605.14 460.986 587.267 448.645 600.629 428.644C607.353 418.601 613.481 414.856 620.545 410.43C624.971 407.792 629.993 404.643 635.78 399.621C640.717 395.196 644.802 390.94 648.632 386.77C658.76 375.875 666.846 367.364 683.613 367.364C686.251 367.364 689.145 367.534 692.124 367.96C732.381 373.662 776.894 383.195 829.663 414.09C899.029 454.773 945.925 492.818 965.501 556.396C974.608 586.1 971.203 618.868 957.075 638.018C948.734 649.252 937.159 655.21 923.456 655.21C915.966 655.21 907.795 653.423 899.199 649.933C883.113 643.38 873.24 628.4 869.07 604.143C865.495 583.036 866.602 557.673 867.623 535.288C867.963 528.99 868.219 523.118 868.389 517.33C869.155 492.563 862.346 472.051 848.728 458.008C836.387 445.241 818.514 438.262 798.598 438.262C771.958 438.262 745.063 450.177 724.721 470.944C701.145 495.031 694.252 520.734 702.848 551.885C710.508 579.376 728.977 606.867 748.552 635.89C755.446 646.103 762.511 656.572 768.979 666.955C784.129 691.212 781.49 708.319 776.639 718.448C771.277 729.512 760.298 737.512 748.637 738.874C747.332 738.988 746.027 739.044 744.722 739.044ZM715.189 724.916C724.296 731.895 732.807 738.534 744.722 738.534C746.027 738.534 747.332 738.477 748.637 738.364C760.042 737.002 770.851 729.172 776.128 718.192C780.98 708.234 783.533 691.297 768.553 667.296C762.085 656.827 755.021 646.358 748.127 636.23C728.551 607.122 710.082 579.631 702.422 551.97C698.252 537.161 697.741 523.713 700.72 510.862C704.124 496.563 711.87 483.371 724.381 470.604C744.807 449.752 771.873 437.751 798.598 437.751C818.684 437.751 836.642 444.815 849.069 457.667C862.772 471.796 869.665 492.392 868.9 517.33C868.729 523.118 868.474 529.075 868.134 535.374C867.112 557.673 866.006 582.951 869.58 604.058C873.666 628.06 883.453 642.954 899.369 649.422C907.965 652.912 916.051 654.699 923.456 654.699C936.988 654.699 948.393 648.827 956.649 637.677C970.692 618.697 974.097 586.1 964.99 556.566C945.5 493.073 898.688 455.199 829.323 414.601C776.724 383.706 732.296 374.173 692.039 368.471C689.06 368.045 686.251 367.875 683.613 367.875C667.016 367.875 659.101 376.386 649.057 387.11C645.142 391.28 641.142 395.621 636.121 399.962C630.333 405.068 625.311 408.218 620.801 410.941C613.821 415.197 607.694 418.942 601.055 428.985C587.948 448.56 605.651 460.646 624.375 473.498C634.418 480.392 644.802 487.541 650.419 496.052C666.165 519.883 673.144 545.757 671.272 572.993C669.569 596.824 660.973 620.314 646.419 640.911C639.355 650.954 628.971 660.487 617.992 670.53C604.629 682.786 590.756 695.382 582.926 709.511C579.607 715.469 578.586 719.384 579.947 721.682C580.884 723.214 583.011 724.065 586.501 724.065C592.969 724.065 603.353 721.341 615.353 718.192C632.205 713.766 653.228 708.319 671.867 708.319C681.91 708.319 690.166 709.851 697.145 713C703.954 716.064 709.657 720.575 715.189 724.916Z" fill="#CA9050"/>
<path fill-rule="evenodd" clip-rule="evenodd" d="M747.021 721.597C733.658 721.597 717.828 712.405 705.146 705.085C702.252 703.383 699.614 701.851 697.146 700.489C692.72 698.106 686.507 696.914 678.251 696.914C667.697 696.914 655.526 698.872 644.802 700.574C635.951 702.021 628.291 703.213 622.759 703.213C619.269 703.213 616.971 702.702 615.694 701.681C615.581 701.567 615.524 701.397 615.524 701.17C615.269 698.276 628.546 683.126 643.951 665.594C662.505 644.486 683.613 620.485 684.464 613.846C684.975 610.186 683.443 607.377 681.911 604.654C680.294 601.675 678.677 598.696 679.528 594.611C680.209 591.462 682.166 589.674 683.953 587.887C686.337 585.674 688.805 583.376 688.89 578.099C688.89 576.057 687.358 572.482 685.571 568.312C683.868 564.396 681.911 559.886 681.06 556.056C680.038 551.289 680.804 548.31 683.443 546.693C684.01 546.353 684.606 546.183 685.23 546.183C691.528 546.183 695.869 566.524 698.422 578.61C699.188 582.185 699.784 584.993 700.21 586.015C708.295 606.441 724.807 627.464 741.403 647.209C754.766 663.04 769.66 687.467 767.618 704.234C766.937 709.936 764.298 714.447 759.787 717.682C756.298 720.32 751.957 721.597 747.021 721.597ZM705.401 704.574C717.998 711.979 733.743 721.086 747.021 721.086C751.872 721.086 756.043 719.809 759.532 717.341C763.873 714.107 766.426 709.766 767.107 704.149C769.065 687.552 754.34 663.296 741.063 647.55C724.381 627.804 707.87 606.697 699.784 586.185C699.359 585.164 698.763 582.44 697.912 578.695C695.529 567.546 691.103 546.693 685.23 546.693C684.719 546.693 684.209 546.864 683.698 547.204C681.315 548.566 680.634 551.46 681.57 555.97C682.421 559.715 684.294 564.226 685.996 568.056C687.869 572.312 689.401 575.972 689.401 578.099C689.315 583.546 686.762 585.93 684.294 588.313C682.421 590.015 680.719 591.717 680.038 594.696C679.187 598.611 680.719 601.42 682.421 604.399C683.953 607.207 685.485 610.101 684.975 613.846C684.039 620.655 662.931 644.741 644.292 665.934C629.653 682.616 615.779 698.446 616.035 701.085C616.035 701.255 616.035 701.255 616.035 701.255C617.226 702.276 619.439 702.702 622.759 702.702C628.291 702.702 635.866 701.51 644.717 700.064C655.441 698.361 667.697 696.404 678.251 696.404C686.592 696.404 692.89 697.595 697.401 700.064C699.869 701.34 702.508 702.957 705.401 704.574Z" fill="#CA9050"/>
<path fill-rule="evenodd" clip-rule="evenodd" d="M749.149 705.255C746.51 707.213 743.191 708.149 739.361 708.149C728.637 708.149 715.019 700.489 705.827 693.34C699.274 688.318 691.273 685.85 681.4 685.85C674.166 685.85 667.017 687.127 660.718 688.318C655.952 689.169 651.782 689.935 648.462 689.935C645.483 689.935 643.611 689.34 642.334 688.063C641.767 687.382 641.512 686.673 641.568 685.935C641.739 683.212 645.568 679.977 651.441 675.126C664.804 663.891 687.273 645.082 690.933 610.442C691.443 605.846 692.294 603.973 693.741 603.973C695.784 603.973 699.103 608.484 705.061 616.655C711.019 624.825 720.041 637.252 732.978 651.891C740.467 660.317 755.532 682.36 754 696.319C753.574 700.234 751.957 703.213 749.149 705.255ZM748.808 704.83C751.532 702.872 753.064 699.978 753.489 696.319C755.021 682.446 740.042 660.657 732.637 652.231C719.615 637.592 710.593 625.166 704.636 616.91C698.933 609.165 695.529 604.484 693.741 604.484C692.635 604.484 691.954 606.356 691.443 610.527C687.698 645.337 665.229 664.232 651.782 675.466C646.249 680.148 642.164 683.467 642.079 685.935C642.022 686.559 642.249 687.127 642.76 687.637C643.866 688.829 645.654 689.425 648.462 689.425C651.696 689.425 655.867 688.659 660.633 687.808C666.931 686.616 674.081 685.339 681.4 685.339C691.443 685.339 699.529 687.808 706.168 692.999C715.274 700.064 728.807 707.638 739.361 707.638C743.106 707.638 746.255 706.702 748.808 704.83Z" fill="#CA9050"/>
<path fill-rule="evenodd" clip-rule="evenodd" d="M680.548 449.667C677.314 449.667 673.399 447.539 667.611 442.773C665.398 440.985 664.718 438.688 665.654 436.219C669.569 425.325 703.358 410.941 718.508 411.963C723.444 412.303 724.466 412.729 724.551 413.58C724.721 414.516 723.359 415.112 719.699 416.729C712.465 419.963 699.017 425.836 692.549 438.007C688.889 444.986 685.4 449.667 680.548 449.667ZM668.377 441.837C673.91 446.433 677.569 448.475 680.548 448.475C684.208 448.475 687.272 445.326 691.528 437.496C698.166 424.9 711.869 418.857 719.274 415.708C720.891 414.942 722.508 414.175 723.189 413.75C722.678 413.58 721.316 413.41 718.423 413.154C717.912 413.154 717.401 413.154 716.891 413.154C701.826 413.154 670.335 426.687 666.76 436.56C666.079 438.688 666.59 440.39 668.377 441.837Z" fill="#CA9050"/>
<path fill-rule="evenodd" clip-rule="evenodd" d="M678.932 466.774C676.294 466.774 674.166 464.816 672.464 460.901C669.655 454.178 663.868 451.284 658.761 448.73C653.91 446.262 649.739 444.22 649.058 439.538C648.803 437.666 649.91 435.198 652.293 432.219C661.57 420.899 687.444 405.664 698.423 404.983C701.146 404.813 703.955 404.728 706.594 404.728C730.595 404.728 746.681 411.282 747.106 414.771C747.106 415.197 747.021 416.048 745.319 416.473C728.212 420.559 707.019 427.878 695.359 448.986C688.89 460.816 683.358 466.774 678.932 466.774ZM694.678 448.645C706.423 427.197 727.786 419.708 745.149 415.622C745.574 415.537 746.255 415.282 746.255 414.856C745.915 412.133 730.169 405.579 706.594 405.579C703.955 405.579 701.146 405.664 698.423 405.834C687.614 406.515 662.166 421.58 652.974 432.815C650.761 435.453 649.654 437.751 649.91 439.368C650.505 443.624 654.506 445.666 659.102 447.964C664.378 450.603 670.336 453.497 673.315 460.561C677.571 470.689 684.89 466.434 694.678 448.645Z" fill="#CA9050"/>
<path fill-rule="evenodd" clip-rule="evenodd" d="M741.148 779.217C727.531 779.217 717.998 771.557 707.87 763.556C700.295 757.428 692.38 751.13 682.422 748.151C680.89 747.726 678.932 747.47 676.634 747.47C666.336 747.47 650.25 751.896 631.61 757.003C607.864 763.471 581.054 770.876 559.266 770.876C544.201 770.876 533.392 767.386 526.328 760.322C519.859 753.769 516.54 743.981 516.625 731.299C516.71 709 546.244 684.999 572.288 663.806C587.608 651.295 602.077 639.464 609.141 629.336C623.695 608.399 636.547 585.844 632.206 562.184C629.653 548.481 621.823 540.31 613.482 531.629C608.801 526.777 603.949 521.671 599.779 515.372C595.949 509.585 593.906 504.308 592.119 499.712C588.714 491.031 585.991 484.137 572.884 478.094C568.883 476.221 565.734 474.86 563.181 473.753C552.968 469.412 552.883 469.327 548.797 458.774C548.031 456.646 547.01 454.092 545.733 450.943C540.541 438.177 536.797 437.07 533.052 437.07C532.03 437.07 531.009 437.155 529.817 437.326C528.541 437.411 527.179 437.581 525.732 437.581C522.583 437.581 517.817 437.07 511.433 432.644C506.327 429.155 504.284 425.75 505.22 422.686C508.795 411.282 555.266 408.218 561.394 408.218C561.564 408.218 561.706 408.218 561.819 408.218C567.181 405.494 569.99 402.09 572.969 398.515C576.884 393.919 580.884 389.068 590.672 386.004C594.076 384.897 596.885 384.046 599.183 383.45C611.099 379.961 611.099 379.961 616.29 364.811L616.886 362.853C617.737 360.3 617.141 358.683 616.461 356.896C615.439 354.427 614.503 351.874 618.078 347.618C619.95 345.406 625.908 343.108 631.695 340.895C635.185 339.533 638.589 338.171 640.292 337.15C642.93 335.533 644.803 333.235 646.59 331.107C649.058 328.128 651.526 325.149 655.952 323.532C658.846 322.511 662.421 322 666.506 322C676.719 322 688.635 325.149 698.252 327.702C700.465 328.298 702.508 328.809 704.295 329.32C735.361 336.98 764.894 350.938 793.407 364.385L796.385 365.832C864.134 397.834 915.456 433.751 953.075 475.455C978.353 503.457 994.78 530.863 1003.04 559.034C1012.82 592.313 1005.84 632.826 985.502 659.976C974.949 674.105 956.139 690.957 926.776 690.957C919.116 690.957 911.2 689.765 903.2 687.467C833.324 667.211 835.622 598.696 843.197 535.969C845.409 517.756 842.005 502.946 833.409 493.158C826.089 484.988 815.11 480.477 802.428 480.477C778.768 480.477 748.638 496.733 739.361 526.777C728.637 561.332 750.596 589.674 773.916 619.719C798.088 650.869 823.11 683.041 808.982 722.958C800.896 746.024 770.767 776.068 745.404 778.962C743.985 779.132 742.567 779.217 741.148 779.217ZM708.636 762.62C718.509 770.536 727.956 778.025 741.148 778.025C742.51 778.025 743.872 777.94 745.234 777.77C770.171 774.961 799.96 745.258 807.875 722.533C821.749 683.212 796.981 651.295 772.98 620.485C750.511 591.547 727.275 561.588 738.169 526.437C747.702 495.797 778.342 479.285 802.428 479.285C815.45 479.285 826.77 483.966 834.26 492.392C843.112 502.436 846.601 517.5 844.388 536.14C836.813 598.356 834.515 666.36 903.54 686.276C911.456 688.574 919.286 689.765 926.776 689.765C955.714 689.765 974.183 673.168 984.566 659.21C1004.65 632.4 1011.63 592.313 1001.93 559.375C993.673 531.373 977.417 504.138 952.224 476.221C914.69 434.687 863.538 398.855 795.875 366.854L792.896 365.492C764.469 352.044 735.02 338.086 704.04 330.426C702.167 330 700.125 329.405 697.997 328.894C688.465 326.341 676.549 323.192 666.506 323.192C662.506 323.192 659.101 323.702 656.293 324.638C652.207 326.17 649.909 328.894 647.526 331.873C645.654 334.086 643.781 336.469 640.887 338.171C639.1 339.278 635.696 340.554 632.121 342.001C626.759 344.044 620.716 346.427 619.014 348.384C615.865 352.044 616.631 354.087 617.567 356.47C618.248 358.257 619.014 360.3 618.078 363.194L617.397 365.151C612.035 380.812 611.95 380.982 599.523 384.557C597.225 385.238 594.417 386.004 591.012 387.11C581.565 390.174 577.82 394.6 573.905 399.281C570.926 402.856 567.862 406.515 562.16 409.409L561.904 408.898L561.819 409.409C561.763 409.409 561.621 409.409 561.394 409.409C552.797 409.409 509.476 413.154 506.327 423.027C505.561 425.58 507.518 428.474 512.114 431.623C518.157 435.794 522.498 436.389 525.732 436.389C527.094 436.389 528.456 436.219 529.732 436.134C530.924 435.964 531.945 435.879 533.052 435.879C538.073 435.879 541.903 438.262 546.84 450.433C548.116 453.667 549.138 456.22 549.904 458.348C553.819 468.476 553.819 468.476 563.692 472.732C566.16 473.753 569.309 475.115 573.394 476.987C586.927 483.286 589.736 490.35 593.225 499.286C595.013 503.797 596.97 508.989 600.8 514.777C604.885 520.905 609.737 525.926 614.333 530.778C622.844 539.629 630.759 547.885 633.398 561.928C637.738 586.015 624.801 608.91 610.162 630.017C603.013 640.316 588.459 652.146 573.054 664.657C547.18 685.765 517.902 709.596 517.817 731.299C517.732 743.726 520.881 753.173 527.179 759.471C533.988 766.365 544.542 769.684 559.266 769.684C580.884 769.684 607.609 762.365 631.27 755.896C649.994 750.705 666.165 746.279 676.634 746.279C679.102 746.279 681.145 746.534 682.762 747.045C692.975 750.024 700.891 756.407 708.636 762.62Z" fill="#CA9050"/>
</g>
<g opacity="0.3">
<path d="M5.44711 632.632C7.83022 580.118 41.2789 541.818 68.174 511.093L70.1316 508.88C73.1956 505.646 80.43 496.88 79.8342 486.241C79.4938 479.772 76.3447 473.9 70.3869 468.878C66.7271 465.814 63.4929 463.005 60.3438 460.282C46.3856 448.366 35.4062 438.919 18.384 427.089C12.1425 422.776 6.01452 418.691 0 414.833V415.428C5.90104 419.23 11.9156 423.259 18.0436 427.514C35.0658 439.345 46.0451 448.707 60.0033 460.707C63.1525 463.346 66.4718 466.24 70.0465 469.219C75.834 474.24 78.9831 479.943 79.3236 486.241C79.9193 496.709 72.77 505.306 69.706 508.54L67.8336 510.753C40.8533 541.563 7.31956 579.948 4.93644 632.632C4.596 638.249 2.46822 641.654 0 642.845V643.441C2.63844 642.335 5.10667 638.845 5.44711 632.632Z" fill="#CA9050"/>
<path d="M17.2776 633.142C19.5756 584.799 51.4922 548.286 77.1958 518.923L79.0682 516.71C84.4302 510.582 88.856 505.135 92.0902 500.539C96.0904 494.752 103.495 484.113 85.9622 467.176C66.9824 448.962 46.5558 432.11 25.1078 417.3C16.4264 411.258 8.00044 405.81 0 400.874V401.47C7.91533 406.321 16.2562 411.768 24.8524 417.726C46.2153 432.535 66.642 449.302 85.5367 467.601C102.814 484.198 95.5798 494.581 91.6647 500.199C88.4304 504.795 84.0898 510.242 78.7278 516.455L76.7702 518.583C51.0667 548.031 19.0649 584.629 16.7669 633.142C15.7456 655.697 11.7453 668.719 4.25556 674.336C2.72356 675.471 1.30504 676.095 0 676.208V676.719C1.44689 676.634 2.89378 675.953 4.51089 674.762C12.1709 669.059 16.2562 655.867 17.2776 633.142Z" fill="#CA9050"/>
<path d="M4.42578 556.117C9.02178 548.032 14.9796 540.712 20.682 533.648C29.0229 523.434 37.534 512.881 42.2151 499.859C50.3007 477.049 34.3849 466.41 17.4478 455.26C15.9158 454.239 14.3554 453.189 12.7667 452.111C9.958 450.239 7.40467 448.452 4.76622 446.664C3.48956 445.813 1.95756 444.622 0 443.26V443.856C1.8157 445.161 3.31933 446.239 4.51089 447.09C7.06422 448.877 9.70267 450.664 12.5113 452.537C14.1001 453.615 15.6604 454.665 17.1924 455.686C33.9593 466.75 49.7049 477.219 41.7044 499.688C37.1084 512.625 28.5973 523.094 20.3416 533.307C14.554 540.372 8.59622 547.691 4.00022 555.862C2.55333 558.245 1.36178 561.394 0 564.798V566.16C0.113481 565.82 0.255333 565.479 0.425556 565.139C1.78733 561.734 3.064 558.5 4.42578 556.117Z" fill="#CA9050"/>
<path d="M46.0451 518.583C46.7827 517.675 47.5487 516.767 48.3431 515.859C59.2373 503.007 70.6422 489.645 57.7053 473.729C47.7473 461.388 32.7678 451.26 19.4904 442.238C16.6818 440.366 14.1284 438.663 11.5751 436.876C9.87289 435.684 7.48978 433.982 4.85133 432.025C3.31933 430.918 1.70222 429.727 0 428.535V429.131C1.61711 430.322 3.14911 431.429 4.51089 432.45C7.23444 434.408 9.53244 436.11 11.2347 437.302C13.8731 439.089 16.4264 440.791 19.15 442.664C32.4273 451.6 47.4069 461.814 57.3649 474.07C69.9613 489.645 58.7267 502.837 47.9176 515.519C47.1232 516.427 46.3572 517.334 45.6196 518.242C36.0871 529.647 23.9162 544.797 14.2987 561.734C8.51111 571.947 3.65978 582.757 0 593.821V595.523C3.74489 583.948 8.68133 572.713 14.8093 561.989C24.3418 545.137 36.5127 529.902 46.0451 518.583Z" fill="#CA9050"/>
<path fill-rule="evenodd" clip-rule="evenodd" d="M173.798 531.52C176.011 531.407 177.826 532.229 179.245 533.988C183.245 539.18 182.479 551.096 181.202 556.287C174.904 581.48 161.457 590.417 141.03 603.865C136.008 607.269 131.072 611.099 126.391 614.844C120.603 619.355 114.56 624.121 108.262 627.866C105.113 629.823 102.304 630.845 100.262 630.845C99.6943 630.845 99.212 630.788 98.8149 630.675C97.7368 630.334 96.9992 629.682 96.602 628.717C95.6657 626.589 96.3466 623.015 98.5595 618.504C104.432 606.758 114.22 596.885 123.752 587.353C125.341 585.707 126.902 584.09 128.434 582.502C139.924 570.671 150.137 559.947 158.733 547.776C159.414 546.84 160.265 545.478 161.116 544.117C164.265 538.84 168.521 531.775 173.798 531.52ZM173.798 532.031C168.776 532.286 164.606 539.265 161.542 544.372C160.691 545.734 159.84 547.095 159.159 548.117C150.562 560.288 140.349 571.012 128.859 582.842C127.27 584.431 125.682 586.048 124.093 587.693C114.646 597.226 104.858 607.099 99.0702 618.674C96.8573 623.015 96.1764 626.504 97.0275 628.462C97.4247 629.313 98.0489 629.88 98.9 630.164C100.943 630.76 104.177 629.738 108.007 627.44C114.305 623.695 120.263 618.929 126.05 614.418C130.817 610.673 135.668 606.843 140.775 603.439C161.031 589.991 174.479 581.14 180.692 556.117C181.968 551.011 182.734 539.35 178.819 534.329C177.628 532.797 176.067 532.031 174.138 532.031C174.025 532.031 173.911 532.031 173.798 532.031Z" fill="#CA9050"/>
<path d="M29.3633 633.738C31.406 589.651 61.7907 554.84 86.2176 526.924L88.1751 524.711C117.198 491.433 116.092 479.857 102.389 466.41C87.4942 451.601 63.9184 429.472 32.0018 407.343C21.1076 399.853 10.3836 392.874 0 386.746V387.767C10.2133 393.81 20.8522 400.619 31.5762 408.024C63.4078 430.153 86.8984 452.281 101.793 467.006C115.07 480.028 116.177 491.433 87.5793 524.115L85.6218 526.328C61.1098 554.415 30.5549 589.31 28.5122 633.738C26.6398 675.358 10.8942 687.614 0 691.103V691.954C11.1496 688.55 27.4058 676.294 29.3633 633.738Z" fill="#CA9050"/>
<path fill-rule="evenodd" clip-rule="evenodd" d="M186.394 521.051C194.394 531.265 194.905 551.351 192.947 559.181C185.458 588.97 168.861 599.949 147.753 613.993C146.675 614.674 145.597 615.354 144.519 616.035C131.838 624.461 117.454 633.909 109.283 646.76C104.943 653.569 103.325 661.4 101.708 668.889C100.091 676.464 98.389 684.209 94.1335 690.933C89.7077 697.997 86.7288 700.891 83.9201 700.891C81.1115 700.891 78.8135 697.912 76.5155 691.614C75.8346 689.742 75.4941 687.699 75.5793 685.741C75.8346 679.869 79.1539 674.336 82.4733 669.06C85.1968 664.634 87.7501 660.463 88.431 656.208C89.6226 649.314 88.1757 642.76 86.7288 636.377C85.0266 628.547 83.2393 620.546 86.3033 612.12C89.8779 602.077 101.708 591.098 111.156 582.331C114.39 579.352 117.369 576.544 119.837 574.076C129.029 564.543 138.561 554.755 146.987 543.861C148.519 541.904 150.307 539.18 152.094 536.201C157.371 527.945 163.839 517.562 171.329 515.774C177.372 514.242 182.479 516.115 186.394 521.051ZM175.329 516.115C174.081 516.115 172.833 516.257 171.585 516.54C164.435 518.328 157.967 528.541 152.86 536.712C150.988 539.606 149.2 542.414 147.668 544.372C139.242 555.351 129.625 565.139 120.433 574.671C117.965 577.14 114.986 579.948 111.751 582.927C102.304 591.694 90.5588 602.588 87.0693 612.376C84.0904 620.546 85.7926 628.121 87.5799 636.122C89.0268 642.59 90.4737 649.314 89.2821 656.293C88.6013 660.719 85.9628 664.974 83.1541 669.485C80.005 674.677 76.6857 680.124 76.4304 685.741C76.4304 687.699 76.6857 689.486 77.3666 691.359C79.4093 697.146 81.537 700.04 83.9201 700.04C86.9841 700.04 90.4737 695.189 93.4526 690.508C97.623 683.954 99.2401 676.209 100.857 668.719C102.474 661.144 104.177 653.229 108.517 646.335C116.773 633.313 131.327 623.78 144.094 615.354C145.172 614.674 146.221 613.964 147.243 613.227C168.18 599.354 184.777 588.459 192.096 559.011C194.309 550.159 192.862 530.754 185.713 521.562C182.819 517.902 179.33 516.115 175.329 516.115Z" fill="#CA9050"/>
<path fill-rule="evenodd" clip-rule="evenodd" d="M180.52 488.624C180.265 491.858 179.924 494.922 181.626 497.56C184.009 501.305 187.073 503.688 190.308 506.157C194.053 508.965 197.883 511.859 200.947 517.051C207.755 528.711 213.032 549.733 209.628 563.351C200.521 599.608 179.499 613.567 157.199 628.291C132.092 644.973 106.048 662.165 96.5152 713.998C94.047 727.445 89.9617 734.254 84.2592 734.254C75.1523 734.254 65.7901 716.211 63.0665 703.359C57.8748 679.187 59.577 650.42 68.003 617.822C73.6203 595.949 89.7063 580.203 105.197 564.883C113.197 557.053 121.368 548.882 128.006 540.116C129.623 537.988 132.262 535.094 135.241 531.69C144.348 521.562 158.051 506.156 155.838 497.816C155.072 494.752 153.114 491.603 151.071 488.283C148.773 484.709 146.475 481.049 145.624 477.304C144.433 471.942 146.731 470.835 148.263 470.069C148.944 469.729 149.284 469.474 149.369 469.133C149.625 467.857 146.646 464.112 144.348 461.388C141.794 458.324 134.305 454.324 126.985 450.409C118.304 445.728 110.048 441.302 109.197 438.068C107.75 432.706 107.665 429.216 108.941 427.514C109.622 426.719 110.53 426.322 111.665 426.322C121.538 426.322 150.646 457.984 159.327 467.686L159.583 467.942C162.647 470.24 165.285 470.835 167.838 471.431C171.583 472.197 175.158 472.963 179.158 478.751C181.201 481.73 180.86 485.219 180.52 488.624ZM179.413 488.453C179.669 485.219 180.009 482.07 178.222 479.432C174.392 473.984 171.243 473.304 167.583 472.538C165.03 472.027 162.136 471.431 158.817 468.878C158.817 468.878 158.703 468.764 158.476 468.537C140.688 448.706 119.07 427.514 111.665 427.514C110.871 427.514 110.303 427.769 109.963 428.28C109.197 429.216 108.686 431.599 110.303 437.812C111.069 440.451 119.836 445.217 127.581 449.387C134.985 453.302 142.56 457.388 145.284 460.622C150.05 466.239 150.816 468.112 150.561 469.388C150.391 470.325 149.539 470.75 148.773 471.091C147.412 471.772 145.795 472.623 146.816 477.048C147.667 480.538 149.88 484.198 152.008 487.687C154.135 491.092 156.178 494.241 157.029 497.475C159.327 506.497 145.965 521.562 136.092 532.541C133.113 535.86 130.56 538.754 128.943 540.882C122.304 549.733 114.048 557.904 106.048 565.734C90.6425 580.884 74.7268 596.63 69.1945 618.078C60.7685 650.505 59.1514 679.102 64.173 703.104C67.1519 716.977 76.5141 733.063 84.2592 733.063C89.1957 733.063 93.0257 726.339 95.3237 713.742C105.026 661.484 131.241 644.122 156.519 627.27C178.647 612.716 199.5 598.842 208.436 563.096C211.756 549.733 206.649 529.137 199.925 517.647C196.946 512.71 193.201 509.816 189.627 507.093C186.307 504.539 183.073 502.156 180.605 498.241C178.733 495.262 179.073 491.773 179.413 488.453Z" fill="#CA9050"/>
<path d="M0 368.277C57.3649 400.789 119.241 452.452 130.56 478.155C137.284 493.56 120.858 512.029 100.176 535.35C76.5149 561.819 47.1516 594.842 45.3642 634.504C43.1513 682.762 19.2351 702.593 0 708.551V709.828C19.6607 703.87 44.2578 683.784 46.5558 634.504C48.3431 595.353 77.5362 562.5 101.027 536.116C122.049 512.455 138.646 493.816 131.582 477.644C120.262 451.771 57.7904 399.683 0 367V368.277Z" fill="#CA9050"/>
<path d="M15.9158 490.156C15.0647 484.623 11.3198 479.772 4.34067 475.091C2.92215 474.183 1.47526 473.247 0 472.282V472.878C1.36178 473.786 2.72356 474.665 4.08533 475.516C10.8942 480.112 14.554 484.879 15.4051 490.241C16.7669 499.007 10.0431 508.114 1.78733 518.242C1.27667 518.923 0.680889 519.774 0 520.71V521.562C0.766 520.455 1.532 519.434 2.21289 518.583C10.5538 508.369 17.2776 499.177 15.9158 490.156Z" fill="#CA9050"/>
<path d="M30.9804 495.858C35.4062 483.432 30.8953 478.495 10.8942 465.218C9.30548 464.14 7.68837 463.062 6.04289 461.984C4.00022 460.537 1.95756 459.175 0 457.813V458.494C1.87244 459.771 3.83 461.048 5.78756 462.409C7.43304 463.488 9.05015 464.566 10.6389 465.644C30.3847 478.751 34.8104 483.602 30.4698 495.688C26.5547 506.667 19.0649 515.944 11.0644 525.817C7.31955 530.328 3.57467 535.009 0 540.031V540.882C3.65978 535.69 7.57489 530.839 11.49 526.073C19.4904 516.2 27.0653 506.923 30.9804 495.858Z" fill="#CA9050"/>
<path fill-rule="evenodd" clip-rule="evenodd" d="M166.648 560.798C167.584 561.99 167.244 564.458 167.074 565.139C166.393 568.203 164.605 572.033 162.052 575.522C159.329 579.182 153.881 585.31 147.073 585.48H146.987C146.817 585.48 146.675 585.48 146.562 585.48C145.626 585.395 145.285 584.885 145.115 584.544C144.519 583.097 145.966 580.544 149.371 576.459L149.456 576.374C150.477 575.069 151.498 573.792 152.52 572.544C154.137 570.586 155.754 568.543 157.456 566.586C157.74 566.245 158.08 565.848 158.477 565.394C160.265 563.096 162.733 560.032 165.116 560.032H165.201C165.797 560.117 166.308 560.288 166.648 560.798ZM165.967 561.309C165.797 561.025 165.542 560.883 165.201 560.883C163.073 560.883 160.69 563.947 159.158 565.905C158.761 566.416 158.392 566.841 158.052 567.182C156.35 569.139 154.733 571.097 153.201 573.054C152.179 574.359 151.158 575.636 150.137 576.884L149.966 577.054C145.711 582.076 145.711 583.693 145.881 584.204C145.966 584.289 146.051 584.544 146.647 584.629C146.76 584.629 146.874 584.629 146.987 584.629C153.456 584.459 158.733 578.501 161.371 575.012C163.839 571.607 165.627 567.948 166.223 564.969C166.478 563.777 166.563 562.075 165.967 561.309Z" fill="#CA9050"/>
</g>
<g opacity="0.3">
<path d="M225.119 151.668C221.8 138.561 195.075 135.071 164.179 131.071C156.519 130.05 148.604 129.028 140.944 127.837C107.07 122.475 76.0893 105.453 46.0451 89.0262C31.0656 80.7704 15.7456 72.3444 0 65.4504V66.7271C15.4902 73.6211 30.64 81.8769 45.5344 90.0476C75.5787 106.559 106.729 123.581 140.774 128.943C148.434 130.22 156.349 131.241 164.009 132.263C193.202 136.008 220.778 139.667 223.927 151.923C226.31 161.541 213.884 176.01 185.798 196.351C146.476 224.778 113.453 238.056 81.8769 238.056C63.9184 238.056 46.1302 233.63 29.0229 224.778C18.384 219.331 8.93667 212.693 0 205.969V207.501C8.76644 214.054 18.0436 220.523 28.5122 225.885C45.7898 234.736 63.7482 239.247 81.8769 239.247C113.708 239.247 146.987 225.885 186.564 197.288C215.416 176.35 227.672 161.881 225.119 151.668Z" fill="#CA9050"/>
<path d="M36.3424 210.565C49.2793 217.204 60.2587 220.268 70.8976 220.268C82.0471 220.268 92.0051 216.948 103.495 213.033C109.964 210.82 117.368 208.352 125.794 206.224C130.05 205.203 133.71 205.033 136.178 205.033C137.795 205.033 139.327 205.118 140.859 205.203C142.221 205.203 143.582 205.288 144.944 205.288C151.838 205.288 157.285 203.671 163.328 195.5C167.414 190.053 168.946 185.798 170.222 182.053C172.265 176.52 173.882 172.095 182.648 165.796C184.946 164.179 188.181 162.903 191.33 161.626C196.351 159.668 200.692 157.966 200.862 155.072C201.032 152.689 198.309 150.051 192.266 146.817C185.032 142.902 174.733 142.306 165.626 142.306C161.541 142.306 157.285 142.476 153.115 142.561C148.944 142.731 144.689 142.816 140.518 142.816C131.412 142.816 124.943 142.221 119.666 140.774C90.0476 132.773 62.3013 117.538 37.7893 104.091C24.9376 97.0267 12.4262 90.1327 0 84.26V85.2813C12.3411 91.0689 24.6822 97.7927 37.3638 104.772C61.9609 118.304 89.7922 133.539 119.496 141.625C124.773 143.072 131.326 143.668 140.518 143.668C144.689 143.668 148.944 143.582 153.115 143.412C157.285 143.327 161.541 143.157 165.626 143.157C174.648 143.157 184.776 143.668 191.84 147.498C197.373 150.562 200.181 153.03 200.011 154.987C199.926 157.37 195.585 159.073 190.989 160.86C187.84 162.137 184.521 163.413 182.138 165.116C173.116 171.584 171.414 176.265 169.456 181.797C168.094 185.457 166.648 189.628 162.647 195.075C156.86 202.905 151.583 204.437 144.944 204.437C143.582 204.437 142.306 204.352 140.859 204.352C139.327 204.267 137.795 204.182 136.178 204.182C133.71 204.182 129.88 204.352 125.539 205.458C117.113 207.501 109.708 210.054 103.24 212.267C91.7498 216.097 81.962 219.416 70.8976 219.416C60.3438 219.416 49.5347 216.352 36.6829 209.799C25.0227 203.841 14.4689 195.841 4.25556 188.096C2.83704 187.018 1.41852 185.939 0 184.861V185.968C1.2483 186.876 2.49659 187.812 3.74489 188.776C13.9582 196.522 24.512 204.522 36.3424 210.565Z" fill="#CA9050"/>
<path d="M44.1727 195.245C56.684 201.713 69.0251 204.862 81.8769 204.862C89.0262 204.862 104.516 201.883 117.964 197.032C129.794 192.777 143.923 185.627 143.923 176.095C143.923 164.775 122.22 158.562 109.198 154.817C106.389 153.966 103.921 153.285 102.304 152.689C78.9831 144.263 55.918 133.624 29.5336 119.155C19.4904 113.623 9.70267 108.261 0 103.41V104.006C9.61755 108.772 19.3202 114.134 29.2782 119.581C55.6627 134.05 78.8129 144.689 102.133 153.115C103.75 153.796 106.219 154.477 109.027 155.243C121.879 158.987 143.412 165.201 143.412 176.095C143.327 192.606 96.6862 204.352 81.8769 204.352C69.1102 204.352 56.8542 201.203 44.3429 194.819C33.9593 189.457 24.0864 181.967 14.4689 174.648C9.78778 171.158 5.02156 167.499 0 164.009V164.605C4.85133 168.094 9.53244 171.584 14.1284 175.073C23.746 182.393 33.704 189.883 44.1727 195.245Z" fill="#CA9050"/>
<path d="M49.6198 184.691C60.4289 190.223 70.9827 192.947 81.8769 192.947C91.3242 192.947 103.665 190.138 108.346 184.01C110.474 181.287 110.985 178.138 110.134 174.648C107.921 166.392 90.6433 160.605 78.0469 156.349C73.9616 154.902 70.472 153.711 68.2591 152.774C53.7051 145.966 39.2362 138.05 25.278 130.39L23.746 129.539C15.6604 125.113 7.74511 120.773 0 116.772V117.368C7.66 121.368 15.4902 125.624 23.4907 129.965L25.0227 130.816C38.9809 138.476 53.4498 146.476 68.0889 153.2C70.2167 154.221 73.7913 155.413 77.8767 156.775C89.7071 160.775 107.495 166.818 109.623 174.818C110.474 178.138 109.964 181.116 108.006 183.67C103.325 189.713 91.154 192.436 81.7918 192.436C71.0678 192.436 60.5991 189.713 49.79 184.18C40.3427 179.329 30.8102 172.18 21.6182 165.201C14.9796 160.094 7.83022 154.732 0 149.625V150.221C7.74511 155.243 14.7242 160.605 21.3629 165.541C30.5549 172.605 40.0873 179.755 49.6198 184.691Z" fill="#CA9050"/>
<path d="M54.8967 174.222C58.3011 175.925 67.8336 179.074 74.8127 179.074C77.2809 179.074 79.1533 178.648 80.3449 177.797C83.0684 176.095 84.26 174.478 84.0047 172.776C83.494 169.201 75.6638 167.073 69.3656 165.286C66.8122 164.605 64.5993 164.009 63.3227 163.413C48.4282 156.434 33.7891 148.434 19.6607 140.689L18.1287 139.838C12.0007 136.518 5.95778 133.199 0 130.05V130.986C5.78756 134.05 11.6602 137.284 17.7031 140.604L19.2351 141.455C33.3636 149.2 48.0027 157.2 62.9822 164.179C64.2589 164.775 66.5569 165.456 69.1953 166.137C74.8978 167.754 82.728 169.882 83.1536 172.946C83.3805 174.194 82.3024 175.584 79.9193 177.116C78.7845 177.854 77.0823 178.223 74.8127 178.223C68.0889 178.223 58.5564 175.074 55.3222 173.456C46.8111 169.116 37.7042 162.222 28.9378 155.583C20.5118 149.2 10.9793 141.965 0 135.412V136.348C10.8091 142.902 20.1713 149.966 28.4271 156.264C37.2787 162.903 46.3856 169.797 54.8967 174.222Z" fill="#CA9050"/>
<path d="M217.289 14.7242C228.949 51.0667 233.715 70.8124 204.692 87.4942C200.011 90.3029 194.564 92.3456 188.691 93.5371C183.67 94.6436 178.223 95.1542 172.35 95.1542C118.56 95.1542 44.5982 50.2156 4.93644 26.044L3.57467 25.1929C2.32637 24.4553 1.13481 23.746 0 23.0651V24.0013C1.02133 24.6255 2.07104 25.278 3.14911 25.9589L4.51089 26.7249C44.2578 50.9816 118.304 96.0053 172.35 96.0053C178.308 96.0053 183.84 95.4947 188.862 94.3882C194.819 93.1116 200.352 91.0689 205.118 88.2602C234.651 71.238 229.885 51.2369 218.055 14.4689C216.608 9.78778 214.991 4.93644 213.629 0H212.693C214.14 5.02156 215.757 9.958 217.289 14.7242Z" fill="#CA9050"/>
<path d="M149.285 9.53244C149.626 10.8091 150.136 12.4262 150.647 14.1284C152.179 19.2351 151.924 22.5544 149.881 24.2567C148.803 25.1078 147.299 25.5333 145.37 25.5333C137.029 25.5333 123.241 18.1287 118.645 15.6604C116.432 14.4689 114.73 13.6178 113.453 12.9369L106.474 9.44733C100.063 6.32659 93.8211 3.17748 87.7498 0H86.7285C93.0267 3.3477 99.5236 6.66704 106.219 9.958L113.198 13.3624C114.56 14.0433 116.177 14.8944 118.39 16.086C122.986 18.5542 136.944 26.044 145.37 26.044C147.413 26.044 149.03 25.5901 150.221 24.6822C152.434 22.8098 152.775 19.2351 151.158 14.0433C150.647 12.256 150.136 10.6389 149.796 9.36222C149.03 6.29822 148.179 3.23422 147.413 0H146.902C147.668 3.23422 148.519 6.38333 149.285 9.53244Z" fill="#CA9050"/>
<path d="M201.203 19.916C205.969 34.5551 210.48 53.0242 203.416 65.1951C199.926 71.238 193.798 75.2382 185.202 77.1107C181.372 77.8767 177.031 78.3022 172.35 78.3022C123.241 78.3022 52.0029 34.8956 13.7029 11.6602L6.63867 7.31956C4.42578 6.01452 2.21289 4.79459 0 3.65978V4.25556C2.15615 5.33363 4.28393 6.49682 6.38333 7.74511L13.4476 12.0858C51.7476 35.4062 123.156 78.8129 172.35 78.8129C177.031 78.8129 181.372 78.3873 185.287 77.5362C194.053 75.7489 200.266 71.6636 203.841 65.4504C210.99 53.1093 206.48 34.5551 201.713 19.7458C199.671 13.3624 197.628 6.80889 195.926 0H195.415C197.117 6.80889 199.16 13.4476 201.203 19.916Z" fill="#CA9050"/>
<path d="M160.861 6.46844C161.117 7.66 161.542 9.02178 162.053 10.724C164.521 18.8096 168.266 31.0656 164.776 36.6829C163.329 38.9809 161.117 40.5129 158.138 41.1087C156.946 41.3924 155.613 41.5342 154.137 41.5342C141.711 41.5342 123.072 31.5762 113.029 26.1291C111.071 25.1078 109.369 24.2567 108.177 23.5758L107.241 23.1502C106.277 22.6396 105.369 22.1856 104.518 21.7884L101.198 20.1713C87.6656 13.5327 74.8138 6.72378 62.9834 0H61.877C73.9627 6.894 87.155 13.8731 101.028 20.5969L104.262 22.214C105.113 22.6679 106.05 23.1219 107.071 23.5758L107.922 24.0864C109.199 24.6822 110.816 25.5333 112.773 26.6398C122.817 32.0018 141.626 42.0449 154.137 42.0449C155.613 42.0449 156.974 41.903 158.223 41.6193C161.372 40.9384 163.67 39.4064 165.202 36.9382C168.862 31.1507 165.032 18.7244 162.563 10.5538C162.053 8.93667 161.627 7.48978 161.372 6.38333C160.804 4.28393 160.237 2.15615 159.67 0H159.159C159.726 2.15615 160.294 4.3123 160.861 6.46844Z" fill="#CA9050"/>
<path d="M172.35 3.40444C174.733 12.5113 177.287 21.8736 177.542 31.5762C177.882 44.0876 173.031 51.2369 163.073 52.854C161.541 53.1377 159.924 53.2796 158.222 53.2796C140.944 53.2796 116.177 40.8533 102.814 34.2147C101.509 33.5905 100.318 33.0231 99.2397 32.5124L96.0055 30.8953C75.2384 20.7671 56.0884 10.2133 39.5768 0H38.6406C55.3224 10.3836 74.7277 21.0224 95.7502 31.3209L99.0695 32.938C100.148 33.4487 101.311 34.0444 102.559 34.7253C115.922 41.364 140.774 53.7902 158.222 53.7902C159.981 53.7902 161.598 53.6484 163.073 53.3647C173.372 51.7476 178.393 44.3429 178.053 31.5762C177.797 21.7884 175.244 12.4262 172.861 3.23422C172.577 2.15615 172.293 1.07807 172.01 0H171.414C171.754 1.13481 172.066 2.26963 172.35 3.40444Z" fill="#CA9050"/>
<path d="M189.883 23.4907C190.11 24.285 190.365 25.0794 190.649 25.8738C193.373 34.1296 196.181 42.7258 191.67 50.9816C187.84 57.8756 180.18 63.4929 172.095 65.1951C171.244 65.3653 170.393 65.5072 169.542 65.6207C167.584 65.876 165.456 65.9611 163.243 65.9611C140.434 65.9611 113.624 52.7689 94.0479 43.1513L90.7286 41.5342C65.6208 29.2782 41.2791 14.4689 19.8311 1.44689C18.9232 0.879481 18.1288 0.397185 17.4479 0H16.5117C18.1288 1.02133 19.5757 1.87244 19.5757 1.87244C41.0237 14.8944 65.3655 29.7038 90.4733 42.0449L93.7926 43.662C113.368 53.2796 140.263 66.4718 163.243 66.4718C165.456 66.4718 167.584 66.3867 169.627 66.1313C170.478 66.0178 171.329 65.876 172.18 65.7058C180.436 63.9184 188.181 58.216 192.096 51.2369C196.692 42.7258 193.883 34.0444 191.16 25.7036C190.876 24.9092 190.621 24.1148 190.394 23.3204C187.926 15.9158 185.628 8.08556 183.67 0H183.159C185.117 8.17067 187.5 16.0009 189.883 23.4907Z" fill="#CA9050"/>
<path d="M233.29 9.53244C244.099 43.1513 255.248 77.7916 213.118 102.133C206.905 105.793 199.841 108.432 192.181 110.049C186.053 111.325 179.414 112.006 172.35 112.006C115.496 112.006 44.3429 69.706 0 42.7258V44.1727C44.5131 71.1529 115.411 113.198 172.35 113.198C179.499 113.198 186.223 112.517 192.436 111.24C200.181 109.538 207.331 106.814 213.714 103.155C256.61 78.3873 245.375 43.2364 234.481 9.192C233.46 6.128 232.467 3.064 231.502 0H230.311C231.275 3.17748 232.268 6.35496 233.29 9.53244Z" fill="#CA9050"/>
</g>
<g opacity="0.3">
<path fill-rule="evenodd" clip-rule="evenodd" d="M1399.02 520.501C1395.28 522.459 1386.17 526.629 1382 523.991C1380.7 523.14 1380.02 521.721 1379.96 519.735C1379.96 517.863 1380.56 515.565 1381.66 512.841C1382.17 511.65 1382.6 510.373 1383.02 509.096C1385.49 502.117 1387.79 495.564 1397.83 498.968C1406.77 502.032 1408.56 506.117 1408.56 509.096C1408.56 513.097 1404.98 517.437 1399.02 520.501ZM1398.6 519.735C1404.3 516.756 1407.71 512.841 1407.71 509.096C1407.71 505.266 1404.22 502.032 1397.58 499.819C1388.39 496.67 1386.26 502.543 1383.87 509.437C1383.36 510.628 1382.94 511.905 1382.43 513.182C1380.3 518.459 1380.3 521.948 1382.43 523.31C1385.07 524.927 1391.11 523.565 1398.6 519.735Z" fill="#CA9050"/>
<path d="M1502.09 544.418C1505.55 545.269 1508.96 546.092 1512.31 546.886L1512.31 545.95C1509.02 545.212 1505.7 544.418 1502.35 543.567C1495.97 541.95 1489.5 540.333 1482.77 539.056C1460.56 534.715 1431.45 530.97 1403.19 540.673C1391.7 544.588 1382.34 554.461 1374.09 563.142C1366.68 570.887 1360.3 577.526 1355.02 576.93C1352.55 576.675 1350.34 574.888 1348.3 571.483C1347.36 569.866 1346.85 567.228 1346.85 563.483C1346.85 550.376 1352.64 527.311 1358.34 510.288C1364.55 491.734 1374.51 468.839 1386.34 465.35C1390.17 464.158 1394 465.094 1397.75 468.073C1402.51 471.903 1406.77 475.989 1410.85 479.904C1418.94 487.649 1426.51 494.968 1437.83 499.82C1453.92 506.714 1470.69 507.565 1487.71 502.288C1491.88 501.011 1495.62 499.735 1499.03 498.628C1503.97 496.926 1508.31 495.479 1512.31 494.458L1512.31 493.607C1508.22 494.628 1503.8 496.075 1498.77 497.777C1495.37 498.883 1491.62 500.16 1487.45 501.437C1470.69 506.629 1454.09 505.863 1438.17 498.969C1427.03 494.202 1419.45 486.968 1411.45 479.308C1407.36 475.308 1403.11 471.222 1398.26 467.392C1394.26 464.243 1390.17 463.307 1386.09 464.499C1373.92 468.158 1363.87 491.223 1357.57 510.033C1351.79 527.14 1346 550.291 1346 563.483C1346 567.313 1346.51 570.207 1347.53 571.909C1349.74 575.569 1352.13 577.526 1354.85 577.781C1360.64 578.462 1367.19 571.653 1374.68 563.738C1382.85 555.142 1392.21 545.354 1403.45 541.439C1431.54 531.821 1460.56 535.566 1482.69 539.907C1489.33 541.184 1495.8 542.801 1502.09 544.418Z" fill="#CA9050"/>
<path d="M1512.22 531.395C1512.22 531.452 1512.25 531.48 1512.31 531.48L1512.31 530.799C1511.2 529.778 1510.01 528.671 1508.22 527.905C1503.28 525.778 1498.09 526.373 1493.07 526.969C1490.26 527.31 1487.37 527.65 1484.56 527.48C1480.13 527.31 1475.54 526.373 1471.11 525.522C1467.37 524.841 1463.62 524.075 1459.88 523.735C1437.41 521.522 1417.07 523.48 1399.36 529.523C1395.7 530.799 1390.09 535.736 1384.13 541.013C1376.55 547.651 1368.64 554.545 1363.87 554.801C1362.79 554.914 1361.92 554.659 1361.23 554.035C1359.36 552.162 1359.02 547.396 1360.21 539.651C1361.15 534.033 1363.45 528.586 1365.75 523.395C1367.11 520.331 1368.47 517.181 1369.49 514.032C1369.77 513.124 1370.09 512.188 1370.43 511.224C1374.17 499.904 1379.28 484.414 1388.21 482.201C1392.47 481.179 1397.41 483.222 1402.77 488.414C1411.19 496.499 1419.96 504.925 1433.15 510.628C1445.92 516.075 1470.6 522.288 1484.05 519.905C1486.77 519.394 1488.65 518.288 1490.43 517.181C1492.82 515.649 1495.03 514.288 1499.2 514.883C1502.18 515.394 1503.97 516.586 1505.5 517.607C1507.37 518.884 1509.07 519.905 1512.31 519.65L1512.31 519.139C1509.24 519.394 1507.71 518.458 1505.84 517.181C1504.22 516.075 1502.35 514.883 1499.28 514.458C1494.94 513.777 1492.65 515.224 1490.18 516.756C1488.39 517.777 1486.6 518.969 1483.96 519.394C1470.6 521.777 1446.01 515.564 1433.41 510.117C1420.22 504.5 1411.54 496.074 1403.11 487.988C1397.58 482.711 1392.56 480.584 1388.13 481.69C1378.85 483.988 1373.75 499.649 1369.92 511.053C1369.63 512.018 1369.32 512.954 1368.98 513.862C1367.96 516.926 1366.6 520.075 1365.32 523.139C1363.02 528.416 1360.64 533.863 1359.7 539.566C1359.28 542.545 1359.02 545.183 1359.02 547.311C1359.02 550.885 1359.62 553.183 1360.89 554.375C1361.69 555.113 1362.68 555.425 1363.87 555.311C1368.81 555.056 1376.81 548.077 1384.47 541.353C1390.43 536.161 1395.96 531.31 1399.53 530.033C1417.15 523.99 1437.41 522.033 1459.88 524.246C1463.54 524.586 1467.28 525.267 1471.03 526.033C1475.45 526.884 1480.05 527.82 1484.56 527.991C1487.45 528.161 1490.35 527.82 1493.16 527.48C1498.26 526.884 1503.2 526.373 1508.05 528.416C1509.84 529.182 1511.03 530.289 1512.22 531.395Z" fill="#CA9050"/>
<path d="M1512.31 558.716L1512.31 557.439C1503.11 554.801 1493.07 553.013 1482.01 551.907C1462.86 550.035 1437.75 548.332 1413.49 552.248C1395.79 555.141 1387.96 560.844 1387.96 570.887C1387.96 577.355 1391.02 584.76 1394.6 593.356C1397.15 599.399 1399.7 605.527 1401.58 612.166C1401.75 612.79 1401.92 613.442 1402.09 614.123C1407.19 632.933 1407.88 654.211 1404.22 676.68C1403.28 682.723 1401.58 688.851 1399.96 694.809C1397.49 703.49 1395.02 712.427 1394.68 721.448C1394.43 726.385 1394.94 729.874 1396.22 732.343C1399.79 739.577 1408.81 736.088 1418.34 732.343C1423.96 730.13 1429.83 727.917 1435.03 727.491C1462.77 725.534 1488.14 741.024 1512.31 761.536L1512.31 760.004C1488.14 739.662 1462.86 724.342 1434.94 726.3C1429.49 726.725 1423.62 729.023 1417.92 731.236C1408.47 734.896 1400.39 738.13 1397.24 731.832C1396.1 729.562 1395.65 726.129 1395.87 721.533C1396.22 712.597 1398.68 703.745 1401.07 695.149C1402.68 689.191 1404.39 682.978 1405.41 676.935C1409.07 654.211 1408.39 632.763 1403.28 613.783C1403.11 613.159 1402.94 612.506 1402.77 611.825C1400.81 605.187 1398.26 598.973 1395.7 592.931C1392.21 584.419 1389.15 577.1 1389.15 570.887C1389.15 561.61 1396.73 556.163 1413.66 553.439C1437.75 549.524 1462.77 551.226 1481.92 553.099C1492.99 554.205 1503.11 555.992 1512.31 558.716Z" fill="#CA9050"/>
<path d="M1463.62 621.869C1463.62 624.167 1463.96 626.805 1464.64 629.954C1465.33 633.103 1466.01 636.082 1466.35 638.806C1466.94 643.317 1467.2 647.742 1467.45 651.657C1467.71 656.168 1468.9 660.169 1471.11 663.913C1480.39 679.829 1499.37 686.383 1507.03 688.511C1508.9 689.021 1510.69 689.532 1512.31 690.042L1512.31 689.532C1510.69 689.021 1508.99 688.511 1507.2 688C1499.54 685.957 1480.73 679.404 1471.54 663.658C1469.41 659.998 1468.22 655.998 1467.96 651.572C1467.71 647.742 1467.45 643.317 1466.86 638.721C1466.52 635.997 1465.84 633.018 1465.16 629.869C1464.47 626.72 1464.13 624.167 1464.13 621.869C1464.13 618.124 1465.07 615.485 1467.11 613.868C1470.01 611.485 1475.28 611.145 1483.62 612.847L1484.99 613.102C1496.48 615.315 1505.41 619.23 1512.31 625.358L1512.31 624.762C1505.33 618.719 1496.56 614.804 1485.07 612.591L1483.71 612.336C1475.2 610.634 1469.84 610.974 1466.77 613.528C1464.64 615.23 1463.62 617.953 1463.62 621.869Z" fill="#CA9050"/>
<path d="M1481.58 625.188C1479.03 626.465 1477.75 629.273 1477.75 633.614C1477.75 634.692 1477.84 635.884 1478.01 637.189C1478.69 642.21 1478.94 646.891 1479.2 650.977C1479.28 652.253 1479.45 653.36 1479.79 654.466C1480.13 655.743 1480.65 656.849 1481.24 658.041C1486.69 667.233 1502.52 678.127 1512.31 678.468L1512.31 677.617C1502.86 677.276 1487.2 666.382 1482.01 657.615C1481.41 656.509 1480.9 655.403 1480.56 654.211C1480.3 653.19 1480.13 652.083 1480.05 650.892C1479.79 646.806 1479.54 642.125 1478.86 637.104C1478.09 631.231 1479.11 627.401 1481.92 625.954C1485.84 623.997 1493.24 626.295 1501.33 632.082C1505.75 635.231 1509.33 639.487 1512.31 645.104L1512.31 643.317C1509.41 638.295 1506.01 634.38 1501.84 631.401C1493.33 625.358 1485.75 623.06 1481.58 625.188Z" fill="#CA9050"/>
<path d="M1450.35 614.719C1450.35 620.506 1451.79 626.89 1452.98 632.592C1453.67 635.486 1454.26 638.21 1454.52 640.337C1455.11 644.508 1455.37 648.508 1455.54 652.338C1456.05 660.424 1456.47 667.998 1459.88 674.041C1462.69 678.893 1467.2 682.467 1473.84 684.85C1485.75 689.276 1499.03 694.638 1512.31 702.298L1512.31 701.702C1499.11 694.128 1485.84 688.766 1474.01 684.425C1467.54 682.042 1463.03 678.552 1460.3 673.786C1456.98 667.828 1456.56 660.338 1456.05 652.338C1455.88 648.423 1455.62 644.423 1455.03 640.337C1454.77 638.124 1454.18 635.316 1453.49 632.422C1452.3 626.805 1450.86 620.506 1450.86 614.719C1450.86 609.102 1452.22 605.101 1455.03 602.548C1461.92 596.335 1477.58 599.399 1486.01 601.101L1487.28 601.356C1496.99 603.314 1505.24 606.378 1512.31 610.719L1512.31 610.123C1505.24 605.867 1497.07 602.803 1487.37 600.846L1486.09 600.59C1477.58 598.888 1461.75 595.739 1454.69 602.208C1451.79 604.846 1450.35 608.931 1450.35 614.719Z" fill="#CA9050"/>
<path d="M1512.31 746.556L1512.31 745.364C1510.09 743.236 1507.97 741.449 1506.09 740.087C1480.65 721.278 1457.07 712.937 1434.09 714.639C1425.15 715.235 1419.28 714.128 1416.05 711.234C1414 709.447 1412.98 706.809 1412.98 703.234C1412.98 698.297 1414.85 692.17 1416.9 685.701C1418.68 679.828 1420.56 673.786 1421.24 667.998C1421.66 663.742 1421.92 659.402 1421.92 654.891C1421.92 640.422 1419.62 626.719 1417.15 612.25C1416.76 609.81 1416.36 607.342 1415.96 604.846L1415.96 604.675C1415.11 599.569 1414.17 593.781 1414.17 588.164C1414.17 577.61 1417.66 570.801 1424.9 567.397C1440.05 560.418 1458.26 562.375 1474.35 564.077C1476.5 564.304 1478.66 564.531 1480.82 564.758C1492.56 565.95 1502.94 567.907 1512.31 570.971L1512.31 570.035C1502.94 567.056 1492.56 565.099 1480.9 563.907C1478.74 563.68 1476.59 563.453 1474.43 563.226C1458.26 561.524 1439.88 559.481 1424.56 566.631C1416.98 570.205 1413.32 577.184 1413.32 588.164C1413.32 593.866 1414.26 599.654 1415.11 604.846L1415.11 605.016C1415.51 607.456 1415.9 609.895 1416.3 612.335C1418.77 626.804 1421.07 640.507 1421.07 654.891C1421.07 659.402 1420.81 663.657 1420.39 667.913C1419.71 673.615 1417.83 679.658 1416.05 685.446C1414.09 691.999 1412.13 698.127 1412.13 703.234C1412.13 707.064 1413.24 709.873 1415.45 711.915C1418.85 714.979 1424.98 716.086 1434.17 715.405C1456.9 713.788 1480.3 722.129 1505.58 740.768C1507.63 742.215 1509.84 744.172 1512.31 746.556Z" fill="#CA9050"/>
<path d="M1426.77 596.25C1426.77 599.825 1427.2 604.08 1428.22 610.379C1430.94 626.209 1432.13 641.955 1432.13 659.998C1432.13 664.509 1432.05 669.105 1431.96 674.127C1431.88 675.914 1431.88 677.446 1431.88 678.808C1431.88 687.149 1432.81 692 1435.28 695.575C1438.26 699.83 1443.45 702.384 1452.64 704.001C1473.75 707.916 1492.73 716.342 1512.31 730.641L1512.31 730.045C1492.82 715.831 1473.84 707.405 1452.73 703.575C1443.71 701.873 1438.6 699.405 1435.71 695.234C1433.32 691.745 1432.39 686.979 1432.39 678.808C1432.39 677.446 1432.39 675.914 1432.47 674.127C1432.56 669.105 1432.64 664.509 1432.64 659.998C1432.64 641.955 1431.45 626.209 1428.73 610.294C1427.71 603.995 1427.28 599.825 1427.28 596.25C1427.28 585.952 1430.69 578.632 1447.45 575.994C1463.54 573.611 1480.48 575.738 1491.97 578.036C1499.28 579.483 1506.09 581.441 1512.31 583.994L1512.31 583.484C1506.09 580.93 1499.37 578.973 1492.05 577.526C1480.56 575.228 1463.54 573.1 1447.37 575.483C1432.73 577.781 1426.77 583.739 1426.77 596.25Z" fill="#CA9050"/>
<path d="M1439.54 603.229C1439.54 604.818 1439.68 606.52 1439.96 608.336C1442.26 621.868 1443.62 636.337 1443.96 651.402C1444.05 654.891 1443.96 658.296 1443.88 661.53C1443.79 663.658 1443.79 665.7 1443.79 667.658C1443.79 673.786 1444.22 680.169 1447.71 685.021C1450.52 689.106 1455.28 692 1462.09 693.872C1480.73 698.979 1497.24 706.298 1512.31 716.171L1512.31 715.576C1497.24 705.788 1480.82 698.468 1462.26 693.362C1455.54 691.489 1450.86 688.68 1448.13 684.765C1444.73 679.999 1444.3 673.701 1444.3 667.658C1444.3 665.7 1444.3 663.658 1444.39 661.53C1444.47 658.296 1444.56 654.891 1444.47 651.402C1444.13 636.337 1442.77 621.868 1440.47 608.25C1439.2 600.505 1440.73 594.718 1445.15 591.143C1455.11 582.887 1477.58 587.313 1489.58 589.696C1498.01 591.398 1505.58 593.867 1512.31 597.101L1512.31 596.505C1505.58 593.271 1498.09 590.888 1489.75 589.186C1477.58 586.802 1455.03 582.377 1444.81 590.718C1441.32 593.611 1439.54 597.782 1439.54 603.229Z" fill="#CA9050"/>
</g>
</svg>
