<svg width="460" height="489" viewBox="0 0 460 489" fill="none" xmlns="http://www.w3.org/2000/svg">
<path d="M351.59 434.681C366.155 424.215 378.068 408.678 380.259 390.788C383.729 362.16 361.995 334.67 366.719 306.17C368.545 295.398 374.08 285.548 380.17 276.48C407.766 235.103 450.614 196.915 448.168 147.305C447.113 125.732 437.224 105.521 424.711 87.9391C412.056 69.9807 396.402 53.8894 377.222 43.053C320.873 11.2996 243.853 35.5787 205.295 87.6092C187.545 111.517 176.455 140.271 156.118 162.012C130.48 189.551 93.5318 202.801 60.0804 219.941C49.6599 225.306 39.1753 231.298 32.0632 240.625C24.7628 250.022 21.6436 261.93 19.2689 273.643C14.5838 296.44 12.3514 320.937 21.8616 342.197C34.3872 370.286 64.0369 385.906 91.7279 399.424C137.348 421.839 190.107 459.474 239.894 470.36C273.74 477.714 325.048 453.343 351.59 434.681Z" stroke="#EBEBEB" stroke-width="1.2614" stroke-miterlimit="10"/>
<path d="M341.811 425.802C354.588 416.874 365.079 403.727 368.08 388.546C368.244 387.536 368.41 386.497 368.58 385.427C371.821 359.04 351.866 333.634 355.725 307.401C357.11 297.399 361.926 288.381 367.324 279.876C390.714 243.322 427.761 209.613 428.778 166.878C428.842 165.073 428.819 163.229 428.71 161.346C427.82 141.692 418.752 123.195 407.447 107.095C395.98 90.7982 381.901 76.1358 364.61 66.3077C335.698 49.6763 300.582 49.4378 269.24 60.9969C245.526 69.7128 224.271 85.3822 208.932 105.189C202.36 113.664 196.558 122.581 190.997 131.794C182.08 146.37 173.665 161.36 162.144 173.948C157.138 179.505 151.658 184.379 145.857 188.858C132.189 199.416 116.598 207.513 100.614 215.027C91.2806 219.507 81.8847 223.709 72.7119 228.386C62.8842 233.269 53.0728 238.877 46.3834 247.613C39.802 256.178 36.9903 266.85 34.7348 277.397C30.5476 297.981 28.4546 320.228 37.0013 339.397C48.2596 364.82 74.8821 379.044 99.6885 391.542C120.617 402.105 143.305 415.835 166.507 428.079C189.88 440.431 213.757 451.385 236.867 456.555C268.92 463.726 316.364 443.488 341.811 425.802Z" stroke="#EBEBEB" stroke-width="1.2614" stroke-miterlimit="10"/>
<path d="M332.13 416.842C343.91 408.808 353.565 396.753 356.429 382.917C356.586 381.967 356.744 381.017 356.901 380.067C360.012 355.841 341.738 332.598 344.641 308.623C345.755 299.498 349.781 291.125 354.568 283.282C374.831 249.85 408.384 219.316 409.366 180.472C409.411 178.846 409.4 177.184 409.332 175.487C408.438 157.644 400.281 140.87 390.093 126.243C379.994 111.625 367.391 98.4725 351.999 89.563C326.194 74.4267 295.005 73.865 266.815 83.8441C245.568 91.4538 226.656 105.461 212.48 122.76C206.349 130.465 200.558 138.387 195.178 146.713C186.659 160.061 178.801 174.021 168.25 185.984C163.648 191.129 158.644 195.78 153.319 200.036C140.709 209.978 126.249 217.647 111.405 224.643C102.655 228.73 93.843 232.539 85.2538 236.823C76.0993 241.322 66.9612 246.546 60.7933 254.611C54.8504 262.245 52.2384 271.85 50.2812 281.25C46.4127 299.603 44.6567 319.439 52.1409 336.597C62.132 359.355 85.7274 372.182 107.658 383.572C126.741 393.583 147.648 406.136 168.988 417.102C190.588 428.186 212.603 437.863 233.84 442.751C264.2 449.658 307.421 433.517 332.13 416.842Z" stroke="#EBEBEB" stroke-width="1.2614" stroke-miterlimit="10"/>
<path d="M322.359 407.873C333.232 400.743 342.131 389.878 344.696 377.189C344.901 376.365 345.05 375.504 345.141 374.608C348.193 352.731 331.689 331.662 333.656 309.764C334.409 301.508 337.636 293.868 341.722 286.678C358.939 256.467 389.105 228.938 389.863 194.056C389.949 192.615 389.95 191.136 389.863 189.618C389.047 173.685 381.899 158.554 372.828 145.399C363.918 132.443 352.88 120.809 339.396 112.728C316.78 99.1858 289.348 98.193 264.379 106.781C245.609 113.194 228.961 125.44 216.108 140.429C210.247 147.257 204.557 154.192 199.349 161.721C191.147 173.743 183.928 186.772 174.275 197.921C170.098 202.747 165.573 207.145 160.699 211.115C149.23 220.539 135.891 227.871 122.116 234.161C114.03 237.953 105.801 241.369 97.8941 245.18C89.314 249.375 80.8583 254.125 75.1131 261.599C69.8984 268.311 67.5847 276.77 65.8363 285.014C62.3669 301.233 60.8584 318.65 67.3606 333.896C76.004 353.89 96.5722 365.321 115.708 375.7C132.955 385.07 151.981 396.525 171.549 406.224C191.206 415.932 211.449 424.341 230.903 428.956C259.469 435.68 298.576 423.465 322.359 407.873Z" stroke="#EBEBEB" stroke-width="1.1713" stroke-miterlimit="10"/>
<path d="M312.679 398.914C322.554 392.678 330.618 382.905 333.045 371.561C333.244 370.796 333.383 370.025 333.463 369.248C336.294 349.522 321.561 330.627 322.662 310.995C323.055 303.609 325.58 296.621 328.966 290.084C343.056 262.995 369.737 238.551 370.441 207.739C370.456 206.412 370.441 205.083 370.396 203.75C369.754 189.646 363.428 176.229 355.564 164.557C347.932 153.27 338.38 143.056 326.785 135.984C307.366 123.945 283.683 122.611 262.043 129.637C245.741 134.945 231.257 145.51 219.745 158.009C214.146 164.049 208.566 169.909 203.611 176.738C195.626 187.515 189.064 199.433 180.39 209.868C176.609 214.372 172.532 218.514 168.161 222.294C157.742 231.191 145.543 238.005 132.907 243.778C125.404 247.177 117.759 250.199 110.436 253.617C102.539 257.338 94.756 261.705 89.4334 268.588C85.0275 274.477 82.9317 281.69 81.3829 288.867C78.331 302.775 76.971 317.852 82.5004 331.096C89.7778 348.505 107.328 358.45 123.669 367.819C139.07 376.639 156.324 386.826 174.119 395.256C191.905 403.776 210.206 410.81 227.876 415.152C254.749 421.612 289.633 413.494 312.679 398.914Z" stroke="#EBEBEB" stroke-width="1.1713" stroke-miterlimit="10"/>
<path d="M302.989 390.044C311.787 384.603 319.095 376.022 321.394 365.932C321.527 365.221 321.657 364.54 321.784 363.889C324.476 346.412 311.522 329.601 311.579 312.217C311.62 305.61 313.436 299.365 316.12 293.481C327.164 269.613 350.369 248.165 351.028 221.333C351.025 220.186 350.992 219.035 350.928 217.881C350.373 205.598 345.037 194.003 338.21 183.704C331.848 174.178 323.87 165.393 314.174 159.239C297.862 148.696 278.116 146.949 259.617 152.485C245.793 156.596 233.553 165.58 223.382 175.59C218.046 180.84 212.566 185.714 207.783 191.747C200.205 201.206 194.111 212.086 186.416 221.805C183.089 225.994 179.432 229.876 175.542 233.373C166.352 241.763 155.194 248.139 143.618 253.296C136.878 256.32 129.808 259.039 122.978 262.054C115.754 265.391 108.654 269.285 103.834 275.675C100.076 280.544 98.2788 286.61 96.8491 292.622C94.286 304.406 93.1734 317.063 97.7299 328.306C103.651 343.04 118.164 351.679 131.639 359.849C145.284 368.127 160.667 377.126 176.6 384.279C192.614 391.532 209.053 397.288 224.85 401.348C250.019 407.634 280.789 403.443 302.989 390.044Z" stroke="#EBEBEB" stroke-width="1.1713" stroke-miterlimit="10"/>
<path d="M293.218 381.075C301.109 376.538 307.67 369.057 309.742 360.303C309.863 359.711 309.987 359.09 310.114 358.439C312.577 343.203 301.394 328.565 300.584 313.448C300.265 307.71 301.281 302.198 303.355 296.976C311.362 276.239 331 257.778 331.526 234.917C331.564 233.955 331.572 232.99 331.55 232.022C331.08 221.558 326.565 211.677 320.945 202.861C315.772 194.996 309.36 187.729 301.571 182.404C288.448 173.455 272.45 171.367 257.28 175.341C245.834 178.337 235.768 185.55 227.019 193.169C221.944 197.632 216.565 201.52 211.964 206.665C204.693 214.888 199.238 224.836 192.441 233.742C189.509 237.608 186.427 241.188 183.003 244.551C174.873 252.324 164.926 258.372 154.409 262.912C148.253 265.543 141.766 267.869 135.61 270.5C128.978 273.355 122.551 276.864 118.154 282.664C115.115 286.7 113.526 291.61 112.395 296.476C110.24 306.037 109.366 316.363 112.869 325.506C117.523 337.575 128.91 344.897 139.599 351.968C151.399 359.695 165.089 367.525 179.161 373.401C193.322 379.286 207.89 383.855 221.921 387.463C245.2 393.646 271.854 393.382 293.218 381.075Z" stroke="#EBEBEB" stroke-width="1.1713" stroke-miterlimit="10"/>
<path d="M283.537 372.115C290.341 368.463 296.146 362.174 298.1 354.584C298.208 354.112 298.32 353.61 298.435 353.079C300.758 340.093 291.345 327.629 289.509 314.58C288.919 309.72 289.226 304.951 290.509 300.372C295.55 282.955 311.632 267.391 312.112 248.511C312.132 247.728 312.122 246.942 312.082 246.153C311.688 237.599 308.183 229.361 303.591 222.009C299.696 215.814 294.858 209.976 288.96 205.66C279.033 198.214 266.882 195.704 254.854 198.188C245.876 200.078 237.813 205.413 230.557 210.83C225.762 214.325 220.565 217.326 216.135 221.673C209.181 228.57 204.374 237.498 198.555 245.688C196.019 249.233 193.322 252.58 190.384 255.631C183.393 262.886 174.577 268.506 165.11 272.52C159.627 274.767 153.723 276.699 148.151 278.937C142.103 281.398 136.448 284.443 132.474 289.652C130.163 292.767 128.873 296.53 127.95 300.239C126.114 307.569 125.568 315.574 128.098 322.716C131.395 332.109 139.737 338.215 147.649 344.096C157.504 351.353 169.432 357.825 181.731 362.433C194.03 367.041 206.736 370.333 218.894 373.659C240.469 379.668 262.839 383.223 283.537 372.115Z" stroke="#EBEBEB" stroke-width="1.0812" stroke-miterlimit="10"/>
<path d="M273.767 363.146C279.672 360.308 284.632 355.199 286.358 348.945C286.521 348.539 286.623 348.127 286.666 347.709C288.949 336.893 281.217 326.593 278.515 315.81C277.484 311.72 277.161 307.792 277.752 303.777C279.926 289.599 292.344 277.102 292.69 262.193C292.698 261.53 292.672 260.893 292.614 260.283C292.396 253.559 289.711 247.035 286.317 241.254C283.62 236.631 280.348 232.312 276.348 228.914C269.619 222.973 261.216 220.122 252.518 221.044C245.918 221.818 239.868 225.185 234.194 228.409C229.58 231.017 224.564 233.13 220.396 236.689C213.75 242.35 209.501 250.248 204.581 257.625C202.529 260.857 200.308 263.981 197.756 266.799C191.914 273.447 184.219 278.729 175.82 282.037C171.001 283.989 165.691 285.439 160.782 287.383C155.318 289.451 150.256 292.013 146.884 296.649C145.211 298.833 144.22 301.449 143.496 304.092C142.069 309.199 141.68 314.775 143.238 319.915C145.267 326.644 150.375 331.604 155.619 336.125C163.61 343.01 173.765 348.214 184.211 351.455C194.738 354.796 205.573 356.899 215.867 359.854C235.74 365.689 253.923 372.982 273.767 363.146Z" stroke="#EBEBEB" stroke-width="1.0812" stroke-miterlimit="10"/>
<path d="M264.087 354.187C268.914 352.144 273.199 348.325 274.707 343.317C278.491 331.115 265.596 319.925 264.907 307.174C264.393 296.254 272.976 286.716 273.188 275.778C273.37 270.453 271.374 265.177 268.964 260.403C265.054 252.576 258.786 244.78 250.092 243.892C245.969 243.47 241.851 244.77 237.832 245.99C233.247 247.423 228.564 248.937 224.578 251.609C215.608 257.847 211.907 269.242 205.227 277.888C200.426 284.1 193.871 288.864 186.611 291.654C177.666 294.996 166.878 295.977 161.204 303.638C155.944 310.799 157.839 321.499 163.58 328.244C169.41 334.999 178.108 338.515 186.773 340.578C195.447 342.551 204.419 343.378 212.841 346.05C230.911 351.792 244.837 362.635 264.087 354.187Z" stroke="#EBEBEB" stroke-width="1.0812" stroke-miterlimit="10"/>
</svg>
