<svg width="288" height="413" viewBox="0 0 288 413" fill="none" xmlns="http://www.w3.org/2000/svg">
<path d="M327.415 53.8294C338.407 65.9702 346.118 82.0487 344.641 98.3731C342.345 124.459 317.817 144.886 316.668 171.136C316.176 181.144 319.293 190.906 322.985 200.176C339.719 242.176 370.728 284.341 359.161 328.064C354.157 347.096 341.524 363.174 327.086 376.546C312.403 390.081 295.422 401.483 276.308 407.472C220.116 425.191 156.049 388.933 131.603 335.365C120.282 310.673 115.771 283.028 101.825 259.731C84.188 230.446 53.836 211.66 27.2574 190.086C18.9721 183.359 10.7689 175.976 6.1751 166.378C1.49924 156.616 0.924974 145.378 1.00701 134.549C1.17107 113.385 3.79609 91.0722 16.265 73.9274C32.7536 51.2864 62.1212 43.0011 89.356 36.1924C134.228 24.8719 188.369 1.24662 234.636 1.00052C266.218 0.836453 307.317 32.2548 327.415 53.8294Z" stroke="#EBEBEB" stroke-width="1.14846" stroke-miterlimit="10"/>
<path d="M138.083 320.353C133.161 309.935 129.305 299.025 125.45 288.114C121.02 275.317 116.59 262.52 109.699 250.872C103.055 239.633 94.6054 230.035 85.1717 221.176C71.5543 208.461 55.886 197.386 41.2842 185.656C33.5732 179.421 25.8622 172.613 21.3504 163.835C16.7566 154.894 15.8542 144.64 15.6901 134.632C15.6901 134.03 15.6901 133.456 15.6901 132.909C15.6081 113.713 18.5613 93.6153 29.9638 78.2752C45.2219 57.8491 71.9644 50.2201 96.7382 44.0677C106.008 41.7708 115.688 38.8996 125.696 35.8644C159.739 25.4463 196.654 12.9773 229.385 12.7312C259.327 12.403 297.718 39.3097 317.078 59.9819C326.758 70.236 333.566 84.0175 333.402 98.045C333.402 99.0294 333.348 99.9865 333.238 100.916C331.187 125.034 308.628 143.901 307.07 168.019C306.496 177.124 309.039 186.148 312.238 194.679C326.101 231.676 352.762 268.673 345.625 306.982C345.297 308.623 344.942 310.236 344.559 311.822C339.965 329.213 328.398 343.979 315.273 356.202C302.066 368.506 286.726 378.925 269.499 384.421C240.541 393.772 209.287 387.374 183.447 371.131C164.087 358.827 148.009 340.943 138.083 320.353Z" stroke="#EBEBEB" stroke-width="1.14846" stroke-miterlimit="10"/>
<path d="M144.647 305.341C139.889 295.99 135.951 286.228 132.26 276.22C127.912 264.571 123.728 252.758 117.576 241.93C111.587 231.594 103.958 222.488 95.4271 214.285C83.1222 202.308 68.8485 191.972 55.3131 181.144C48.0943 175.484 40.8754 169.331 36.4456 161.374C32.0159 153.253 30.7854 143.983 30.4573 134.714C30.4026 134.167 30.3753 133.62 30.3753 133.073C29.8831 115.436 33.0003 96.7325 43.7466 82.6229C57.6921 64.3297 81.7276 57.4389 104.122 51.9428C112.572 49.8919 121.349 47.3489 130.291 44.7238C161.135 35.6182 194.44 24.872 224.136 24.4618C252.437 24.0517 287.875 46.5286 306.743 66.0523C315.767 75.404 322.083 87.955 321.919 100.916C321.919 101.791 321.892 102.666 321.837 103.541C320.032 125.608 299.442 142.917 297.473 164.82C296.735 173.187 298.704 181.39 301.493 189.265C313.224 222.817 337.341 256.45 330.861 291.15C330.587 292.626 330.259 294.103 329.876 295.579C325.775 311.33 315.356 324.701 303.544 335.857C291.731 346.932 277.95 356.284 262.609 361.37C236.769 369.901 208.878 364.569 185.663 350.295C168.19 339.549 153.834 323.553 144.647 305.341Z" stroke="#EBEBEB" stroke-width="1.14846" stroke-miterlimit="10"/>
<path d="M151.209 290.411C146.697 281.962 142.677 273.349 139.068 264.325C134.802 253.743 130.947 242.997 125.368 232.989C120.036 223.473 113.392 215.023 105.763 207.312C94.7702 196.156 81.7271 186.558 69.3402 176.714C62.6955 171.546 55.8868 165.968 51.6211 158.913C47.2733 151.612 45.7968 143.245 45.1406 134.796C45.0859 134.303 45.0585 133.811 45.0585 133.319C44.1561 117.077 47.3554 99.8497 57.4455 86.9706C70.1605 70.8102 91.489 64.5758 111.587 59.8179C119.052 58.0132 126.927 55.7983 134.966 53.5014C162.529 45.7083 192.225 36.6847 218.803 36.1925C245.546 35.6182 278.113 53.8295 296.406 72.2048C304.692 80.5721 310.516 91.9746 310.434 103.705C310.434 104.526 310.406 105.319 310.352 106.084C308.875 126.182 290.254 141.85 287.875 161.702C286.972 169.167 288.449 176.632 290.746 183.769C300.344 213.957 322 244.227 316.094 275.399C315.875 276.712 315.575 278.024 315.192 279.337C311.5 293.447 302.313 305.505 291.73 315.513C281.394 325.357 269.253 333.643 255.8 338.318C233.077 346.029 208.467 341.764 187.877 329.459C172.373 320.189 159.74 306.162 151.209 290.411Z" stroke="#EBEBEB" stroke-width="1.06642" stroke-miterlimit="10"/>
<path d="M157.771 275.4C153.423 267.935 149.322 260.47 145.794 252.348C141.693 242.997 138.165 233.235 133.243 224.129C128.486 215.352 122.743 207.559 116.017 200.422C106.337 190.086 94.6882 181.062 83.3677 172.285C77.2153 167.609 70.9807 162.687 66.7971 156.37C62.5314 149.972 60.7267 142.589 59.8243 134.878C59.8243 134.44 59.797 134.003 59.7423 133.565C58.4298 118.799 61.7931 102.885 71.2269 91.3185C82.6294 77.373 101.251 71.7947 118.97 67.6931C125.615 66.1345 132.587 64.2477 139.642 62.361C163.924 55.7984 190.092 48.4975 213.553 47.9233C238.737 47.267 268.269 61.0484 286.07 78.3573C293.617 85.7402 298.949 95.9943 299.031 106.577C299.031 107.287 299.004 107.998 298.949 108.709C297.719 126.757 281.066 140.866 278.277 158.503C277.211 165.23 278.195 171.874 279.918 178.355C287.383 205.098 306.578 232.004 301.328 259.567C301.164 260.716 300.918 261.892 300.59 263.095C297.309 275.564 289.187 286.228 279.918 295.169C270.976 303.783 260.558 311.084 248.909 315.185C229.304 322.24 208.057 319.041 190.092 308.623C176.475 300.83 165.564 288.771 157.771 275.4Z" stroke="#EBEBEB" stroke-width="1.06642" stroke-miterlimit="10"/>
<path d="M164.334 260.387C160.15 253.907 156.048 247.59 152.603 240.454C148.583 232.25 145.384 223.473 141.119 215.188C137.017 207.312 132.095 200.094 126.271 193.531C117.903 183.933 107.649 175.648 97.3951 167.855C91.8169 163.671 85.9926 159.323 81.973 153.909C77.7893 148.331 75.6565 141.85 74.59 134.96C74.5353 134.577 74.4807 134.167 74.426 133.729C72.7033 120.44 76.1487 106.002 84.9262 95.7482C95.0983 83.8534 111.095 79.0134 126.353 75.5681C132.177 74.2556 138.165 72.779 144.236 71.2204C165.318 65.9703 187.877 60.3101 208.303 59.6538C231.846 58.8335 258.425 68.3492 275.652 84.5096C282.543 90.9082 287.465 100.014 287.547 109.366C287.547 110.022 287.547 110.678 287.547 111.334C286.562 127.331 271.878 139.882 268.679 155.386C267.449 161.292 267.859 167.116 269.171 172.859C274.503 196.238 291.156 219.781 286.644 243.817C286.425 244.801 286.179 245.786 285.906 246.77C283.117 257.68 276.144 267.032 268.105 274.825C260.64 282.208 251.862 288.443 242.101 292.134C225.612 298.369 207.647 296.236 192.225 287.868C180.658 281.552 171.306 271.38 164.334 260.387Z" stroke="#EBEBEB" stroke-width="1.06642" stroke-miterlimit="10"/>
<path d="M170.814 245.376C166.876 239.961 162.692 234.711 159.411 228.559C155.473 221.422 152.602 213.711 148.911 206.246C145.466 199.191 141.446 192.629 136.606 186.558C129.551 177.781 120.61 170.234 111.422 163.425C106.336 159.734 101.004 156.042 97.0662 151.448C93.0466 146.608 90.5857 141.194 89.2731 135.042C89.2185 134.659 89.1638 134.303 89.1091 133.975C86.9763 122.163 90.5857 109.037 98.7069 100.096C107.484 90.334 120.856 86.2324 133.817 83.4433C138.739 82.3769 143.743 81.2283 148.911 80.0799C166.712 76.0603 185.661 72.1227 202.97 71.3844C224.955 70.4 248.58 75.6501 265.315 90.5801C271.467 96.0763 275.897 103.951 276.061 112.237C276.116 112.784 276.116 113.33 276.061 113.877C275.405 127.987 262.69 138.897 259.081 152.269C257.768 157.273 257.604 162.359 258.424 167.445C261.706 187.379 275.733 207.476 271.878 227.985C271.714 228.86 271.522 229.707 271.303 230.528C268.924 239.797 263.018 247.754 256.374 254.481C250.303 260.634 243.166 265.884 235.209 269.083C221.838 274.579 207.236 273.431 194.439 267.032C184.759 262.192 177.048 253.989 170.814 245.376Z" stroke="#EBEBEB" stroke-width="1.06642" stroke-miterlimit="10"/>
<path d="M177.377 230.446C173.521 225.934 169.419 221.832 166.138 216.664C162.447 210.676 159.822 203.949 156.786 197.386C153.915 191.152 150.798 185.164 146.86 179.667C141.118 171.71 133.571 164.82 125.45 158.995C120.938 155.714 116.016 152.679 112.243 148.905C108.305 144.968 105.516 140.456 104.039 135.124C103.93 134.796 103.848 134.467 103.793 134.139C101.25 123.885 104.942 112.155 112.407 104.444C119.872 96.8145 130.618 93.4512 141.2 91.3184C145.22 90.498 149.403 89.6777 153.587 88.8574C168.189 86.1503 183.447 83.9354 197.721 83.1151C218.065 81.9667 238.737 82.951 254.979 96.7325C260.393 101.326 264.331 107.971 264.659 115.026C264.659 115.518 264.659 116.01 264.659 116.502C264.331 128.561 253.503 137.831 249.483 149.069C248.007 153.335 247.35 157.601 247.678 161.948C248.909 178.437 260.311 195.254 257.112 212.152C257.003 212.863 256.839 213.574 256.62 214.285C254.651 221.914 249.975 228.559 244.561 234.137C239.885 238.977 234.471 243.243 228.401 246.032C218.147 250.708 206.826 250.708 196.654 246.196C188.943 242.833 182.709 236.598 177.377 230.446Z" stroke="#EBEBEB" stroke-width="0.984391" stroke-miterlimit="10"/>
<path d="M183.939 215.434C180.165 211.988 176.064 208.953 172.947 204.77C169.337 199.93 167.04 194.187 164.661 188.445C162.446 183.031 160.232 177.617 157.196 172.777C152.767 165.558 146.532 159.323 139.477 154.566C135.458 151.776 131.11 149.398 127.419 146.444C123.481 143.327 120.446 139.8 118.723 135.206C118.614 134.932 118.532 134.659 118.477 134.386C115.524 125.526 119.215 115.19 126.188 108.791C132.258 103.213 140.38 100.67 148.665 99.1936C151.782 98.6194 154.981 98.1272 158.181 97.717C169.583 96.3224 181.314 95.6662 192.47 94.8458C211.256 93.4513 228.729 90.3341 244.643 102.885C249.319 106.495 252.846 111.991 253.174 117.897C253.229 118.28 253.256 118.663 253.256 119.045C253.174 129.135 244.315 136.847 239.885 145.952C238.244 149.316 237.178 152.843 236.932 156.534C236.194 169.496 244.889 183.031 242.346 196.402C242.237 196.949 242.127 197.496 242.018 198.043C240.459 204.031 236.85 209.281 232.748 213.875C229.549 217.403 225.694 220.602 221.51 222.899C214.373 226.918 206.416 227.903 198.787 225.442C193.127 223.555 188.287 219.371 183.939 215.434Z" stroke="#EBEBEB" stroke-width="0.984391" stroke-miterlimit="10"/>
<path d="M234.307 108.955C238.163 111.745 241.28 115.928 241.69 120.686C242.839 132.253 229.139 139.882 226.186 151.038C223.643 160.636 229.467 170.808 227.663 180.57C226.76 185.41 224.053 189.675 220.936 193.531C216.014 199.683 208.877 205.508 201.002 204.605C197.229 204.195 193.783 202.308 190.502 200.422C186.646 198.289 182.791 196.074 179.756 192.875C172.865 185.656 171.798 174.828 167.451 165.804C164.334 159.405 159.412 153.909 153.505 150.054C146.204 145.378 136.689 142.507 133.079 134.632C129.798 127.249 133.489 118.061 139.888 113.139C146.368 108.217 154.736 106.741 162.857 106.576C170.978 106.412 179.099 107.397 187.139 106.576C204.365 104.936 218.721 97.881 234.307 108.955Z" stroke="#EBEBEB" stroke-width="0.984391" stroke-miterlimit="10"/>
</svg>
