<svg width="196" height="62" viewBox="0 0 196 62" fill="none" xmlns="http://www.w3.org/2000/svg">
<g id="logo" clip-path="url(#clip0_70_364)">
<g id="Group 144">
<g id="Group 143">
<path id="Vector" d="M45.42 2H8.28C4.25937 2 1 5.25937 1 9.28V54.64C1 58.6606 4.25937 61.92 8.28 61.92H45.42C49.4406 61.92 52.7 58.6606 52.7 54.64V9.28C52.7 5.25937 49.4406 2 45.42 2Z" stroke="#BC8C5C" stroke-width="0.75" stroke-miterlimit="10"/>
<g id="b">
<path id="Vector_2" d="M17.6197 41.51C17.1897 39.58 16.4697 39.78 16.1397 39.76C15.8097 39.74 15.5597 39.95 15.2597 39.53C14.8197 38.93 13.7197 38.75 12.7797 38.68C11.4997 38.59 10.1697 38.62 9.78973 37.2L9.76973 37.11C9.73973 36.96 9.73973 36.67 9.71973 36.54C9.93973 37.14 10.2997 37.59 10.7997 37.89C11.3597 38.23 11.9497 38.26 12.1697 38.27C12.1897 38.27 12.2097 38.27 12.2297 38.27C12.6097 38.29 12.9797 38.27 13.8897 37.86C14.7897 37.44 15.1497 37.4 15.4997 37.48C15.6797 37.52 15.7497 37.6 15.8397 37.7C15.9197 37.8 16.0297 37.92 16.2397 38.04C16.4397 38.15 16.6197 38.19 16.7797 38.22C16.9797 38.26 17.1397 38.29 17.2797 38.46C17.5597 38.78 17.7697 39.06 17.9097 39.89C17.9797 40.3 18.1997 41.15 18.1497 41.45C18.0997 41.77 18.0797 42.34 17.9397 42.92" fill="url(#paint0_linear_70_364)"/>
</g>
<g id="d">
<path id="Vector_3" d="M17.5796 46.3204C17.5796 46.3204 17.6296 46.3204 17.6596 46.3204C17.6796 46.3204 17.6996 46.3204 17.7296 46.3004C17.7496 46.3004 17.7796 46.2804 17.7996 46.2704L17.8696 46.2404H17.8996L17.9296 46.2104L17.9996 46.1804C17.9996 46.1804 18.0196 46.1704 18.0196 46.1604C18.0196 46.1604 18.0196 46.1604 18.0196 46.1504C18.0196 46.1504 18.0296 46.1304 18.0396 46.1204C18.0596 46.1004 18.0696 46.0704 18.0696 46.0504C18.0696 46.0004 18.0696 45.9604 18.0596 45.9104C18.0096 45.6404 17.9696 45.1904 17.9296 44.5704C17.8996 44.0204 17.4496 42.3204 17.3696 41.9804C16.9496 40.1004 16.4496 40.0804 15.9296 40.0504C15.5996 40.0304 15.2596 40.0204 14.9296 39.5704C14.5096 39.0004 13.6396 38.9404 12.7096 38.8704C12.0696 38.8204 11.3996 38.7704 10.8396 38.5504C10.2796 38.3404 10.0396 37.9604 9.86957 37.5504C9.84957 37.5104 9.82957 37.4804 9.80957 37.4404C9.81957 37.5104 9.83957 37.5804 9.84957 37.6504C9.96957 38.2104 10.1096 38.7904 10.3296 39.1504C10.5396 39.4804 10.7896 39.7404 11.0996 39.9304C11.8196 40.3704 12.7896 40.4704 14.1796 40.5604C15.3196 40.6304 16.1796 41.1504 16.7496 42.0904C16.9396 42.4104 17.0696 42.7204 17.1096 43.0304C17.1596 43.4604 17.1896 43.8704 17.2096 44.0404" fill="url(#paint1_linear_70_364)"/>
</g>
<path id="Vector_4" d="M39.6704 14.1401C39.4804 15.4901 38.9804 16.6001 38.1504 17.4501C37.1604 18.4901 35.8404 19.0401 34.1904 19.1101C35.5004 18.6701 37.7204 16.2701 39.6704 14.1401Z" fill="#0000FF"/>
<g id="f">
<path id="Vector_5" d="M44.1001 16.04C44.0801 16.29 44.0801 16.53 44.0501 16.77C43.8501 18.77 43.6801 21.68 43.0501 23.02C42.4601 24.27 41.6801 25.26 40.6901 26.04C38.3701 27.87 35.0301 28.59 30.2201 29.48C26.2901 30.2 23.4901 32.35 21.9001 35.86C21.3701 37.03 21.0401 38.22 20.8301 39.29C20.5201 40.86 20.4901 42.16 20.4701 42.76C20.4701 42.83 20.4801 42.91 20.4901 42.98C20.4901 43.1 20.5101 43.23 20.5201 43.35C20.6101 44.38 20.7601 45.41 20.9601 46.43C21.1601 47.41 21.3901 48.18 21.6601 48.72C21.8301 49.04 21.9601 49.37 22.0601 49.71C22.1001 49.86 22.1001 50.02 22.0601 50.17C22.0201 50.27 21.9501 50.35 21.8501 50.42C21.7001 50.53 21.5401 50.63 21.3601 50.7C21.1701 50.78 20.9701 50.84 20.7601 50.89C20.6601 50.91 20.5601 50.92 20.4601 50.92C20.3801 50.92 20.3001 50.91 20.2301 50.89C20.1501 50.87 20.0801 50.85 20.0101 50.83L19.7601 50.75L19.6501 50.72L19.5301 50.69L19.2801 50.62C19.2201 50.6 19.2201 50.59 19.1901 50.56C19.1901 50.55 19.1701 50.54 19.1701 50.53C19.1501 50.5 19.1201 50.47 19.0701 50.43C19.0001 50.37 18.9501 50.28 18.9401 50.18C18.9201 50.02 18.9201 49.86 18.9201 49.7C18.9801 48.73 18.9501 47.14 18.8301 44.99C18.7201 43.05 19.5701 36.96 19.7401 35.75C20.4201 29.04 22.1501 28.75 23.9801 28.44C25.1201 28.25 26.2901 28.05 27.2501 26.38C28.4801 24.22 31.4501 23.34 34.6501 22.73C36.8701 22.3 39.2001 21.77 41.0501 20.77C42.7901 19.87 43.4901 18.2 43.9301 16.77C43.9701 16.63 44.0101 16.49 44.0401 16.35C44.0601 16.25 44.0801 16.16 44.1001 16.07V16.04Z" fill="url(#paint2_linear_70_364)"/>
</g>
<g id="h">
<path id="Vector_6" d="M40.9999 19.1603C39.1799 20.5603 37.1599 20.9103 36.3999 21.0403C36.3299 21.0503 36.2599 21.0603 36.2099 21.0703C34.8799 21.3103 33.5999 21.4103 30.2599 20.3103C26.9599 19.2203 25.6899 19.2303 24.5099 19.6303C23.8899 19.8403 23.6799 20.1403 23.4099 20.5503C23.1599 20.9203 22.8499 21.3803 22.1399 21.8803C21.4799 22.3503 20.8699 22.5503 20.3399 22.7303C19.6599 22.9503 19.1299 23.1303 18.6899 23.7603C17.8499 24.9803 17.2399 26.0603 17.0799 28.9903C16.9999 30.4503 17.2899 31.4303 17.5899 32.4703C17.8999 33.5603 18.2599 34.7903 18.2599 36.7403C18.2599 40.3303 17.3899 42.9903 17.2899 43.2803L17.6399 48.8303C17.6699 49.2903 17.9399 49.7003 18.3499 49.9003C18.3499 49.9003 18.3399 49.8403 18.3299 49.8103C18.3099 49.6403 18.3099 49.4603 18.3099 49.2903C18.3699 48.3203 18.3399 46.7503 18.2199 44.6003C18.1099 42.6303 18.9599 36.5203 19.1299 35.3203C19.8299 28.4203 21.7399 28.1003 23.5899 27.7903C24.7199 27.6003 25.7799 27.4203 26.6799 25.8503C27.9699 23.5903 31.0499 23.0003 34.2999 22.3803C38.7199 21.5303 43.2899 20.6603 44.0599 15.5603C44.0599 15.5603 44.0599 15.5603 44.0599 15.5503C44.1099 15.0103 44.1599 14.4903 44.1899 14.0103C43.6499 16.2003 42.5899 17.9203 40.9899 19.1403L40.9999 19.1603Z" fill="url(#paint3_linear_70_364)"/>
</g>
<path id="Vector_7" d="M40.6996 13.1902C40.5896 12.5102 40.3396 11.8602 39.9796 11.2602C39.6196 10.6602 39.1496 10.1602 38.5896 9.74015C38.0096 9.31015 37.3596 9.01015 36.6596 8.84015C35.9596 8.67015 35.2396 8.64015 34.5296 8.76015C33.8496 8.87015 33.1996 9.12015 32.5996 9.48015C32.0096 9.84015 31.4996 10.3102 31.0796 10.8702C30.6496 11.4502 30.3496 12.1002 30.1796 12.8002C30.0096 13.5002 29.9896 14.2202 30.0996 14.9302C30.2096 15.6102 30.4596 16.2602 30.8196 16.8602C31.1796 17.4502 31.6496 17.9602 32.2096 18.3802C32.7896 18.8102 33.4396 19.1102 34.1396 19.2802C34.8396 19.4502 35.5596 19.4802 36.2696 19.3602C36.9496 19.2502 37.5996 19.0002 38.1996 18.6402C38.7996 18.2802 39.2996 17.8102 39.7196 17.2502C40.1496 16.6702 40.4496 16.0202 40.6196 15.3202C40.7896 14.6202 40.8196 13.9002 40.6996 13.1902ZM32.8896 12.2302C31.7496 13.7202 31.7096 15.8202 32.4396 16.7302C30.9796 15.5202 30.8096 13.2002 32.0796 11.5502C33.3396 9.90015 35.5496 9.55015 37.0096 10.7602C35.6296 10.2002 34.0396 10.7402 32.8996 12.2302H32.8896Z" fill="url(#paint4_linear_70_364)"/>
</g>
<g id="Pristine">
<path id="Vector_8" d="M185.44 32.7684C183.867 32.7684 182.462 32.4719 181.225 31.879C179.987 31.2602 179.02 30.4224 178.324 29.3654C177.628 28.2826 177.28 27.071 177.28 25.7304V20.0073C177.28 18.6409 177.641 17.4035 178.363 16.2949C179.111 15.1864 180.103 14.3228 181.341 13.7041C182.604 13.0596 183.97 12.7373 185.44 12.7373C186.909 12.7373 188.25 13.0467 189.461 13.6654C190.699 14.2841 191.666 15.1348 192.362 16.2176C193.083 17.3004 193.444 18.5249 193.444 19.8913V22.3661C193.444 22.7786 193.29 23.1266 192.98 23.4102C192.671 23.6938 192.297 23.8356 191.859 23.8356H180.567V25.5757C180.567 26.8905 180.98 27.9475 181.805 28.7467C182.655 29.5459 183.867 29.9455 185.44 29.9455C187.012 29.9455 188.211 29.5974 189.036 28.9014C189.861 28.2053 190.273 27.2643 190.273 26.0785C191.047 26.0269 191.691 26.1816 192.207 26.5425C192.748 26.8776 193.019 27.3803 193.019 28.0506C193.019 28.8756 192.658 29.649 191.936 30.3708C191.24 31.0927 190.312 31.6727 189.152 32.111C187.992 32.5492 186.754 32.7684 185.44 32.7684ZM190.312 21.206V19.8913C190.312 18.6023 189.861 17.5582 188.959 16.759C188.082 15.934 186.909 15.5215 185.44 15.5215C183.97 15.5215 182.784 15.934 181.882 16.759C181.005 17.5582 180.567 18.6023 180.567 19.8913V21.206H190.312Z" fill="#CA9050"/>
<path id="Vector_9" d="M156.255 15.5989C156.255 13.6912 157.338 12.7373 159.503 12.7373V15.2122C159.271 15.4442 159 15.7922 158.691 16.2563L158.846 16.411C159.619 15.3282 160.625 14.4517 161.862 13.7814C163.099 13.0853 164.44 12.7373 165.884 12.7373C167.972 12.7373 169.622 13.356 170.833 14.5935C172.045 15.8309 172.651 17.4293 172.651 19.3885V30.2935C172.651 31.1442 172.367 31.7758 171.8 32.1883C171.259 32.575 170.421 32.7684 169.287 32.7684V19.7366C169.287 18.4991 168.939 17.5195 168.243 16.7977C167.547 16.0758 166.49 15.7149 165.072 15.7149C164.118 15.7149 163.215 15.9211 162.365 16.3336C161.54 16.7203 160.87 17.2617 160.354 17.9578C159.864 18.628 159.619 19.3628 159.619 20.1619V30.2935C159.619 31.1442 159.336 31.7758 158.768 32.1883C158.227 32.575 157.389 32.7684 156.255 32.7684V15.5989Z" fill="#CA9050"/>
<path id="Vector_10" d="M148.308 9.83717C147.586 9.83717 146.98 9.60515 146.491 9.14111C146.001 8.67707 145.756 8.09702 145.756 7.40096C145.756 6.7049 146.001 6.13774 146.491 5.69948C146.98 5.23544 147.586 5.00342 148.308 5.00342C149.004 5.00342 149.597 5.23544 150.087 5.69948C150.577 6.13774 150.822 6.7049 150.822 7.40096C150.822 8.09702 150.577 8.67707 150.087 9.14111C149.597 9.60515 149.004 9.83717 148.308 9.83717ZM146.607 15.2123C146.607 14.3616 146.877 13.7428 147.419 13.3561C147.986 12.9437 148.837 12.7374 149.971 12.7374V30.2936C149.971 31.1443 149.687 31.7759 149.12 32.1884C148.579 32.5751 147.741 32.7685 146.607 32.7685V15.2123Z" fill="#CA9050"/>
<path id="Vector_11" d="M138.082 32.7686C136.252 32.7686 134.885 32.253 133.983 31.2218C133.081 30.1648 132.63 28.7856 132.63 27.0841V15.7924H129.033C129.033 14.9159 129.227 14.2456 129.613 13.7816C130 13.3176 130.528 13.0855 131.199 13.0855H132.668V9.41189C132.668 8.56115 132.939 7.94243 133.48 7.55573C134.047 7.14325 134.885 6.93701 135.994 6.93701V13.0855H141.137C141.137 14.8901 140.325 15.7924 138.701 15.7924H136.032V26.9681C136.032 27.9993 136.213 28.734 136.574 29.1723C136.961 29.5847 137.644 29.791 138.623 29.791C139.526 29.791 140.376 29.559 141.176 29.0949C141.511 29.4301 141.678 29.8812 141.678 30.4484C141.678 31.0671 141.356 31.6085 140.712 32.0725C140.067 32.5366 139.191 32.7686 138.082 32.7686Z" fill="#CA9050"/>
<path id="Vector_12" d="M119.561 32.7684C118.246 32.7684 117.009 32.575 115.848 32.1883C114.688 31.7758 113.747 31.1958 113.026 30.4482C112.329 29.7005 111.981 28.824 111.981 27.8186C111.981 26.5812 112.729 25.9109 114.224 25.8078C114.482 27.2514 115.088 28.3213 116.042 29.0174C117.021 29.6877 118.259 30.0228 119.754 30.0228C121.249 30.0228 122.409 29.8037 123.234 29.3654C124.059 28.9271 124.472 28.2569 124.472 27.3546C124.472 26.7101 124.304 26.1945 123.969 25.8078C123.634 25.3953 123.093 25.0473 122.345 24.7637C121.623 24.4543 120.579 24.1578 119.213 23.8743C117.511 23.4876 116.158 23.0751 115.152 22.6368C114.147 22.1986 113.374 21.6185 112.832 20.8967C112.317 20.1748 112.059 19.221 112.059 18.0351C112.059 17.0297 112.368 16.1274 112.987 15.3282C113.606 14.5032 114.456 13.8716 115.539 13.4334C116.648 12.9693 117.898 12.7373 119.29 12.7373C120.579 12.7373 121.791 12.9178 122.925 13.2787C124.085 13.6396 125.013 14.1552 125.709 14.8255C126.431 15.4958 126.792 16.2692 126.792 17.1457C126.792 17.7386 126.56 18.2156 126.096 18.5765C125.632 18.9116 124.987 19.105 124.162 19.1565C124.085 18.0222 123.621 17.1328 122.77 16.4883C121.945 15.818 120.785 15.4829 119.29 15.4829C118.053 15.4829 117.073 15.7149 116.351 16.1789C115.629 16.643 115.268 17.2617 115.268 18.0351C115.268 18.8601 115.604 19.4788 116.274 19.8913C116.97 20.278 118.143 20.6518 119.793 21.0127C122.5 21.5541 124.485 22.3017 125.748 23.2555C127.037 24.1836 127.681 25.5113 127.681 27.2386C127.681 28.9916 126.973 30.3579 125.555 31.3376C124.137 32.2914 122.139 32.7684 119.561 32.7684Z" fill="#CA9050"/>
<path id="Vector_13" d="M104.616 9.83717C103.894 9.83717 103.288 9.60515 102.798 9.14111C102.308 8.67707 102.063 8.09702 102.063 7.40096C102.063 6.7049 102.308 6.13774 102.798 5.69948C103.288 5.23544 103.894 5.00342 104.616 5.00342C105.312 5.00342 105.905 5.23544 106.395 5.69948C106.884 6.13774 107.129 6.7049 107.129 7.40096C107.129 8.09702 106.884 8.67707 106.395 9.14111C105.905 9.60515 105.312 9.83717 104.616 9.83717ZM102.914 15.2123C102.914 14.3616 103.185 13.7428 103.726 13.3561C104.293 12.9437 105.144 12.7374 106.279 12.7374V30.2936C106.279 31.1443 105.995 31.7759 105.428 32.1884C104.886 32.5751 104.049 32.7685 102.914 32.7685V15.2123Z" fill="#CA9050"/>
<path id="Vector_14" d="M95.7654 15.7149C94.3217 15.7149 93.123 16.1532 92.1691 17.0297C91.2152 17.8804 90.7383 18.9245 90.7383 20.1619V30.2935C90.7383 31.1442 90.4547 31.7758 89.8876 32.1883C89.3462 32.575 88.5083 32.7684 87.374 32.7684V15.5989C87.374 13.6912 88.4568 12.7373 90.6223 12.7373V15.0962C90.2098 15.5344 89.9262 15.9211 89.7716 16.2563L89.9262 16.411C91.5762 13.9619 93.6386 12.7373 96.1134 12.7373C97.0415 12.7373 97.7505 12.9693 98.2403 13.4334C98.7301 13.8716 98.975 14.413 98.975 15.0575C98.975 15.5215 98.859 15.934 98.627 16.2949C97.9052 15.9082 96.9513 15.7149 95.7654 15.7149Z" fill="#CA9050"/>
<path id="Vector_15" d="M62.4873 7.05304C62.4873 6.56322 62.6549 6.16363 62.99 5.85427C63.3509 5.51913 63.8021 5.35156 64.3435 5.35156H75.6351C77.3366 5.35156 78.8447 5.71248 80.1595 6.43432C81.4743 7.13038 82.4926 8.12291 83.2144 9.41191C83.9363 10.6751 84.2972 12.1317 84.2972 13.7816C84.2972 15.4831 83.9363 16.9783 83.2144 18.2673C82.5184 19.5563 81.5129 20.5489 80.1982 21.2449C78.8834 21.941 77.3624 22.289 75.6351 22.289H66.1223V29.7523C66.1223 30.732 65.8129 31.4796 65.1942 31.9952C64.5755 32.5108 63.6732 32.7686 62.4873 32.7686V7.05304ZM75.6351 19.0794C77.1819 19.0794 78.4065 18.6154 79.3088 17.6873C80.2111 16.7334 80.6622 15.4315 80.6622 13.7816C80.6622 12.1833 80.1982 10.92 79.2701 9.99196C78.3678 9.0381 77.1561 8.56117 75.6351 8.56117H66.1223V19.0794H75.6351Z" fill="#CA9050"/>
</g>
<g id="Medical Center">
<path id="Vector_16" d="M120.491 42.5245C120.167 42.5245 119.898 42.6228 119.684 42.8193C119.471 43.01 119.364 43.2441 119.364 43.5216V45.7931C119.364 45.9839 119.3 46.1255 119.173 46.2179C119.052 46.3046 118.864 46.348 118.609 46.348V42.4985C118.609 42.0708 118.852 41.8569 119.338 41.8569V42.3858C119.245 42.4841 119.182 42.5708 119.147 42.6459L119.182 42.6806C119.552 42.1315 120.014 41.8569 120.569 41.8569C120.777 41.8569 120.936 41.909 121.046 42.013C121.155 42.1113 121.21 42.2326 121.21 42.3771C121.21 42.4812 121.184 42.5737 121.132 42.6546C120.971 42.5679 120.757 42.5245 120.491 42.5245Z" fill="#CA9050"/>
<path id="Vector_17" d="M115.814 46.348C115.461 46.348 115.146 46.2815 114.869 46.1486C114.591 46.0099 114.375 45.822 114.218 45.585C114.062 45.3423 113.984 45.0706 113.984 44.7701V43.4869C113.984 43.1806 114.065 42.9031 114.227 42.6546C114.395 42.406 114.617 42.2124 114.895 42.0737C115.178 41.9292 115.484 41.8569 115.814 41.8569C116.143 41.8569 116.444 41.9263 116.715 42.065C116.993 42.2037 117.21 42.3945 117.366 42.6372C117.528 42.88 117.608 43.1545 117.608 43.4609V44.0158C117.608 44.1082 117.574 44.1863 117.504 44.2499C117.435 44.3134 117.351 44.3452 117.253 44.3452H114.721V44.7354C114.721 45.0302 114.814 45.2671 114.999 45.4463C115.19 45.6255 115.461 45.7151 115.814 45.7151C116.166 45.7151 116.435 45.6371 116.62 45.481C116.805 45.3249 116.897 45.114 116.897 44.8481C117.071 44.8365 117.215 44.8712 117.331 44.9521C117.452 45.0273 117.513 45.14 117.513 45.2903C117.513 45.4752 117.432 45.6486 117.27 45.8105C117.114 45.9723 116.906 46.1023 116.646 46.2006C116.386 46.2989 116.109 46.348 115.814 46.348ZM116.906 43.7557V43.4609C116.906 43.1719 116.805 42.9378 116.603 42.7586C116.406 42.5737 116.143 42.4812 115.814 42.4812C115.484 42.4812 115.218 42.5737 115.016 42.7586C114.82 42.9378 114.721 43.1719 114.721 43.4609V43.7557H116.906Z" fill="#CA9050"/>
<path id="Vector_18" d="M112.351 46.3482C111.941 46.3482 111.634 46.2326 111.432 46.0014C111.23 45.7644 111.129 45.4552 111.129 45.0737V42.5421H110.322C110.322 42.3456 110.366 42.1953 110.452 42.0912C110.539 41.9872 110.658 41.9352 110.808 41.9352H111.137V41.1115C111.137 40.9208 111.198 40.7821 111.319 40.6954C111.446 40.6029 111.634 40.5566 111.883 40.5566V41.9352H113.036C113.036 42.3398 112.854 42.5421 112.49 42.5421H111.892V45.0477C111.892 45.2789 111.932 45.4436 112.013 45.5419C112.1 45.6344 112.253 45.6806 112.472 45.6806C112.675 45.6806 112.865 45.6286 113.045 45.5246C113.12 45.5997 113.157 45.7008 113.157 45.828C113.157 45.9667 113.085 46.0881 112.941 46.1921C112.796 46.2962 112.6 46.3482 112.351 46.3482Z" fill="#CA9050"/>
<path id="Vector_19" d="M105.825 42.4985C105.825 42.0708 106.068 41.8569 106.553 41.8569V42.4118C106.501 42.4638 106.441 42.5419 106.371 42.6459L106.406 42.6806C106.579 42.4378 106.805 42.2413 107.082 42.091C107.36 41.935 107.66 41.8569 107.984 41.8569C108.452 41.8569 108.822 41.9957 109.094 42.2731C109.365 42.5505 109.501 42.9089 109.501 43.3482V45.7931C109.501 45.9839 109.438 46.1255 109.311 46.2179C109.189 46.3046 109.001 46.348 108.747 46.348V43.4262C108.747 43.1488 108.669 42.9291 108.513 42.7673C108.357 42.6054 108.12 42.5245 107.802 42.5245C107.588 42.5245 107.386 42.5708 107.195 42.6632C107.01 42.7499 106.86 42.8713 106.744 43.0274C106.634 43.1777 106.579 43.3424 106.579 43.5216V45.7931C106.579 45.9839 106.516 46.1255 106.389 46.2179C106.267 46.3046 106.08 46.348 105.825 46.348V42.4985Z" fill="#CA9050"/>
<path id="Vector_20" d="M103.03 46.348C102.677 46.348 102.362 46.2815 102.085 46.1486C101.807 46.0099 101.59 45.822 101.434 45.585C101.278 45.3423 101.2 45.0706 101.2 44.7701V43.4869C101.2 43.1806 101.281 42.9031 101.443 42.6546C101.611 42.406 101.833 42.2124 102.111 42.0737C102.394 41.9292 102.7 41.8569 103.03 41.8569C103.359 41.8569 103.66 41.9263 103.931 42.065C104.209 42.2037 104.425 42.3945 104.581 42.6372C104.743 42.88 104.824 43.1545 104.824 43.4609V44.0158C104.824 44.1082 104.79 44.1863 104.72 44.2499C104.651 44.3134 104.567 44.3452 104.469 44.3452H101.937V44.7354C101.937 45.0302 102.03 45.2671 102.215 45.4463C102.405 45.6255 102.677 45.7151 103.03 45.7151C103.382 45.7151 103.651 45.6371 103.836 45.481C104.021 45.3249 104.113 45.114 104.113 44.8481C104.287 44.8365 104.431 44.8712 104.547 44.9521C104.668 45.0273 104.729 45.14 104.729 45.2903C104.729 45.4752 104.648 45.6486 104.486 45.8105C104.33 45.9723 104.122 46.1023 103.862 46.2006C103.602 46.2989 103.324 46.348 103.03 46.348ZM104.122 43.7557V43.4609C104.122 43.1719 104.021 42.9378 103.819 42.7586C103.622 42.5737 103.359 42.4812 103.03 42.4812C102.7 42.4812 102.434 42.5737 102.232 42.7586C102.035 42.9378 101.937 43.1719 101.937 43.4609V43.7557H104.122Z" fill="#CA9050"/>
<path id="Vector_21" d="M97.9988 46.3481C97.5133 46.3481 97.0798 46.2585 96.6983 46.0793C96.3168 45.8944 96.0191 45.6401 95.8053 45.3164C95.5972 44.9869 95.4932 44.6141 95.4932 44.1979V42.2559C95.4932 41.8397 95.5972 41.4698 95.8053 41.1461C96.0191 40.8224 96.3139 40.571 96.6896 40.3918C97.0653 40.2126 97.4959 40.123 97.9815 40.123C98.467 40.123 98.8976 40.2011 99.2733 40.3571C99.649 40.5074 99.9409 40.7184 100.149 40.99C100.363 41.2617 100.47 41.5738 100.47 41.9264C100.47 42.0998 100.412 42.2356 100.296 42.3339C100.181 42.4322 100.028 42.4813 99.8368 42.4813C99.7964 42.4813 99.7357 42.4755 99.6548 42.4639C99.6663 42.3946 99.6721 42.2848 99.6721 42.1345C99.6721 41.8859 99.5999 41.6634 99.4554 41.4669C99.3166 41.2704 99.1172 41.1172 98.8571 41.0074C98.6028 40.8976 98.3109 40.8427 97.9815 40.8427C97.6578 40.8427 97.3688 40.9033 97.1145 41.0247C96.8601 41.1403 96.6607 41.3079 96.5162 41.5276C96.3775 41.7414 96.3081 41.9842 96.3081 42.2559V44.1979C96.3081 44.4754 96.3775 44.7239 96.5162 44.9436C96.6607 45.1574 96.8601 45.325 97.1145 45.4464C97.3746 45.5678 97.6693 45.6285 97.9988 45.6285C98.334 45.6285 98.6317 45.5736 98.8918 45.4638C99.1519 45.3539 99.3542 45.2037 99.4987 45.0129C99.6432 44.8164 99.7155 44.591 99.7155 44.3367C99.7155 44.2442 99.7097 44.1344 99.6981 44.0072C99.779 43.9956 99.8368 43.9899 99.8715 43.9899C100.062 43.9899 100.215 44.0448 100.331 44.1546C100.452 44.2644 100.513 44.4118 100.513 44.5968C100.513 44.9378 100.406 45.2412 100.192 45.5071C99.9784 45.773 99.6808 45.9811 99.2993 46.1314C98.9236 46.2759 98.4901 46.3481 97.9988 46.3481Z" fill="#CA9050"/>
<path id="Vector_22" d="M91.639 46.3481C91.217 46.3481 90.902 46.2325 90.694 46.0013C90.4859 45.7643 90.3818 45.4551 90.3818 45.0736V40.6779C90.3818 40.4872 90.4425 40.3485 90.5639 40.2618C90.6911 40.1693 90.8818 40.123 91.1361 40.123V45.0476C91.1361 45.273 91.1824 45.4349 91.2748 45.5331C91.3673 45.6314 91.5205 45.6805 91.7344 45.6805C91.9482 45.6805 92.1447 45.6285 92.3239 45.5245C92.3991 45.6112 92.4366 45.7123 92.4366 45.8279C92.4366 45.9666 92.3644 46.088 92.2199 46.192C92.0754 46.2961 91.8817 46.3481 91.639 46.3481Z" fill="#CA9050"/>
<path id="Vector_23" d="M87.198 46.348C86.7009 46.348 86.2992 46.2151 85.9928 45.9492C85.6923 45.6833 85.542 45.3336 85.542 44.9001C85.542 44.4608 85.7009 44.1082 86.0188 43.8424C86.3367 43.5707 86.7558 43.4349 87.276 43.4349C87.8309 43.4349 88.2875 43.6314 88.6459 44.0244L88.6805 43.9898C88.617 43.9204 88.5447 43.8481 88.4638 43.773V43.4089C88.4638 43.1141 88.3713 42.8858 88.1863 42.7239C88.0014 42.5621 87.7384 42.4812 87.3974 42.4812C86.7905 42.4812 86.357 42.721 86.0969 43.2008C86.0044 43.1545 85.9264 43.0939 85.8628 43.0187C85.805 42.9378 85.7761 42.8569 85.7761 42.776C85.7761 42.6199 85.8541 42.4725 86.0102 42.3338C86.1662 42.1893 86.3714 42.0737 86.6257 41.987C86.8858 41.9003 87.1575 41.8569 87.4407 41.8569C87.9898 41.8569 88.4204 41.9928 88.7326 42.2644C89.0505 42.5361 89.2094 42.9118 89.2094 43.3915V45.7671C89.2094 45.9694 89.1516 46.1168 89.036 46.2093C88.9204 46.3018 88.7383 46.348 88.4898 46.348V45.9405C88.6112 45.8133 88.6776 45.7382 88.6892 45.7151L88.6545 45.6804C88.2788 46.1255 87.7933 46.348 87.198 46.348ZM87.328 45.7498C87.6864 45.7498 87.9667 45.6746 88.169 45.5243C88.3771 45.3741 88.4811 45.166 88.4811 44.9001C88.4811 44.6342 88.38 44.4233 88.1777 44.2672C87.9754 44.1111 87.6979 44.0331 87.3454 44.0331C87.0159 44.0331 86.7558 44.1111 86.5651 44.2672C86.3801 44.4175 86.2876 44.6284 86.2876 44.9001C86.2876 45.1718 86.3772 45.3827 86.5564 45.533C86.7413 45.6775 86.9986 45.7498 87.328 45.7498Z" fill="#CA9050"/>
<path id="Vector_24" d="M83.183 46.348C82.8304 46.348 82.5154 46.2844 82.238 46.1573C81.9605 46.0301 81.7438 45.8509 81.5877 45.6197C81.4374 45.3885 81.3623 45.1255 81.3623 44.8307V43.4262C81.3623 43.1199 81.4374 42.8482 81.5877 42.6112C81.7438 42.3742 81.9576 42.1893 82.2293 42.0563C82.501 41.9234 82.8131 41.8569 83.1657 41.8569C83.4951 41.8569 83.787 41.9061 84.0413 42.0043C84.3014 42.0968 84.5037 42.2297 84.6482 42.4031C84.7927 42.5765 84.865 42.7731 84.865 42.9927C84.865 43.1372 84.8072 43.2557 84.6916 43.3482C84.5818 43.4349 84.4373 43.4724 84.2581 43.4609C84.2581 43.1834 84.1569 42.958 83.9546 42.7846C83.7581 42.6112 83.5009 42.5245 83.183 42.5245C82.8651 42.5245 82.6079 42.6112 82.4114 42.7846C82.2149 42.9522 82.1166 43.1719 82.1166 43.4435V44.7961C82.1166 45.0562 82.2177 45.27 82.42 45.4376C82.6223 45.5995 82.8824 45.6804 83.2003 45.6804C83.5182 45.6804 83.7755 45.5937 83.972 45.4203C84.1743 45.2469 84.2754 45.0244 84.2754 44.7527C84.4604 44.7412 84.6078 44.7787 84.7176 44.8654C84.8332 44.9463 84.891 45.0619 84.891 45.2122C84.891 45.4319 84.8187 45.6284 84.6742 45.8018C84.5297 45.9752 84.3274 46.111 84.0673 46.2093C83.8072 46.3018 83.5125 46.348 83.183 46.348Z" fill="#CA9050"/>
<path id="Vector_25" d="M79.6669 41.2068C79.5051 41.2068 79.3693 41.1548 79.2595 41.0507C79.1496 40.9467 79.0947 40.8166 79.0947 40.6606C79.0947 40.5045 79.1496 40.3774 79.2595 40.2791C79.3693 40.1751 79.5051 40.123 79.6669 40.123C79.823 40.123 79.9559 40.1751 80.0658 40.2791C80.1756 40.3774 80.2305 40.5045 80.2305 40.6606C80.2305 40.8166 80.1756 40.9467 80.0658 41.0507C79.9559 41.1548 79.823 41.2068 79.6669 41.2068ZM79.2855 42.4119C79.2855 42.2212 79.3462 42.0825 79.4675 41.9958C79.5947 41.9033 79.7854 41.857 80.0398 41.857V45.7932C80.0398 45.984 79.9762 46.1256 79.849 46.2181C79.7276 46.3048 79.5398 46.3481 79.2855 46.3481V42.4119Z" fill="#CA9050"/>
<path id="Vector_26" d="M75.8813 46.3481C75.3842 46.3481 74.9796 46.2123 74.6675 45.9406C74.3612 45.6632 74.208 45.2961 74.208 44.8395V43.357C74.208 43.0622 74.2803 42.8021 74.4248 42.5767C74.5693 42.3455 74.7687 42.1692 75.023 42.0478C75.2831 41.9206 75.5808 41.857 75.916 41.857C76.1877 41.857 76.4391 41.9148 76.6703 42.0304C76.9015 42.1403 77.1038 42.2877 77.2772 42.4726L77.3032 42.4293C77.2627 42.3715 77.202 42.3079 77.1211 42.2385V40.7126C77.1211 40.5219 77.1847 40.3774 77.3119 40.2791C77.439 40.1751 77.6298 40.123 77.8841 40.123V45.7325C77.8841 45.9233 77.8263 46.0736 77.7107 46.1834C77.6009 46.2932 77.4217 46.3481 77.1731 46.3481V45.8626C77.2541 45.7585 77.309 45.6834 77.3379 45.6372L77.3119 45.6025C77.1269 45.8337 76.9217 46.0158 76.6963 46.1487C76.4709 46.2816 76.1992 46.3481 75.8813 46.3481ZM76.046 45.6805C76.3524 45.6805 76.6096 45.6025 76.8177 45.4464C77.0258 45.2846 77.1298 45.0852 77.1298 44.8482V43.3483C77.1298 43.1171 77.0315 42.9235 76.835 42.7674C76.6385 42.6056 76.3726 42.5246 76.0374 42.5246C75.6964 42.5246 75.4305 42.6027 75.2397 42.7587C75.0548 42.909 74.9623 43.12 74.9623 43.3916V44.8048C74.9623 45.0881 75.0548 45.3048 75.2397 45.4551C75.4305 45.6054 75.6992 45.6805 76.046 45.6805Z" fill="#CA9050"/>
<path id="Vector_27" d="M71.4993 46.348C71.1467 46.348 70.8317 46.2815 70.5543 46.1486C70.2768 46.0099 70.0601 45.822 69.904 45.585C69.748 45.3423 69.6699 45.0706 69.6699 44.7701V43.4869C69.6699 43.1806 69.7508 42.9031 69.9127 42.6546C70.0803 42.406 70.3028 42.2124 70.5803 42.0737C70.8635 41.9292 71.1698 41.8569 71.4993 41.8569C71.8288 41.8569 72.1293 41.9263 72.401 42.065C72.6784 42.2037 72.8952 42.3945 73.0512 42.6372C73.2131 42.88 73.294 43.1545 73.294 43.4609V44.0158C73.294 44.1082 73.2593 44.1863 73.1899 44.2499C73.1206 44.3134 73.0368 44.3452 72.9385 44.3452H70.4069V44.7354C70.4069 45.0302 70.4994 45.2671 70.6843 45.4463C70.8751 45.6255 71.1467 45.7151 71.4993 45.7151C71.8519 45.7151 72.1206 45.6371 72.3056 45.481C72.4906 45.3249 72.583 45.114 72.583 44.8481C72.7564 44.8365 72.9009 44.8712 73.0165 44.9521C73.1379 45.0273 73.1986 45.14 73.1986 45.2903C73.1986 45.4752 73.1177 45.6486 72.9559 45.8105C72.7998 45.9723 72.5917 46.1023 72.3316 46.2006C72.0715 46.2989 71.7941 46.348 71.4993 46.348ZM72.5917 43.7557V43.4609C72.5917 43.1719 72.4906 42.9378 72.2883 42.7586C72.0917 42.5737 71.8288 42.4812 71.4993 42.4812C71.1698 42.4812 70.904 42.5737 70.7017 42.7586C70.5051 42.9378 70.4069 43.1719 70.4069 43.4609V43.7557H72.5917Z" fill="#CA9050"/>
<path id="Vector_28" d="M62.6865 40.7993C62.6865 40.5854 62.7588 40.4207 62.9033 40.3051C63.0478 40.1837 63.2472 40.123 63.5015 40.123L65.5996 45.1603L65.4349 45.5678L65.4956 45.5938L67.7151 40.123C67.9694 40.123 68.1689 40.1837 68.3134 40.3051C68.4636 40.4265 68.5388 40.5941 68.5388 40.808V46.3481C68.0012 46.3481 67.7325 46.1256 67.7325 45.6805V42.0304L67.9579 41.4322L67.8885 41.4149L65.9551 46.114C65.9262 46.1834 65.88 46.2383 65.8164 46.2787C65.7528 46.325 65.6863 46.3481 65.617 46.3481C65.5418 46.3481 65.4725 46.3279 65.4089 46.2874C65.3453 46.247 65.2991 46.1892 65.2702 46.114L63.3368 41.4062L63.2674 41.4322L63.4928 42.0218V45.6805C63.4928 45.9002 63.4235 46.0678 63.2848 46.1834C63.1518 46.2932 62.9524 46.3481 62.6865 46.3481V40.7993Z" fill="#CA9050"/>
</g>
<g id="Quality care for all">
<path id="Vector_29" d="M133.958 60.3784C133.536 60.3784 133.221 60.2628 133.013 60.0316C132.805 59.7946 132.701 59.4854 132.701 59.1039V54.7082C132.701 54.5175 132.762 54.3787 132.883 54.292C133.01 54.1996 133.201 54.1533 133.455 54.1533V59.0779C133.455 59.3033 133.502 59.4651 133.594 59.5634C133.687 59.6617 133.84 59.7108 134.054 59.7108C134.268 59.7108 134.464 59.6588 134.643 59.5547C134.718 59.6414 134.756 59.7426 134.756 59.8582C134.756 59.9969 134.684 60.1183 134.539 60.2223C134.395 60.3264 134.201 60.3784 133.958 60.3784Z" fill="#CA9050"/>
<path id="Vector_30" d="M131.215 60.3784C130.793 60.3784 130.478 60.2628 130.27 60.0316C130.062 59.7946 129.958 59.4854 129.958 59.1039V54.7082C129.958 54.5175 130.019 54.3787 130.14 54.292C130.267 54.1996 130.458 54.1533 130.712 54.1533V59.0779C130.712 59.3033 130.759 59.4651 130.851 59.5634C130.943 59.6617 131.097 59.7108 131.311 59.7108C131.524 59.7108 131.721 59.6588 131.9 59.5547C131.975 59.6414 132.013 59.7426 132.013 59.8582C132.013 59.9969 131.941 60.1183 131.796 60.2223C131.652 60.3264 131.458 60.3784 131.215 60.3784Z" fill="#CA9050"/>
<path id="Vector_31" d="M126.774 60.3783C126.277 60.3783 125.875 60.2453 125.569 59.9794C125.268 59.7136 125.118 59.3639 125.118 58.9304C125.118 58.4911 125.277 58.1385 125.595 57.8726C125.913 57.601 126.332 57.4651 126.852 57.4651C127.407 57.4651 127.864 57.6617 128.222 58.0547L128.257 58.02C128.193 57.9507 128.121 57.8784 128.04 57.8033V57.4391C128.04 57.1444 127.947 56.916 127.763 56.7542C127.578 56.5924 127.315 56.5114 126.974 56.5114C126.367 56.5114 125.933 56.7513 125.673 57.2311C125.581 57.1848 125.503 57.1241 125.439 57.049C125.381 56.9681 125.352 56.8871 125.352 56.8062C125.352 56.6502 125.43 56.5028 125.586 56.3641C125.742 56.2196 125.948 56.104 126.202 56.0173C126.462 55.9306 126.734 55.8872 127.017 55.8872C127.566 55.8872 127.997 56.023 128.309 56.2947C128.627 56.5664 128.786 56.9421 128.786 57.4218V59.7974C128.786 59.9997 128.728 60.1471 128.612 60.2395C128.497 60.332 128.315 60.3783 128.066 60.3783V59.9708C128.187 59.8436 128.254 59.7685 128.265 59.7454L128.231 59.7107C127.855 60.1557 127.369 60.3783 126.774 60.3783ZM126.904 59.78C127.263 59.78 127.543 59.7049 127.745 59.5546C127.953 59.4043 128.057 59.1963 128.057 58.9304C128.057 58.6645 127.956 58.4535 127.754 58.2975C127.552 58.1414 127.274 58.0634 126.922 58.0634C126.592 58.0634 126.332 58.1414 126.141 58.2975C125.956 58.4477 125.864 58.6587 125.864 58.9304C125.864 59.202 125.953 59.413 126.133 59.5633C126.318 59.7078 126.575 59.78 126.904 59.78Z" fill="#CA9050"/>
<path id="Vector_32" d="M121.467 56.5548C121.144 56.5548 120.875 56.6531 120.661 56.8496C120.447 57.0403 120.34 57.2744 120.34 57.5518V59.8234C120.34 60.0141 120.277 60.1557 120.149 60.2482C120.028 60.3349 119.84 60.3783 119.586 60.3783V56.5288C119.586 56.1011 119.829 55.8872 120.314 55.8872V56.4161C120.222 56.5143 120.158 56.601 120.123 56.6762L120.158 56.7109C120.528 56.1618 120.99 55.8872 121.545 55.8872C121.753 55.8872 121.912 55.9392 122.022 56.0433C122.132 56.1415 122.187 56.2629 122.187 56.4074C122.187 56.5114 122.161 56.6039 122.109 56.6848C121.947 56.5981 121.733 56.5548 121.467 56.5548Z" fill="#CA9050"/>
<path id="Vector_33" d="M116.713 60.3783C116.36 60.3783 116.039 60.3118 115.75 60.1789C115.467 60.0459 115.245 59.8667 115.083 59.6413C114.927 59.4101 114.849 59.1529 114.849 58.8697V57.4478C114.849 57.1588 114.927 56.8958 115.083 56.6588C115.245 56.4219 115.467 56.234 115.75 56.0953C116.034 55.9566 116.354 55.8872 116.713 55.8872C117.071 55.8872 117.392 55.9566 117.675 56.0953C117.964 56.234 118.187 56.4219 118.343 56.6588C118.504 56.8958 118.585 57.1588 118.585 57.4478V58.8697C118.585 59.1529 118.504 59.4101 118.343 59.6413C118.181 59.8667 117.958 60.0459 117.675 60.1789C117.392 60.3118 117.071 60.3783 116.713 60.3783ZM116.713 59.728C117.059 59.728 117.334 59.6471 117.536 59.4853C117.744 59.3176 117.848 59.1009 117.848 58.835V57.4738C117.848 57.1964 117.744 56.971 117.536 56.7976C117.334 56.6242 117.059 56.5375 116.713 56.5375C116.372 56.5375 116.097 56.6242 115.889 56.7976C115.681 56.971 115.577 57.1964 115.577 57.4738V58.835C115.577 59.1009 115.678 59.3176 115.88 59.4853C116.088 59.6471 116.366 59.728 116.713 59.728Z" fill="#CA9050"/>
<path id="Vector_34" d="M112.764 56.5723H112.044C112.044 56.1677 112.194 55.9654 112.495 55.9654H112.764V55.4365C112.764 55.0608 112.87 54.7544 113.084 54.5175C113.298 54.2747 113.619 54.1533 114.047 54.1533C114.289 54.1533 114.477 54.2082 114.61 54.3181C114.743 54.4221 114.81 54.5435 114.81 54.6822C114.81 54.8036 114.772 54.9018 114.697 54.977C114.518 54.8729 114.324 54.8209 114.116 54.8209C113.902 54.8209 113.749 54.8729 113.657 54.977C113.564 55.081 113.518 55.2457 113.518 55.4712V55.9654H114.602C114.602 56.1734 114.555 56.3266 114.463 56.4249C114.376 56.5231 114.24 56.5723 114.055 56.5723H113.518V59.8235C113.518 60.0142 113.454 60.1559 113.327 60.2483C113.206 60.335 113.018 60.3784 112.764 60.3784V56.5723Z" fill="#CA9050"/>
<path id="Vector_35" d="M107.317 60.3783C106.964 60.3783 106.649 60.3118 106.372 60.1789C106.094 60.0401 105.877 59.8523 105.721 59.6153C105.565 59.3725 105.487 59.1009 105.487 58.8003V57.5172C105.487 57.2108 105.568 56.9334 105.73 56.6848C105.898 56.4363 106.12 56.2427 106.398 56.104C106.681 55.9595 106.987 55.8872 107.317 55.8872C107.646 55.8872 107.947 55.9566 108.218 56.0953C108.496 56.234 108.713 56.4247 108.869 56.6675C109.03 56.9103 109.111 57.1848 109.111 57.4912V58.046C109.111 58.1385 109.077 58.2165 109.007 58.2801C108.938 58.3437 108.854 58.3755 108.756 58.3755H106.224V58.7656C106.224 59.0604 106.317 59.2974 106.502 59.4766C106.692 59.6558 106.964 59.7454 107.317 59.7454C107.669 59.7454 107.938 59.6673 108.123 59.5113C108.308 59.3552 108.4 59.1442 108.4 58.8784C108.574 58.8668 108.718 58.9015 108.834 58.9824C108.955 59.0575 109.016 59.1702 109.016 59.3205C109.016 59.5055 108.935 59.6789 108.773 59.8407C108.617 60.0026 108.409 60.1326 108.149 60.2309C107.889 60.3291 107.611 60.3783 107.317 60.3783ZM108.409 57.7859V57.4912C108.409 57.2022 108.308 56.9681 108.106 56.7889C107.909 56.6039 107.646 56.5114 107.317 56.5114C106.987 56.5114 106.721 56.6039 106.519 56.7889C106.323 56.9681 106.224 57.2022 106.224 57.4912V57.7859H108.409Z" fill="#CA9050"/>
<path id="Vector_36" d="M104.331 56.5548C104.007 56.5548 103.738 56.6531 103.524 56.8496C103.31 57.0403 103.204 57.2744 103.204 57.5518V59.8234C103.204 60.0141 103.14 60.1557 103.013 60.2482C102.891 60.3349 102.704 60.3783 102.449 60.3783V56.5288C102.449 56.1011 102.692 55.8872 103.177 55.8872V56.4161C103.085 56.5143 103.021 56.601 102.987 56.6762L103.021 56.7109C103.391 56.1618 103.854 55.8872 104.409 55.8872C104.617 55.8872 104.776 55.9392 104.885 56.0433C104.995 56.1415 105.05 56.2629 105.05 56.4074C105.05 56.5114 105.024 56.6039 104.972 56.6848C104.81 56.5981 104.596 56.5548 104.331 56.5548Z" fill="#CA9050"/>
<path id="Vector_37" d="M99.2663 60.3783C98.7692 60.3783 98.3675 60.2453 98.0612 59.9794C97.7606 59.7136 97.6104 59.3639 97.6104 58.9304C97.6104 58.4911 97.7693 58.1385 98.0872 57.8726C98.4051 57.601 98.8242 57.4651 99.3444 57.4651C99.8992 57.4651 100.356 57.6617 100.714 58.0547L100.749 58.02C100.685 57.9507 100.613 57.8784 100.532 57.8033V57.4391C100.532 57.1444 100.44 56.916 100.255 56.7542C100.07 56.5924 99.8068 56.5114 99.4657 56.5114C98.8588 56.5114 98.4253 56.7513 98.1652 57.2311C98.0728 57.1848 97.9947 57.1241 97.9311 57.049C97.8733 56.9681 97.8444 56.8871 97.8444 56.8062C97.8444 56.6502 97.9225 56.5028 98.0785 56.3641C98.2346 56.2196 98.4398 56.104 98.6941 56.0173C98.9542 55.9306 99.2259 55.8872 99.5091 55.8872C100.058 55.8872 100.489 56.023 100.801 56.2947C101.119 56.5664 101.278 56.9421 101.278 57.4218V59.7974C101.278 59.9997 101.22 60.1471 101.104 60.2395C100.989 60.332 100.807 60.3783 100.558 60.3783V59.9708C100.68 59.8436 100.746 59.7685 100.758 59.7454L100.723 59.7107C100.347 60.1557 99.8617 60.3783 99.2663 60.3783ZM99.3964 59.78C99.7547 59.78 100.035 59.7049 100.237 59.5546C100.445 59.4043 100.549 59.1963 100.549 58.9304C100.549 58.6645 100.448 58.4535 100.246 58.2975C100.044 58.1414 99.7663 58.0634 99.4137 58.0634C99.0843 58.0634 98.8242 58.1414 98.6334 58.2975C98.4485 58.4477 98.356 58.6587 98.356 58.9304C98.356 59.202 98.4456 59.413 98.6247 59.5633C98.8097 59.7078 99.0669 59.78 99.3964 59.78Z" fill="#CA9050"/>
<path id="Vector_38" d="M95.2514 60.3783C94.8988 60.3783 94.5838 60.3147 94.3063 60.1875C94.0289 60.0604 93.8121 59.8812 93.6561 59.65C93.5058 59.4188 93.4307 59.1558 93.4307 58.861V57.4565C93.4307 57.1501 93.5058 56.8785 93.6561 56.6415C93.8121 56.4045 94.026 56.2196 94.2977 56.0866C94.5693 55.9537 94.8814 55.8872 95.234 55.8872C95.5635 55.8872 95.8554 55.9363 96.1097 56.0346C96.3698 56.1271 96.5721 56.26 96.7166 56.4334C96.8611 56.6068 96.9333 56.8033 96.9333 57.023C96.9333 57.1675 96.8755 57.286 96.7599 57.3784C96.6501 57.4651 96.5056 57.5027 96.3264 57.4912C96.3264 57.2137 96.2253 56.9883 96.023 56.8149C95.8265 56.6415 95.5693 56.5548 95.2514 56.5548C94.9335 56.5548 94.6763 56.6415 94.4797 56.8149C94.2832 56.9825 94.185 57.2022 94.185 57.4738V58.8263C94.185 59.0864 94.2861 59.3003 94.4884 59.4679C94.6907 59.6298 94.9508 59.7107 95.2687 59.7107C95.5866 59.7107 95.8438 59.624 96.0403 59.4506C96.2426 59.2772 96.3438 59.0546 96.3438 58.783C96.5287 58.7714 96.6761 58.809 96.786 58.8957C96.9016 58.9766 96.9594 59.0922 96.9594 59.2425C96.9594 59.4621 96.8871 59.6587 96.7426 59.8321C96.5981 60.0055 96.3958 60.1413 96.1357 60.2395C95.8756 60.332 95.5808 60.3783 95.2514 60.3783Z" fill="#CA9050"/>
<path id="Vector_39" d="M86.7871 62.1036C86.4287 62.1036 86.2409 61.8955 86.2235 61.4794C86.3969 61.5025 86.5212 61.514 86.5963 61.514C86.8507 61.514 87.053 61.4389 87.2032 61.2886C87.3593 61.1383 87.5183 60.8782 87.6801 60.5083L87.8535 60.1182L86.1455 55.9479C86.186 55.9306 86.238 55.9161 86.3016 55.9045C86.3709 55.893 86.4287 55.8872 86.475 55.8872C86.5963 55.893 86.7062 55.9277 86.8044 55.9912C86.9027 56.049 86.972 56.1271 87.0125 56.2253L88.1743 59.1905L88.0529 59.5373L88.1049 59.5633L89.4228 56.2253C89.4632 56.1213 89.5297 56.0404 89.6222 55.9826C89.7204 55.919 89.8303 55.8872 89.9516 55.8872C90.0037 55.8872 90.0615 55.893 90.125 55.9045C90.1944 55.9161 90.2464 55.9306 90.2811 55.9479L88.3303 60.7251C88.1396 61.1875 87.9257 61.5314 87.6888 61.7568C87.4518 61.988 87.1512 62.1036 86.7871 62.1036Z" fill="#CA9050"/>
<path id="Vector_40" d="M84.8618 60.3785C84.4514 60.3785 84.1451 60.2629 83.9428 60.0317C83.7405 59.7947 83.6393 59.4855 83.6393 59.104V56.5723H82.833C82.833 56.3758 82.8764 56.2255 82.9631 56.1215C83.0498 56.0175 83.1682 55.9654 83.3185 55.9654H83.648V55.1418C83.648 54.9511 83.7087 54.8123 83.8301 54.7256C83.9572 54.6332 84.1451 54.5869 84.3936 54.5869V55.9654H85.5467C85.5467 56.37 85.3646 56.5723 85.0005 56.5723H84.4023V59.078C84.4023 59.3092 84.4427 59.4739 84.5237 59.5722C84.6104 59.6646 84.7635 59.7109 84.9832 59.7109C85.1855 59.7109 85.3762 59.6589 85.5554 59.5548C85.6305 59.63 85.6681 59.7311 85.6681 59.8583C85.6681 59.997 85.5958 60.1184 85.4513 60.2224C85.3068 60.3265 85.1103 60.3785 84.8618 60.3785Z" fill="#CA9050"/>
<path id="Vector_41" d="M81.3554 55.2371C81.1936 55.2371 81.0578 55.1851 80.9479 55.081C80.8381 54.977 80.7832 54.8469 80.7832 54.6909C80.7832 54.5348 80.8381 54.4076 80.9479 54.3094C81.0578 54.2053 81.1936 54.1533 81.3554 54.1533C81.5115 54.1533 81.6444 54.2053 81.7542 54.3094C81.8641 54.4076 81.919 54.5348 81.919 54.6909C81.919 54.8469 81.8641 54.977 81.7542 55.081C81.6444 55.1851 81.5115 55.2371 81.3554 55.2371ZM80.9739 56.4422C80.9739 56.2515 81.0346 56.1127 81.156 56.026C81.2832 55.9336 81.4739 55.8873 81.7282 55.8873V59.8235C81.7282 60.0142 81.6647 60.1559 81.5375 60.2483C81.4161 60.335 81.2283 60.3784 80.9739 60.3784V56.4422Z" fill="#CA9050"/>
<path id="Vector_42" d="M79.0765 60.3784C78.6545 60.3784 78.3395 60.2628 78.1315 60.0316C77.9234 59.7946 77.8193 59.4854 77.8193 59.1039V54.7082C77.8193 54.5175 77.88 54.3787 78.0014 54.292C78.1286 54.1996 78.3193 54.1533 78.5736 54.1533V59.0779C78.5736 59.3033 78.6199 59.4651 78.7123 59.5634C78.8048 59.6617 78.958 59.7108 79.1719 59.7108C79.3857 59.7108 79.5822 59.6588 79.7614 59.5547C79.8366 59.6414 79.8741 59.7426 79.8741 59.8582C79.8741 59.9969 79.8019 60.1183 79.6574 60.2223C79.5129 60.3264 79.3192 60.3784 79.0765 60.3784Z" fill="#CA9050"/>
<path id="Vector_43" d="M74.6364 60.3783C74.1394 60.3783 73.7376 60.2453 73.4313 59.9794C73.1307 59.7136 72.9805 59.3639 72.9805 58.9304C72.9805 58.4911 73.1394 58.1385 73.4573 57.8726C73.7752 57.601 74.1943 57.4651 74.7145 57.4651C75.2693 57.4651 75.726 57.6617 76.0843 58.0547L76.119 58.02C76.0554 57.9507 75.9832 57.8784 75.9023 57.8033V57.4391C75.9023 57.1444 75.8098 56.916 75.6248 56.7542C75.4399 56.5924 75.1769 56.5114 74.8358 56.5114C74.2289 56.5114 73.7954 56.7513 73.5353 57.2311C73.4429 57.1848 73.3648 57.1241 73.3013 57.049C73.2435 56.9681 73.2146 56.8871 73.2146 56.8062C73.2146 56.6502 73.2926 56.5028 73.4486 56.3641C73.6047 56.2196 73.8099 56.104 74.0642 56.0173C74.3243 55.9306 74.596 55.8872 74.8792 55.8872C75.4283 55.8872 75.8589 56.023 76.171 56.2947C76.4889 56.5664 76.6479 56.9421 76.6479 57.4218V59.7974C76.6479 59.9997 76.5901 60.1471 76.4745 60.2395C76.3589 60.332 76.1768 60.3783 75.9283 60.3783V59.9708C76.0496 59.8436 76.1161 59.7685 76.1277 59.7454L76.093 59.7107C75.7173 60.1557 75.2318 60.3783 74.6364 60.3783ZM74.7665 59.78C75.1248 59.78 75.4052 59.7049 75.6075 59.5546C75.8156 59.4043 75.9196 59.1963 75.9196 58.9304C75.9196 58.6645 75.8184 58.4535 75.6161 58.2975C75.4138 58.1414 75.1364 58.0634 74.7838 58.0634C74.4544 58.0634 74.1943 58.1414 74.0035 58.2975C73.8186 58.4477 73.7261 58.6587 73.7261 58.9304C73.7261 59.202 73.8157 59.413 73.9949 59.5633C74.1798 59.7078 74.437 59.78 74.7665 59.78Z" fill="#CA9050"/>
<path id="Vector_44" d="M71.9857 59.7367C71.9857 60.1644 71.7429 60.3783 71.2574 60.3783V59.8234C71.3094 59.7714 71.3701 59.6933 71.4394 59.5893L71.4048 59.5546C71.2314 59.8032 71.0117 60.0026 70.7458 60.1528C70.4857 60.3031 70.1996 60.3783 69.8875 60.3783C69.5754 60.3783 69.298 60.3118 69.0552 60.1789C68.8182 60.0459 68.6332 59.861 68.5003 59.624C68.3731 59.387 68.3096 59.1211 68.3096 58.8263V56.4421C68.3096 56.2513 68.3731 56.1126 68.5003 56.0259C68.6275 55.9334 68.8182 55.8872 69.0725 55.8872V58.7917C69.0725 59.0691 69.1534 59.2916 69.3153 59.4592C69.4829 59.6269 69.7286 59.7107 70.0522 59.7107C70.2661 59.7107 70.4626 59.6673 70.6418 59.5806C70.821 59.4881 70.9626 59.3668 71.0666 59.2165C71.1765 59.0604 71.2314 58.8928 71.2314 58.7136V56.4421C71.2314 56.2513 71.2921 56.1126 71.4134 56.0259C71.5406 55.9334 71.7313 55.8872 71.9857 55.8872V59.7367Z" fill="#CA9050"/>
<path id="Vector_45" d="M66.8981 60.5518C66.7247 60.5518 66.5657 60.5084 66.4212 60.4217C66.2825 60.3408 66.1698 60.231 66.0831 60.0923C65.7016 60.283 65.2797 60.3784 64.8173 60.3784C64.3375 60.3784 63.9069 60.2859 63.5254 60.1009C63.1497 59.9102 62.855 59.6501 62.6411 59.3206C62.4272 58.9854 62.3203 58.6155 62.3203 58.2109V56.3035C62.3203 55.8989 62.4272 55.5347 62.6411 55.2111C62.855 54.8816 63.1497 54.6244 63.5254 54.4394C63.9069 54.2487 64.3375 54.1533 64.8173 54.1533C65.3028 54.1533 65.7334 54.2487 66.1091 54.4394C66.4906 54.6244 66.7883 54.8816 67.0021 55.2111C67.216 55.5347 67.3229 55.8989 67.3229 56.3035V58.2109C67.3229 58.5114 67.2622 58.7947 67.1408 59.0605C67.0195 59.3206 66.8489 59.5432 66.6293 59.7281C66.82 59.9536 67.0773 60.0547 67.4009 60.0316C67.4009 60.3784 67.2333 60.5518 66.8981 60.5518ZM66.1611 59.1039C66.4039 58.8843 66.5253 58.5837 66.5253 58.2022V56.3208C66.5253 55.8758 66.375 55.5232 66.0744 55.2631C65.7739 54.9972 65.3548 54.8643 64.8173 54.8643C64.2855 54.8643 63.8694 54.9972 63.5688 55.2631C63.2682 55.5232 63.118 55.8758 63.118 56.3208V57.9508C63.4127 57.8525 63.6815 57.8034 63.9243 57.8034C64.404 57.8034 64.8231 57.9045 65.1814 58.1068C65.5398 58.3034 65.8663 58.6357 66.1611 59.1039ZM64.8173 59.6674C65.141 59.6674 65.4271 59.6183 65.6756 59.5201C65.4271 59.1039 65.167 58.8178 64.8953 58.6617C64.6294 58.5057 64.2942 58.4276 63.8896 58.4276C63.6699 58.4276 63.4272 58.4768 63.1613 58.575C63.2422 58.916 63.4243 59.1848 63.7075 59.3813C63.9965 59.5721 64.3664 59.6674 64.8173 59.6674Z" fill="#CA9050"/>
</g>
<path id="Vector (Stroke)" fill-rule="evenodd" clip-rule="evenodd" d="M61.8896 50.7402C61.8896 50.4641 62.1135 50.2402 62.3896 50.2402H133.73C134.006 50.2402 134.23 50.4641 134.23 50.7402C134.23 51.0164 134.006 51.2402 133.73 51.2402H62.3896C62.1135 51.2402 61.8896 51.0164 61.8896 50.7402Z" fill="#AFAFAF"/>
</g>
</g>
<defs>
<linearGradient id="paint0_linear_70_364" x1="9.70973" y1="39.73" x2="18.1397" y2="39.73" gradientUnits="userSpaceOnUse">
<stop stop-color="#FBB03B"/>
<stop offset="1"/>
</linearGradient>
<linearGradient id="paint1_linear_70_364" x1="9.81957" y1="41.8904" x2="18.0796" y2="41.8904" gradientUnits="userSpaceOnUse">
<stop stop-color="#FBB03B"/>
<stop offset="1"/>
</linearGradient>
<linearGradient id="paint2_linear_70_364" x1="21.3001" y1="8.97004" x2="39.5201" y2="52.03" gradientUnits="userSpaceOnUse">
<stop stop-color="#FFF472"/>
<stop offset="1" stop-color="#FBB03B"/>
</linearGradient>
<linearGradient id="paint3_linear_70_364" x1="30.5599" y1="21.7803" x2="22.2699" y2="54.8903" gradientUnits="userSpaceOnUse">
<stop stop-color="#FBB03B"/>
<stop offset="1"/>
</linearGradient>
<linearGradient id="paint4_linear_70_364" x1="32.1796" y1="10.4002" x2="49.7396" y2="30.3502" gradientUnits="userSpaceOnUse">
<stop stop-color="#FBB03B"/>
<stop offset="1"/>
</linearGradient>
<clipPath id="clip0_70_364">
<rect width="196" height="62" fill="white"/>
</clipPath>
</defs>
</svg>
