<svg width="196" height="64" viewBox="0 0 196 64" fill="none" xmlns="http://www.w3.org/2000/svg">
<g clip-path="url(#clip0_2951_10156)">
<path d="M45.42 2H8.28C4.25937 2 1 5.25937 1 9.28V54.64C1 58.6606 4.25937 61.92 8.28 61.92H45.42C49.4406 61.92 52.7 58.6606 52.7 54.64V9.28C52.7 5.25937 49.4406 2 45.42 2Z" stroke="#BC8C5C" stroke-width="0.75" stroke-miterlimit="10"/>
<path d="M17.6197 41.51C17.1897 39.58 16.4697 39.78 16.1397 39.76C15.8097 39.74 15.5597 39.95 15.2597 39.53C14.8197 38.93 13.7197 38.75 12.7797 38.68C11.4997 38.59 10.1697 38.62 9.78973 37.2L9.76973 37.11C9.73973 36.96 9.73973 36.67 9.71973 36.54C9.93973 37.14 10.2997 37.59 10.7997 37.89C11.3597 38.23 11.9497 38.26 12.1697 38.27C12.1897 38.27 12.2097 38.27 12.2297 38.27C12.6097 38.29 12.9797 38.27 13.8897 37.86C14.7897 37.44 15.1497 37.4 15.4997 37.48C15.6797 37.52 15.7497 37.6 15.8397 37.7C15.9197 37.8 16.0297 37.92 16.2397 38.04C16.4397 38.15 16.6197 38.19 16.7797 38.22C16.9797 38.26 17.1397 38.29 17.2797 38.46C17.5597 38.78 17.7697 39.06 17.9097 39.89C17.9797 40.3 18.1997 41.15 18.1497 41.45C18.0997 41.77 18.0797 42.34 17.9397 42.92" fill="url(#paint0_linear_2951_10156)"/>
<path d="M17.5796 46.3204C17.5796 46.3204 17.6296 46.3204 17.6596 46.3204C17.6796 46.3204 17.6996 46.3204 17.7296 46.3004C17.7496 46.3004 17.7796 46.2804 17.7996 46.2704L17.8696 46.2404H17.8996L17.9296 46.2104L17.9996 46.1804C17.9996 46.1804 18.0196 46.1704 18.0196 46.1604C18.0196 46.1604 18.0196 46.1604 18.0196 46.1504C18.0196 46.1504 18.0296 46.1304 18.0396 46.1204C18.0596 46.1004 18.0696 46.0704 18.0696 46.0504C18.0696 46.0004 18.0696 45.9604 18.0596 45.9104C18.0096 45.6404 17.9696 45.1904 17.9296 44.5704C17.8996 44.0204 17.4496 42.3204 17.3696 41.9804C16.9496 40.1004 16.4496 40.0804 15.9296 40.0504C15.5996 40.0304 15.2596 40.0204 14.9296 39.5704C14.5096 39.0004 13.6396 38.9404 12.7096 38.8704C12.0696 38.8204 11.3996 38.7704 10.8396 38.5504C10.2796 38.3404 10.0396 37.9604 9.86957 37.5504C9.84957 37.5104 9.82957 37.4804 9.80957 37.4404C9.81957 37.5104 9.83957 37.5804 9.84957 37.6504C9.96957 38.2104 10.1096 38.7904 10.3296 39.1504C10.5396 39.4804 10.7896 39.7404 11.0996 39.9304C11.8196 40.3704 12.7896 40.4704 14.1796 40.5604C15.3196 40.6304 16.1796 41.1504 16.7496 42.0904C16.9396 42.4104 17.0696 42.7204 17.1096 43.0304C17.1596 43.4604 17.1896 43.8704 17.2096 44.0404" fill="url(#paint1_linear_2951_10156)"/>
<path d="M39.6704 14.1401C39.4804 15.4901 38.9804 16.6001 38.1504 17.4501C37.1604 18.4901 35.8404 19.0401 34.1904 19.1101C35.5004 18.6701 37.7204 16.2701 39.6704 14.1401Z" fill="#0000FF"/>
<path d="M44.1001 16.04C44.0801 16.29 44.0801 16.53 44.0501 16.77C43.8501 18.77 43.6801 21.68 43.0501 23.02C42.4601 24.27 41.6801 25.26 40.6901 26.04C38.3701 27.87 35.0301 28.59 30.2201 29.48C26.2901 30.2 23.4901 32.35 21.9001 35.86C21.3701 37.03 21.0401 38.22 20.8301 39.29C20.5201 40.86 20.4901 42.16 20.4701 42.76C20.4701 42.83 20.4801 42.91 20.4901 42.98C20.4901 43.1 20.5101 43.23 20.5201 43.35C20.6101 44.38 20.7601 45.41 20.9601 46.43C21.1601 47.41 21.3901 48.18 21.6601 48.72C21.8301 49.04 21.9601 49.37 22.0601 49.71C22.1001 49.86 22.1001 50.02 22.0601 50.17C22.0201 50.27 21.9501 50.35 21.8501 50.42C21.7001 50.53 21.5401 50.63 21.3601 50.7C21.1701 50.78 20.9701 50.84 20.7601 50.89C20.6601 50.91 20.5601 50.92 20.4601 50.92C20.3801 50.92 20.3001 50.91 20.2301 50.89C20.1501 50.87 20.0801 50.85 20.0101 50.83L19.7601 50.75L19.6501 50.72L19.5301 50.69L19.2801 50.62C19.2201 50.6 19.2201 50.59 19.1901 50.56C19.1901 50.55 19.1701 50.54 19.1701 50.53C19.1501 50.5 19.1201 50.47 19.0701 50.43C19.0001 50.37 18.9501 50.28 18.9401 50.18C18.9201 50.02 18.9201 49.86 18.9201 49.7C18.9801 48.73 18.9501 47.14 18.8301 44.99C18.7201 43.05 19.5701 36.96 19.7401 35.75C20.4201 29.04 22.1501 28.75 23.9801 28.44C25.1201 28.25 26.2901 28.05 27.2501 26.38C28.4801 24.22 31.4501 23.34 34.6501 22.73C36.8701 22.3 39.2001 21.77 41.0501 20.77C42.7901 19.87 43.4901 18.2 43.9301 16.77C43.9701 16.63 44.0101 16.49 44.0401 16.35C44.0601 16.25 44.0801 16.16 44.1001 16.07V16.04Z" fill="url(#paint2_linear_2951_10156)"/>
<path d="M40.9999 19.1603C39.1799 20.5603 37.1599 20.9103 36.3999 21.0403C36.3299 21.0503 36.2599 21.0603 36.2099 21.0703C34.8799 21.3103 33.5999 21.4103 30.2599 20.3103C26.9599 19.2203 25.6899 19.2303 24.5099 19.6303C23.8899 19.8403 23.6799 20.1403 23.4099 20.5503C23.1599 20.9203 22.8499 21.3803 22.1399 21.8803C21.4799 22.3503 20.8699 22.5503 20.3399 22.7303C19.6599 22.9503 19.1299 23.1303 18.6899 23.7603C17.8499 24.9803 17.2399 26.0603 17.0799 28.9903C16.9999 30.4503 17.2899 31.4303 17.5899 32.4703C17.8999 33.5603 18.2599 34.7903 18.2599 36.7403C18.2599 40.3303 17.3899 42.9903 17.2899 43.2803L17.6399 48.8303C17.6699 49.2903 17.9399 49.7003 18.3499 49.9003C18.3499 49.9003 18.3399 49.8403 18.3299 49.8103C18.3099 49.6403 18.3099 49.4603 18.3099 49.2903C18.3699 48.3203 18.3399 46.7503 18.2199 44.6003C18.1099 42.6303 18.9599 36.5203 19.1299 35.3203C19.8299 28.4203 21.7399 28.1003 23.5899 27.7903C24.7199 27.6003 25.7799 27.4203 26.6799 25.8503C27.9699 23.5903 31.0499 23.0003 34.2999 22.3803C38.7199 21.5303 43.2899 20.6603 44.0599 15.5603C44.0599 15.5603 44.0599 15.5603 44.0599 15.5503C44.1099 15.0103 44.1599 14.4903 44.1899 14.0103C43.6499 16.2003 42.5899 17.9203 40.9899 19.1403L40.9999 19.1603Z" fill="url(#paint3_linear_2951_10156)"/>
<path d="M40.6996 13.1902C40.5896 12.5102 40.3396 11.8602 39.9796 11.2602C39.6196 10.6602 39.1496 10.1602 38.5896 9.74015C38.0096 9.31015 37.3596 9.01015 36.6596 8.84015C35.9596 8.67015 35.2396 8.64015 34.5296 8.76015C33.8496 8.87015 33.1996 9.12015 32.5996 9.48015C32.0096 9.84015 31.4996 10.3102 31.0796 10.8702C30.6496 11.4502 30.3496 12.1002 30.1796 12.8002C30.0096 13.5002 29.9896 14.2202 30.0996 14.9302C30.2096 15.6102 30.4596 16.2602 30.8196 16.8602C31.1796 17.4502 31.6496 17.9602 32.2096 18.3802C32.7896 18.8102 33.4396 19.1102 34.1396 19.2802C34.8396 19.4502 35.5596 19.4802 36.2696 19.3602C36.9496 19.2502 37.5996 19.0002 38.1996 18.6402C38.7996 18.2802 39.2996 17.8102 39.7196 17.2502C40.1496 16.6702 40.4496 16.0202 40.6196 15.3202C40.7896 14.6202 40.8196 13.9002 40.6996 13.1902ZM32.8896 12.2302C31.7496 13.7202 31.7096 15.8202 32.4396 16.7302C30.9796 15.5202 30.8096 13.2002 32.0796 11.5502C33.3396 9.90015 35.5496 9.55015 37.0096 10.7602C35.6296 10.2002 34.0396 10.7402 32.8996 12.2302H32.8896Z" fill="url(#paint4_linear_2951_10156)"/>
<path d="M185.44 32.7684C183.867 32.7684 182.462 32.4719 181.225 31.879C179.987 31.2602 179.02 30.4224 178.324 29.3654C177.628 28.2826 177.28 27.071 177.28 25.7304V20.0073C177.28 18.6409 177.641 17.4035 178.363 16.2949C179.111 15.1864 180.103 14.3228 181.341 13.7041C182.604 13.0596 183.97 12.7373 185.44 12.7373C186.909 12.7373 188.25 13.0467 189.461 13.6654C190.699 14.2841 191.666 15.1348 192.362 16.2176C193.083 17.3004 193.444 18.5249 193.444 19.8913V22.3661C193.444 22.7786 193.29 23.1266 192.98 23.4102C192.671 23.6938 192.297 23.8356 191.859 23.8356H180.567V25.5757C180.567 26.8905 180.98 27.9475 181.805 28.7467C182.655 29.5459 183.867 29.9455 185.44 29.9455C187.012 29.9455 188.211 29.5974 189.036 28.9014C189.861 28.2053 190.273 27.2643 190.273 26.0785C191.047 26.0269 191.691 26.1816 192.207 26.5425C192.748 26.8776 193.019 27.3803 193.019 28.0506C193.019 28.8756 192.658 29.649 191.936 30.3708C191.24 31.0927 190.312 31.6727 189.152 32.111C187.992 32.5492 186.754 32.7684 185.44 32.7684ZM190.312 21.206V19.8913C190.312 18.6023 189.861 17.5582 188.959 16.759C188.082 15.934 186.909 15.5215 185.44 15.5215C183.97 15.5215 182.784 15.934 181.882 16.759C181.005 17.5582 180.567 18.6023 180.567 19.8913V21.206H190.312Z" fill="#CA9050"/>
<path d="M156.255 15.5989C156.255 13.6912 157.338 12.7373 159.503 12.7373V15.2122C159.271 15.4442 159 15.7922 158.691 16.2563L158.846 16.411C159.619 15.3282 160.625 14.4517 161.862 13.7814C163.099 13.0853 164.44 12.7373 165.884 12.7373C167.972 12.7373 169.622 13.356 170.833 14.5935C172.045 15.8309 172.651 17.4293 172.651 19.3885V30.2935C172.651 31.1442 172.367 31.7758 171.8 32.1883C171.259 32.575 170.421 32.7684 169.287 32.7684V19.7366C169.287 18.4991 168.939 17.5195 168.243 16.7977C167.547 16.0758 166.49 15.7149 165.072 15.7149C164.118 15.7149 163.215 15.9211 162.365 16.3336C161.54 16.7203 160.87 17.2617 160.354 17.9578C159.864 18.628 159.619 19.3628 159.619 20.1619V30.2935C159.619 31.1442 159.336 31.7758 158.768 32.1883C158.227 32.575 157.389 32.7684 156.255 32.7684V15.5989Z" fill="#CA9050"/>
<path d="M148.308 9.83717C147.586 9.83717 146.98 9.60515 146.491 9.14111C146.001 8.67707 145.756 8.09702 145.756 7.40096C145.756 6.7049 146.001 6.13774 146.491 5.69948C146.98 5.23544 147.586 5.00342 148.308 5.00342C149.004 5.00342 149.597 5.23544 150.087 5.69948C150.577 6.13774 150.822 6.7049 150.822 7.40096C150.822 8.09702 150.577 8.67707 150.087 9.14111C149.597 9.60515 149.004 9.83717 148.308 9.83717ZM146.607 15.2123C146.607 14.3616 146.877 13.7428 147.419 13.3561C147.986 12.9437 148.837 12.7374 149.971 12.7374V30.2936C149.971 31.1443 149.687 31.7759 149.12 32.1884C148.579 32.5751 147.741 32.7685 146.607 32.7685V15.2123Z" fill="#CA9050"/>
<path d="M138.082 32.7686C136.252 32.7686 134.885 32.253 133.983 31.2218C133.081 30.1648 132.63 28.7856 132.63 27.0841V15.7924H129.033C129.033 14.9159 129.227 14.2456 129.613 13.7816C130 13.3176 130.528 13.0855 131.199 13.0855H132.668V9.41189C132.668 8.56115 132.939 7.94243 133.48 7.55573C134.047 7.14325 134.885 6.93701 135.994 6.93701V13.0855H141.137C141.137 14.8901 140.325 15.7924 138.701 15.7924H136.032V26.9681C136.032 27.9993 136.213 28.734 136.574 29.1723C136.961 29.5847 137.644 29.791 138.623 29.791C139.526 29.791 140.376 29.559 141.176 29.0949C141.511 29.4301 141.678 29.8812 141.678 30.4484C141.678 31.0671 141.356 31.6085 140.712 32.0725C140.067 32.5366 139.191 32.7686 138.082 32.7686Z" fill="#CA9050"/>
<path d="M119.561 32.7684C118.246 32.7684 117.009 32.575 115.848 32.1883C114.688 31.7758 113.747 31.1958 113.026 30.4482C112.329 29.7005 111.981 28.824 111.981 27.8186C111.981 26.5812 112.729 25.9109 114.224 25.8078C114.482 27.2514 115.088 28.3213 116.042 29.0174C117.021 29.6877 118.259 30.0228 119.754 30.0228C121.249 30.0228 122.409 29.8037 123.234 29.3654C124.059 28.9271 124.472 28.2569 124.472 27.3546C124.472 26.7101 124.304 26.1945 123.969 25.8078C123.634 25.3953 123.093 25.0473 122.345 24.7637C121.623 24.4543 120.579 24.1578 119.213 23.8743C117.511 23.4876 116.158 23.0751 115.152 22.6368C114.147 22.1986 113.374 21.6185 112.832 20.8967C112.317 20.1748 112.059 19.221 112.059 18.0351C112.059 17.0297 112.368 16.1274 112.987 15.3282C113.606 14.5032 114.456 13.8716 115.539 13.4334C116.648 12.9693 117.898 12.7373 119.29 12.7373C120.579 12.7373 121.791 12.9178 122.925 13.2787C124.085 13.6396 125.013 14.1552 125.709 14.8255C126.431 15.4958 126.792 16.2692 126.792 17.1457C126.792 17.7386 126.56 18.2156 126.096 18.5765C125.632 18.9116 124.987 19.105 124.162 19.1565C124.085 18.0222 123.621 17.1328 122.77 16.4883C121.945 15.818 120.785 15.4829 119.29 15.4829C118.053 15.4829 117.073 15.7149 116.351 16.1789C115.629 16.643 115.268 17.2617 115.268 18.0351C115.268 18.8601 115.604 19.4788 116.274 19.8913C116.97 20.278 118.143 20.6518 119.793 21.0127C122.5 21.5541 124.485 22.3017 125.748 23.2555C127.037 24.1836 127.681 25.5113 127.681 27.2386C127.681 28.9916 126.973 30.3579 125.555 31.3376C124.137 32.2914 122.139 32.7684 119.561 32.7684Z" fill="#CA9050"/>
<path d="M104.616 9.83717C103.894 9.83717 103.288 9.60515 102.798 9.14111C102.308 8.67707 102.063 8.09702 102.063 7.40096C102.063 6.7049 102.308 6.13774 102.798 5.69948C103.288 5.23544 103.894 5.00342 104.616 5.00342C105.312 5.00342 105.905 5.23544 106.395 5.69948C106.884 6.13774 107.129 6.7049 107.129 7.40096C107.129 8.09702 106.884 8.67707 106.395 9.14111C105.905 9.60515 105.312 9.83717 104.616 9.83717ZM102.914 15.2123C102.914 14.3616 103.185 13.7428 103.726 13.3561C104.293 12.9437 105.144 12.7374 106.279 12.7374V30.2936C106.279 31.1443 105.995 31.7759 105.428 32.1884C104.886 32.5751 104.049 32.7685 102.914 32.7685V15.2123Z" fill="#CA9050"/>
<path d="M95.7654 15.7149C94.3217 15.7149 93.123 16.1532 92.1691 17.0297C91.2152 17.8804 90.7383 18.9245 90.7383 20.1619V30.2935C90.7383 31.1442 90.4547 31.7758 89.8876 32.1883C89.3462 32.575 88.5083 32.7684 87.374 32.7684V15.5989C87.374 13.6912 88.4568 12.7373 90.6223 12.7373V15.0962C90.2098 15.5344 89.9262 15.9211 89.7716 16.2563L89.9262 16.411C91.5762 13.9619 93.6386 12.7373 96.1134 12.7373C97.0415 12.7373 97.7505 12.9693 98.2403 13.4334C98.7301 13.8716 98.975 14.413 98.975 15.0575C98.975 15.5215 98.859 15.934 98.627 16.2949C97.9052 15.9082 96.9513 15.7149 95.7654 15.7149Z" fill="#CA9050"/>
<path d="M62 7.05304C62 6.56322 62.1676 6.16363 62.5027 5.85427C62.8636 5.51913 63.3148 5.35156 63.8562 5.35156H75.1478C76.8493 5.35156 78.3574 5.71248 79.6722 6.43432C80.987 7.13038 82.0053 8.12291 82.7271 9.41191C83.449 10.6751 83.8099 12.1317 83.8099 13.7816C83.8099 15.4831 83.449 16.9783 82.7271 18.2673C82.0311 19.5563 81.0256 20.5489 79.7109 21.2449C78.3961 21.941 76.8751 22.289 75.1478 22.289H65.635V29.7523C65.635 30.732 65.3256 31.4796 64.7069 31.9952C64.0882 32.5108 63.1859 32.7686 62 32.7686V7.05304ZM75.1478 19.0794C76.6946 19.0794 77.9192 18.6154 78.8214 17.6873C79.7237 16.7334 80.1749 15.4315 80.1749 13.7816C80.1749 12.1833 79.7109 10.92 78.7828 9.99196C77.8805 9.0381 76.6688 8.56117 75.1478 8.56117H65.635V19.0794H75.1478Z" fill="#CA9050"/>
<path fill-rule="evenodd" clip-rule="evenodd" d="M61.8896 50.7402C61.8896 50.4641 62.1135 50.2402 62.3896 50.2402H133.73C134.006 50.2402 134.23 50.4641 134.23 50.7402C134.23 51.0164 134.006 51.2402 133.73 51.2402H62.3896C62.1135 51.2402 61.8896 51.0164 61.8896 50.7402Z" fill="#AFAFAF"/>
<path d="M63.0959 46V38.245H63.8549L66.8359 43.844L69.7949 38.245H70.5539V46H69.7179V39.939L67.1329 44.801H66.5389L63.9209 39.95V46H63.0959ZM74.992 46.099C74.1487 46.099 73.4814 45.8533 72.99 45.362C72.4987 44.8633 72.253 44.1887 72.253 43.338C72.253 42.788 72.363 42.304 72.583 41.886C72.803 41.4607 73.1037 41.1343 73.485 40.907C73.8737 40.6723 74.321 40.555 74.827 40.555C75.553 40.555 76.1214 40.7897 76.532 41.259C76.9427 41.721 77.148 42.359 77.148 43.173V43.514H73.122C73.1514 44.1227 73.3274 44.5883 73.65 44.911C73.9727 45.2263 74.42 45.384 74.992 45.384C75.3147 45.384 75.6227 45.3363 75.916 45.241C76.2094 45.1383 76.488 44.9733 76.752 44.746L77.06 45.373C76.818 45.6003 76.51 45.78 76.136 45.912C75.762 46.0367 75.3807 46.099 74.992 46.099ZM74.849 41.215C74.343 41.215 73.9434 41.3727 73.65 41.688C73.3567 42.0033 73.1844 42.4177 73.133 42.931H76.378C76.356 42.3883 76.213 41.9667 75.949 41.666C75.6924 41.3653 75.3257 41.215 74.849 41.215ZM80.6925 46.099C80.2159 46.099 79.7979 45.9853 79.4385 45.758C79.0865 45.5307 78.8115 45.2117 78.6135 44.801C78.4229 44.383 78.3275 43.8917 78.3275 43.327C78.3275 42.755 78.4229 42.2637 78.6135 41.853C78.8115 41.435 79.0865 41.116 79.4385 40.896C79.7979 40.6687 80.2159 40.555 80.6925 40.555C81.1105 40.555 81.4772 40.6467 81.7925 40.83C82.1152 41.0133 82.3535 41.2663 82.5075 41.589V38.245H83.3985V46H82.5295V45.021C82.3755 45.3583 82.1372 45.6223 81.8145 45.813C81.4919 46.0037 81.1179 46.099 80.6925 46.099ZM80.8795 45.384C81.3782 45.384 81.7779 45.208 82.0785 44.856C82.3792 44.4967 82.5295 43.987 82.5295 43.327C82.5295 42.6597 82.3792 42.15 82.0785 41.798C81.7779 41.446 81.3782 41.27 80.8795 41.27C80.3735 41.27 79.9702 41.446 79.6695 41.798C79.3762 42.15 79.2295 42.6597 79.2295 43.327C79.2295 43.987 79.3762 44.4967 79.6695 44.856C79.9702 45.208 80.3735 45.384 80.8795 45.384ZM85.1806 39.323V38.322H86.2806V39.323H85.1806ZM85.2906 46V40.654H86.1816V46H85.2906ZM90.3332 46.099C89.7979 46.099 89.3359 45.9853 88.9472 45.758C88.5586 45.5233 88.2579 45.197 88.0452 44.779C87.8399 44.3537 87.7372 43.8587 87.7372 43.294C87.7372 42.4433 87.9682 41.776 88.4302 41.292C88.8922 40.8007 89.5266 40.555 90.3332 40.555C90.6632 40.555 90.9896 40.6137 91.3122 40.731C91.6349 40.8483 91.9026 41.0133 92.1152 41.226L91.8072 41.875C91.5946 41.6697 91.3599 41.5193 91.1032 41.424C90.8539 41.3287 90.6156 41.281 90.3882 41.281C89.8309 41.281 89.4019 41.457 89.1012 41.809C88.8006 42.1537 88.6502 42.6523 88.6502 43.305C88.6502 43.943 88.8006 44.449 89.1012 44.823C89.4019 45.1897 89.8309 45.373 90.3882 45.373C90.6156 45.373 90.8539 45.3253 91.1032 45.23C91.3599 45.1347 91.5946 44.9807 91.8072 44.768L92.1152 45.417C91.9026 45.6297 91.6312 45.7983 91.3012 45.923C90.9786 46.0403 90.6559 46.099 90.3332 46.099ZM95.0191 46.099C94.6524 46.099 94.3224 46.0293 94.0291 45.89C93.7431 45.7433 93.5157 45.5453 93.3471 45.296C93.1784 45.0467 93.0941 44.768 93.0941 44.46C93.0941 44.0713 93.1931 43.7633 93.3911 43.536C93.5964 43.3087 93.9301 43.1473 94.3921 43.052C94.8614 42.9493 95.4994 42.898 96.3061 42.898H96.6581V42.557C96.6581 42.1023 96.5627 41.776 96.3721 41.578C96.1887 41.3727 95.8917 41.27 95.4811 41.27C95.1584 41.27 94.8467 41.3177 94.5461 41.413C94.2454 41.501 93.9374 41.6477 93.6221 41.853L93.3141 41.204C93.5927 41.006 93.9301 40.8483 94.3261 40.731C94.7294 40.6137 95.1144 40.555 95.4811 40.555C96.1704 40.555 96.6801 40.7237 97.0101 41.061C97.3474 41.3983 97.5161 41.9227 97.5161 42.634V46H96.6801V45.076C96.5407 45.3913 96.3244 45.6407 96.0311 45.824C95.7451 46.0073 95.4077 46.099 95.0191 46.099ZM95.1621 45.428C95.6021 45.428 95.9614 45.2777 96.2401 44.977C96.5187 44.669 96.6581 44.2803 96.6581 43.811V43.481H96.3171C95.7231 43.481 95.2537 43.5103 94.9091 43.569C94.5717 43.6203 94.3334 43.7157 94.1941 43.855C94.0621 43.987 93.9961 44.1703 93.9961 44.405C93.9961 44.7057 94.0987 44.9513 94.3041 45.142C94.5167 45.3327 94.8027 45.428 95.1621 45.428ZM101.028 46.099C100.485 46.099 100.075 45.9413 99.7961 45.626C99.5248 45.3033 99.3891 44.8377 99.3891 44.229V38.245H100.28V44.163C100.28 44.9477 100.592 45.34 101.215 45.34C101.398 45.34 101.563 45.318 101.71 45.274L101.688 46.022C101.461 46.0733 101.241 46.099 101.028 46.099ZM109.385 46.099C108.622 46.099 107.97 45.9377 107.427 45.615C106.884 45.2923 106.466 44.834 106.173 44.24C105.887 43.646 105.744 42.9383 105.744 42.117C105.744 41.303 105.887 40.599 106.173 40.005C106.466 39.411 106.884 38.9527 107.427 38.63C107.97 38.3073 108.622 38.146 109.385 38.146C109.92 38.146 110.412 38.2303 110.859 38.399C111.314 38.5677 111.699 38.8133 112.014 39.136L111.662 39.873C111.325 39.5577 110.973 39.3303 110.606 39.191C110.247 39.0443 109.847 38.971 109.407 38.971C108.534 38.971 107.867 39.246 107.405 39.796C106.943 40.346 106.712 41.1197 106.712 42.117C106.712 43.1217 106.943 43.899 107.405 44.449C107.867 44.999 108.534 45.274 109.407 45.274C109.847 45.274 110.247 45.2043 110.606 45.065C110.973 44.9183 111.325 44.6873 111.662 44.372L112.014 45.109C111.699 45.4243 111.314 45.67 110.859 45.846C110.412 46.0147 109.92 46.099 109.385 46.099ZM115.553 46.099C114.709 46.099 114.042 45.8533 113.551 45.362C113.059 44.8633 112.814 44.1887 112.814 43.338C112.814 42.788 112.924 42.304 113.144 41.886C113.364 41.4607 113.664 41.1343 114.046 40.907C114.434 40.6723 114.882 40.555 115.388 40.555C116.114 40.555 116.682 40.7897 117.093 41.259C117.503 41.721 117.709 42.359 117.709 43.173V43.514H113.683C113.712 44.1227 113.888 44.5883 114.211 44.911C114.533 45.2263 114.981 45.384 115.553 45.384C115.875 45.384 116.183 45.3363 116.477 45.241C116.77 45.1383 117.049 44.9733 117.313 44.746L117.621 45.373C117.379 45.6003 117.071 45.78 116.697 45.912C116.323 46.0367 115.941 46.099 115.553 46.099ZM115.41 41.215C114.904 41.215 114.504 41.3727 114.211 41.688C113.917 42.0033 113.745 42.4177 113.694 42.931H116.939C116.917 42.3883 116.774 41.9667 116.51 41.666C116.253 41.3653 115.886 41.215 115.41 41.215ZM119.218 46V40.654H120.087V41.567C120.263 41.2297 120.513 40.9767 120.835 40.808C121.158 40.6393 121.521 40.555 121.924 40.555C123.193 40.555 123.827 41.259 123.827 42.667V46H122.936V42.722C122.936 42.2233 122.837 41.8603 122.639 41.633C122.449 41.3983 122.141 41.281 121.715 41.281C121.224 41.281 120.832 41.435 120.538 41.743C120.252 42.0437 120.109 42.447 120.109 42.953V46H119.218ZM127.835 46.099C127.205 46.099 126.732 45.934 126.416 45.604C126.101 45.2667 125.943 44.7827 125.943 44.152V41.347H124.898V40.654H125.943V39.015H126.834V40.654H128.528V41.347H126.834V44.064C126.834 44.482 126.922 44.801 127.098 45.021C127.274 45.2337 127.56 45.34 127.956 45.34C128.074 45.34 128.191 45.3253 128.308 45.296C128.426 45.2667 128.532 45.2373 128.627 45.208L128.781 45.89C128.686 45.9413 128.547 45.989 128.363 46.033C128.18 46.077 128.004 46.099 127.835 46.099ZM132.111 46.099C131.268 46.099 130.601 45.8533 130.109 45.362C129.618 44.8633 129.372 44.1887 129.372 43.338C129.372 42.788 129.482 42.304 129.702 41.886C129.922 41.4607 130.223 41.1343 130.604 40.907C130.993 40.6723 131.44 40.555 131.946 40.555C132.672 40.555 133.241 40.7897 133.651 41.259C134.062 41.721 134.267 42.359 134.267 43.173V43.514H130.241C130.271 44.1227 130.447 44.5883 130.769 44.911C131.092 45.2263 131.539 45.384 132.111 45.384C132.434 45.384 132.742 45.3363 133.035 45.241C133.329 45.1383 133.607 44.9733 133.871 44.746L134.179 45.373C133.937 45.6003 133.629 45.78 133.255 45.912C132.881 46.0367 132.5 46.099 132.111 46.099ZM131.968 41.215C131.462 41.215 131.063 41.3727 130.769 41.688C130.476 42.0033 130.304 42.4177 130.252 42.931H133.497C133.475 42.3883 133.332 41.9667 133.068 41.666C132.812 41.3653 132.445 41.215 131.968 41.215ZM135.777 46V40.654H136.646V41.611C136.932 40.9657 137.518 40.61 138.406 40.544L138.725 40.511L138.791 41.281L138.23 41.347C137.724 41.391 137.339 41.5523 137.075 41.831C136.811 42.1023 136.679 42.4763 136.679 42.953V46H135.777Z" fill="#CA9050"/>
<path d="M68.3661 64.211L67.4421 62.726C67.1928 62.308 66.7858 62.099 66.2211 62.099C65.5025 62.099 64.8755 61.9377 64.3401 61.615C63.8121 61.285 63.4015 60.823 63.1081 60.229C62.8221 59.635 62.6791 58.931 62.6791 58.117C62.6791 57.303 62.8221 56.599 63.1081 56.005C63.3941 55.411 63.8011 54.9527 64.3291 54.63C64.8645 54.3073 65.4951 54.146 66.2211 54.146C66.9545 54.146 67.5851 54.3073 68.1131 54.63C68.6485 54.9527 69.0591 55.411 69.3451 56.005C69.6385 56.5917 69.7851 57.292 69.7851 58.106C69.7851 59.052 69.5908 59.8513 69.2021 60.504C68.8135 61.1493 68.2745 61.604 67.5851 61.868C67.8785 61.9633 68.1461 62.2163 68.3881 62.627L69.1251 63.815L68.3661 64.211ZM66.2211 61.296C67.0498 61.296 67.6915 61.0173 68.1461 60.46C68.6008 59.9027 68.8281 59.1217 68.8281 58.117C68.8281 57.1123 68.6008 56.335 68.1461 55.785C67.6915 55.2277 67.0498 54.949 66.2211 54.949C65.4071 54.949 64.7728 55.2277 64.3181 55.785C63.8635 56.335 63.6361 57.1123 63.6361 58.117C63.6361 59.1143 63.8635 59.8953 64.3181 60.46C64.7728 61.0173 65.4071 61.296 66.2211 61.296ZM73.3888 62.099C72.1054 62.099 71.4638 61.3913 71.4638 59.976V56.654H72.3548V59.965C72.3548 60.4417 72.4501 60.7937 72.6408 61.021C72.8388 61.2483 73.1468 61.362 73.5648 61.362C74.0194 61.362 74.3898 61.2117 74.6758 60.911C74.9618 60.603 75.1048 60.196 75.1048 59.69V56.654H75.9958V62H75.1268V61.098C74.9581 61.4207 74.7198 61.67 74.4118 61.846C74.1111 62.0147 73.7701 62.099 73.3888 62.099ZM79.5658 62.099C79.1991 62.099 78.8691 62.0293 78.5758 61.89C78.2898 61.7433 78.0624 61.5453 77.8938 61.296C77.7251 61.0467 77.6408 60.768 77.6408 60.46C77.6408 60.0713 77.7398 59.7633 77.9378 59.536C78.1431 59.3087 78.4768 59.1473 78.9388 59.052C79.4081 58.9493 80.0461 58.898 80.8528 58.898H81.2048V58.557C81.2048 58.1023 81.1094 57.776 80.9188 57.578C80.7354 57.3727 80.4384 57.27 80.0278 57.27C79.7051 57.27 79.3934 57.3177 79.0928 57.413C78.7921 57.501 78.4841 57.6477 78.1688 57.853L77.8608 57.204C78.1394 57.006 78.4768 56.8483 78.8728 56.731C79.2761 56.6137 79.6611 56.555 80.0278 56.555C80.7171 56.555 81.2268 56.7237 81.5568 57.061C81.8941 57.3983 82.0628 57.9227 82.0628 58.634V62H81.2268V61.076C81.0874 61.3913 80.8711 61.6407 80.5778 61.824C80.2918 62.0073 79.9544 62.099 79.5658 62.099ZM79.7088 61.428C80.1488 61.428 80.5081 61.2777 80.7868 60.977C81.0654 60.669 81.2048 60.2803 81.2048 59.811V59.481H80.8638C80.2698 59.481 79.8004 59.5103 79.4558 59.569C79.1184 59.6203 78.8801 59.7157 78.7408 59.855C78.6088 59.987 78.5428 60.1703 78.5428 60.405C78.5428 60.7057 78.6454 60.9513 78.8508 61.142C79.0634 61.3327 79.3494 61.428 79.7088 61.428ZM85.5748 62.099C85.0321 62.099 84.6215 61.9413 84.3428 61.626C84.0715 61.3033 83.9358 60.8377 83.9358 60.229V54.245H84.8268V60.163C84.8268 60.9477 85.1385 61.34 85.7618 61.34C85.9451 61.34 86.1101 61.318 86.2568 61.274L86.2348 62.022C86.0075 62.0733 85.7875 62.099 85.5748 62.099ZM87.3007 55.323V54.322H88.4007V55.323H87.3007ZM87.4107 62V56.654H88.3017V62H87.4107ZM92.3323 62.099C91.7016 62.099 91.2286 61.934 90.9133 61.604C90.598 61.2667 90.4403 60.7827 90.4403 60.152V57.347H89.3953V56.654H90.4403V55.015H91.3313V56.654H93.0253V57.347H91.3313V60.064C91.3313 60.482 91.4193 60.801 91.5953 61.021C91.7713 61.2337 92.0573 61.34 92.4533 61.34C92.5706 61.34 92.688 61.3253 92.8053 61.296C92.9226 61.2667 93.029 61.2373 93.1243 61.208L93.2783 61.89C93.183 61.9413 93.0436 61.989 92.8603 62.033C92.677 62.077 92.501 62.099 92.3323 62.099ZM94.9335 63.98L95.8465 61.912L93.5915 56.654H94.5595L96.3305 60.988L98.1125 56.654H99.0475L95.8685 63.98H94.9335ZM105.499 62.099C104.964 62.099 104.502 61.9853 104.113 61.758C103.724 61.5233 103.424 61.197 103.211 60.779C103.006 60.3537 102.903 59.8587 102.903 59.294C102.903 58.4433 103.134 57.776 103.596 57.292C104.058 56.8007 104.692 56.555 105.499 56.555C105.829 56.555 106.155 56.6137 106.478 56.731C106.801 56.8483 107.068 57.0133 107.281 57.226L106.973 57.875C106.76 57.6697 106.526 57.5193 106.269 57.424C106.02 57.3287 105.781 57.281 105.554 57.281C104.997 57.281 104.568 57.457 104.267 57.809C103.966 58.1537 103.816 58.6523 103.816 59.305C103.816 59.943 103.966 60.449 104.267 60.823C104.568 61.1897 104.997 61.373 105.554 61.373C105.781 61.373 106.02 61.3253 106.269 61.23C106.526 61.1347 106.76 60.9807 106.973 60.768L107.281 61.417C107.068 61.6297 106.797 61.7983 106.467 61.923C106.144 62.0403 105.822 62.099 105.499 62.099ZM110.185 62.099C109.818 62.099 109.488 62.0293 109.195 61.89C108.909 61.7433 108.682 61.5453 108.513 61.296C108.344 61.0467 108.26 60.768 108.26 60.46C108.26 60.0713 108.359 59.7633 108.557 59.536C108.762 59.3087 109.096 59.1473 109.558 59.052C110.027 58.9493 110.665 58.898 111.472 58.898H111.824V58.557C111.824 58.1023 111.729 57.776 111.538 57.578C111.355 57.3727 111.058 57.27 110.647 57.27C110.324 57.27 110.013 57.3177 109.712 57.413C109.411 57.501 109.103 57.6477 108.788 57.853L108.48 57.204C108.759 57.006 109.096 56.8483 109.492 56.731C109.895 56.6137 110.28 56.555 110.647 56.555C111.336 56.555 111.846 56.7237 112.176 57.061C112.513 57.3983 112.682 57.9227 112.682 58.634V62H111.846V61.076C111.707 61.3913 111.49 61.6407 111.197 61.824C110.911 62.0073 110.574 62.099 110.185 62.099ZM110.328 61.428C110.768 61.428 111.127 61.2777 111.406 60.977C111.685 60.669 111.824 60.2803 111.824 59.811V59.481H111.483C110.889 59.481 110.42 59.5103 110.075 59.569C109.738 59.6203 109.499 59.7157 109.36 59.855C109.228 59.987 109.162 60.1703 109.162 60.405C109.162 60.7057 109.265 60.9513 109.47 61.142C109.683 61.3327 109.969 61.428 110.328 61.428ZM114.555 62V56.654H115.424V57.611C115.71 56.9657 116.297 56.61 117.184 56.544L117.503 56.511L117.569 57.281L117.008 57.347C116.502 57.391 116.117 57.5523 115.853 57.831C115.589 58.1023 115.457 58.4763 115.457 58.953V62H114.555ZM121.062 62.099C120.218 62.099 119.551 61.8533 119.06 61.362C118.568 60.8633 118.323 60.1887 118.323 59.338C118.323 58.788 118.433 58.304 118.653 57.886C118.873 57.4607 119.173 57.1343 119.555 56.907C119.943 56.6723 120.391 56.555 120.897 56.555C121.623 56.555 122.191 56.7897 122.602 57.259C123.012 57.721 123.218 58.359 123.218 59.173V59.514H119.192C119.221 60.1227 119.397 60.5883 119.72 60.911C120.042 61.2263 120.49 61.384 121.062 61.384C121.384 61.384 121.692 61.3363 121.986 61.241C122.279 61.1383 122.558 60.9733 122.822 60.746L123.13 61.373C122.888 61.6003 122.58 61.78 122.206 61.912C121.832 62.0367 121.45 62.099 121.062 62.099ZM120.919 57.215C120.413 57.215 120.013 57.3727 119.72 57.688C119.426 58.0033 119.254 58.4177 119.203 58.931H122.448C122.426 58.3883 122.283 57.9667 122.019 57.666C121.762 57.3653 121.395 57.215 120.919 57.215ZM128.059 62V57.347H127.003V56.654H128.059V56.467C128.059 55.7557 128.235 55.2167 128.587 54.85C128.946 54.4833 129.496 54.278 130.237 54.234L130.666 54.212L130.743 54.894L130.237 54.927C129.782 54.9637 129.452 55.0993 129.247 55.334C129.049 55.5687 128.95 55.9097 128.95 56.357V56.654H130.49V57.347H128.95V62H128.059ZM133.727 62.099C133.207 62.099 132.756 61.9853 132.374 61.758C131.993 61.5307 131.696 61.2117 131.483 60.801C131.278 60.383 131.175 59.8917 131.175 59.327C131.175 58.7623 131.278 58.2747 131.483 57.864C131.696 57.446 131.993 57.1233 132.374 56.896C132.756 56.6687 133.207 56.555 133.727 56.555C134.241 56.555 134.688 56.6687 135.069 56.896C135.458 57.1233 135.755 57.446 135.96 57.864C136.173 58.2747 136.279 58.7623 136.279 59.327C136.279 59.8917 136.173 60.383 135.96 60.801C135.755 61.2117 135.458 61.5307 135.069 61.758C134.688 61.9853 134.241 62.099 133.727 62.099ZM133.727 61.384C134.226 61.384 134.626 61.208 134.926 60.856C135.227 60.4967 135.377 59.987 135.377 59.327C135.377 58.6597 135.227 58.15 134.926 57.798C134.626 57.446 134.226 57.27 133.727 57.27C133.221 57.27 132.818 57.446 132.517 57.798C132.224 58.15 132.077 58.6597 132.077 59.327C132.077 59.987 132.224 60.4967 132.517 60.856C132.818 61.208 133.221 61.384 133.727 61.384ZM137.838 62V56.654H138.707V57.611C138.993 56.9657 139.579 56.61 140.467 56.544L140.786 56.511L140.852 57.281L140.291 57.347C139.785 57.391 139.4 57.5523 139.136 57.831C138.872 58.1023 138.74 58.4763 138.74 58.953V62H137.838ZM146.728 62.099C146.361 62.099 146.031 62.0293 145.738 61.89C145.452 61.7433 145.225 61.5453 145.056 61.296C144.887 61.0467 144.803 60.768 144.803 60.46C144.803 60.0713 144.902 59.7633 145.1 59.536C145.305 59.3087 145.639 59.1473 146.101 59.052C146.57 58.9493 147.208 58.898 148.015 58.898H148.367V58.557C148.367 58.1023 148.272 57.776 148.081 57.578C147.898 57.3727 147.601 57.27 147.19 57.27C146.867 57.27 146.556 57.3177 146.255 57.413C145.954 57.501 145.646 57.6477 145.331 57.853L145.023 57.204C145.302 57.006 145.639 56.8483 146.035 56.731C146.438 56.6137 146.823 56.555 147.19 56.555C147.879 56.555 148.389 56.7237 148.719 57.061C149.056 57.3983 149.225 57.9227 149.225 58.634V62H148.389V61.076C148.25 61.3913 148.033 61.6407 147.74 61.824C147.454 62.0073 147.117 62.099 146.728 62.099ZM146.871 61.428C147.311 61.428 147.67 61.2777 147.949 60.977C148.228 60.669 148.367 60.2803 148.367 59.811V59.481H148.026C147.432 59.481 146.963 59.5103 146.618 59.569C146.281 59.6203 146.042 59.7157 145.903 59.855C145.771 59.987 145.705 60.1703 145.705 60.405C145.705 60.7057 145.808 60.9513 146.013 61.142C146.226 61.3327 146.512 61.428 146.871 61.428ZM152.737 62.099C152.194 62.099 151.784 61.9413 151.505 61.626C151.234 61.3033 151.098 60.8377 151.098 60.229V54.245H151.989V60.163C151.989 60.9477 152.301 61.34 152.924 61.34C153.107 61.34 153.272 61.318 153.419 61.274L153.397 62.022C153.17 62.0733 152.95 62.099 152.737 62.099ZM156.212 62.099C155.669 62.099 155.259 61.9413 154.98 61.626C154.709 61.3033 154.573 60.8377 154.573 60.229V54.245H155.464V60.163C155.464 60.9477 155.776 61.34 156.399 61.34C156.582 61.34 156.747 61.318 156.894 61.274L156.872 62.022C156.645 62.0733 156.425 62.099 156.212 62.099Z" fill="#CA9050"/>
</g>
<defs>
<linearGradient id="paint0_linear_2951_10156" x1="9.70973" y1="39.73" x2="18.1397" y2="39.73" gradientUnits="userSpaceOnUse">
<stop stop-color="#FBB03B"/>
<stop offset="1"/>
</linearGradient>
<linearGradient id="paint1_linear_2951_10156" x1="9.81957" y1="41.8904" x2="18.0796" y2="41.8904" gradientUnits="userSpaceOnUse">
<stop stop-color="#FBB03B"/>
<stop offset="1"/>
</linearGradient>
<linearGradient id="paint2_linear_2951_10156" x1="21.3001" y1="8.97004" x2="39.5201" y2="52.03" gradientUnits="userSpaceOnUse">
<stop stop-color="#FFF472"/>
<stop offset="1" stop-color="#FBB03B"/>
</linearGradient>
<linearGradient id="paint3_linear_2951_10156" x1="30.5599" y1="21.7803" x2="22.2699" y2="54.8903" gradientUnits="userSpaceOnUse">
<stop stop-color="#FBB03B"/>
<stop offset="1"/>
</linearGradient>
<linearGradient id="paint4_linear_2951_10156" x1="32.1796" y1="10.4002" x2="49.7396" y2="30.3502" gradientUnits="userSpaceOnUse">
<stop stop-color="#FBB03B"/>
<stop offset="1"/>
</linearGradient>
<clipPath id="clip0_2951_10156">
<rect width="196" height="64" fill="white"/>
</clipPath>
</defs>
</svg>
