<svg width="23" height="18" viewBox="0 0 23 18" fill="none" xmlns="http://www.w3.org/2000/svg">
<path id="Vector" d="M1 3.28571C1 2.67951 1.24082 2.09812 1.66947 1.66947C2.09812 1.24082 2.67951 1 3.28571 1H19.2857C19.8919 1 20.4733 1.24082 20.902 1.66947C21.3306 2.09812 21.5714 2.67951 21.5714 3.28571M1 3.28571V14.7143C1 15.3205 1.24082 15.9019 1.66947 16.3305C2.09812 16.7592 2.67951 17 3.28571 17H19.2857C19.8919 17 20.4733 16.7592 20.902 16.3305C21.3306 15.9019 21.5714 15.3205 21.5714 14.7143V3.28571M1 3.28571L11.2857 10.1429L21.5714 3.28571" stroke="#CA9050" stroke-width="1.5" stroke-linecap="round" stroke-linejoin="round"/>
</svg>
