<svg width="36" height="36" viewBox="0 0 36 36" fill="none" xmlns="http://www.w3.org/2000/svg">
<g id="insta">
<rect width="36" height="36" rx="18" fill="#CA9050"/>
<path id="Vector" d="M22.5 14.2587V14.268M10 14.7242C10 13.7365 10.4214 12.7892 11.1716 12.0908C11.9217 11.3924 12.9391 11 14 11H22C23.0609 11 24.0783 11.3924 24.8284 12.0908C25.5786 12.7892 26 13.7365 26 14.7242V22.1725C26 23.1602 25.5786 24.1075 24.8284 24.8059C24.0783 25.5043 23.0609 25.8967 22 25.8967H14C12.9391 25.8967 11.9217 25.5043 11.1716 24.8059C10.4214 24.1075 10 23.1602 10 22.1725V14.7242ZM15 18.4484C15 19.1891 15.3161 19.8996 15.8787 20.4234C16.4413 20.9472 17.2044 21.2415 18 21.2415C18.7956 21.2415 19.5587 20.9472 20.1213 20.4234C20.6839 19.8996 21 19.1891 21 18.4484C21 17.7076 20.6839 16.9971 20.1213 16.4733C19.5587 15.9495 18.7956 15.6552 18 15.6552C17.2044 15.6552 16.4413 15.9495 15.8787 16.4733C15.3161 16.9971 15 17.7076 15 18.4484Z" stroke="white" stroke-width="1.5" stroke-linecap="round" stroke-linejoin="round"/>
</g>
</svg>
