<svg width="36" height="36" viewBox="0 0 36 36" fill="none" xmlns="http://www.w3.org/2000/svg">
<g id="twitter">
<rect width="36" height="36" rx="18" fill="#CA9050"/>
<path id="Vector" d="M28 11.103C27 11.5592 26.02 11.7445 25 12.0247C23.879 10.8469 22.217 10.7818 20.62 11.3385C19.023 11.8953 17.977 13.2565 18 14.8178V15.7489C14.755 15.8262 11.865 14.4501 10 12.0247C10 12.0247 5.818 18.9452 14 22.2662C12.128 23.4272 10.261 24.2102 8 24.1283C11.308 25.8069 14.913 26.3842 18.034 25.5407C21.614 24.5724 24.556 22.0744 25.685 18.3325C26.0218 17.1945 26.189 16.0188 26.182 14.8383C26.182 14.6065 27.692 12.2575 28 11.102V11.103Z" stroke="white" stroke-width="1.5" stroke-linecap="round" stroke-linejoin="round"/>
</g>
</svg>
