<svg width="36" height="36" viewBox="0 0 36 36" fill="none" xmlns="http://www.w3.org/2000/svg">
<g id="youtube">
<rect width="36" height="36" rx="18" fill="#CA9050"/>
<g id="Vector">
<path d="M8 14.7242C8 13.7365 8.42143 12.7892 9.17157 12.0908C9.92172 11.3924 10.9391 11 12 11H24C25.0609 11 26.0783 11.3924 26.8284 12.0908C27.5786 12.7892 28 13.7365 28 14.7242V22.1725C28 23.1602 27.5786 24.1075 26.8284 24.8059C26.0783 25.5043 25.0609 25.8967 24 25.8967H12C10.9391 25.8967 9.92172 25.5043 9.17157 24.8059C8.42143 24.1075 8 23.1602 8 22.1725V14.7242Z" stroke="white" stroke-width="1.5" stroke-linecap="round" stroke-linejoin="round"/>
<path d="M16 15.6552L21 18.4484L16 21.2415V15.6552Z" stroke="white" stroke-width="1.5" stroke-linecap="round" stroke-linejoin="round"/>
</g>
</g>
</svg>
